<svg id="svg" version="1.1" xmlns="http://www.w3.org/2000/svg" xmlns:xlink="http://www.w3.org/1999/xlink" width="400" height="400" viewBox="0, 0, 400,400"><g id="svgg"><path id="path0" d="M0.000 107.594 L 0.000 109.600 94.134 109.600 C 185.240 109.600,251.479 109.231,241.200 108.781 C 237.169 108.605,238.081 108.546,245.900 108.481 C 252.046 108.430,255.600 108.253,255.600 108.000 C 255.600 107.770,254.360 107.600,252.680 107.600 C 251.074 107.600,249.586 107.426,249.373 107.213 C 249.160 107.000,246.739 106.769,243.993 106.700 L 239.000 106.573 244.400 106.403 C 257.077 106.004,209.810 105.750,108.300 105.672 L 0.000 105.589 0.000 107.594 M315.927 120.300 L 315.800 121.400 287.700 121.503 C 259.933 121.604,259.600 121.615,259.600 122.403 C 259.600 123.196,314.950 123.731,316.967 122.957 C 317.980 122.569,317.853 119.200,316.827 119.200 C 316.280 119.200,316.016 119.523,315.927 120.300 M327.467 119.467 C 327.023 119.911,327.168 121.804,327.700 122.515 C 328.482 123.559,358.120 123.356,358.323 122.305 C 358.448 121.657,357.468 121.603,343.728 121.505 L 329.000 121.400 328.873 120.300 C 328.755 119.269,328.070 118.863,327.467 119.467 M32.677 121.480 C 32.265 121.587,32.010 121.954,32.083 122.334 C 32.276 123.336,151.270 123.367,151.417 122.366 C 151.540 121.528,35.822 120.665,32.677 121.480 M377.773 122.300 C 377.945 123.474,399.200 123.580,399.200 122.407 C 399.200 121.618,398.962 121.600,388.435 121.600 C 378.411 121.600,377.678 121.648,377.773 122.300 M0.000 133.600 C 0.000 134.382,0.267 134.400,11.967 134.400 C 24.331 134.400,25.299 134.323,24.932 133.367 C 24.529 132.318,0.000 132.547,0.000 133.600 M297.600 133.386 C 297.600 134.072,298.779 134.771,299.500 134.513 C 300.588 134.122,300.048 132.800,298.800 132.800 C 298.013 132.800,297.600 133.002,297.600 133.386 M313.880 133.336 C 313.539 134.225,314.219 134.911,315.150 134.616 C 316.366 134.230,316.282 132.800,315.043 132.800 C 314.516 132.800,313.993 133.041,313.880 133.336 M107.249 136.759 C 105.371 137.956,107.735 138.000,173.400 138.000 C 237.645 138.000,240.878 137.945,239.807 136.873 C 239.396 136.462,107.892 136.349,107.249 136.759 M118.700 145.371 C 117.875 145.574,117.200 145.889,117.200 146.071 C 117.200 146.669,195.883 146.481,196.113 145.882 C 196.234 145.568,195.975 145.334,195.456 145.288 C 192.108 144.994,119.911 145.072,118.700 145.371 M114.625 145.960 C 114.429 146.277,98.355 146.400,57.176 146.400 C 8.850 146.400,0.000 146.485,0.000 146.952 C 0.000 147.921,115.280 148.454,116.245 147.489 C 116.416 147.318,116.182 146.805,115.726 146.349 C 115.178 145.801,114.805 145.669,114.625 145.960 M197.855 147.000 C 197.729 147.330,197.664 147.641,197.713 147.691 C 198.054 148.046,265.200 148.135,265.200 147.780 C 265.200 146.421,264.673 146.400,231.163 146.400 C 202.130 146.400,198.057 146.473,197.855 147.000 M347.870 146.961 C 347.499 147.928,348.829 147.989,370.250 147.995 C 391.788 148.000,393.696 147.914,393.328 146.956 C 393.007 146.121,348.191 146.126,347.870 146.961 M265.600 148.800 C 265.600 149.020,265.349 149.200,265.043 149.200 C 264.736 149.200,264.376 149.485,264.243 149.833 C 263.767 151.072,263.993 151.600,264.997 151.600 C 265.904 151.600,265.989 151.456,265.932 150.000 C 265.878 148.636,265.600 147.629,265.600 148.800 M0.000 151.000 C 0.000 151.333,0.356 151.600,0.800 151.600 C 1.244 151.600,1.600 151.333,1.600 151.000 C 1.600 150.667,1.244 150.400,0.800 150.400 C 0.356 150.400,0.000 150.667,0.000 151.000 M37.600 160.635 C 37.600 161.605,38.873 161.633,72.000 161.405 C 113.925 161.116,184.943 161.114,206.900 161.401 C 222.085 161.600,224.000 161.556,224.000 161.012 C 224.000 160.676,223.865 160.387,223.700 160.371 C 219.256 159.944,37.600 160.202,37.600 160.635 M0.000 165.800 C 0.000 166.302,0.866 166.404,5.300 166.424 C 18.681 166.484,35.381 166.336,35.675 166.154 C 36.994 165.338,34.433 165.200,18.000 165.200 C 2.267 165.200,0.000 165.276,0.000 165.800 M245.698 165.700 C 245.952 166.476,248.000 166.589,248.000 165.827 C 248.000 165.393,247.620 165.200,246.767 165.200 C 245.959 165.200,245.590 165.373,245.698 165.700 M248.400 165.576 C 248.400 165.783,248.574 166.061,248.788 166.192 C 249.077 166.371,265.239 166.538,270.457 166.415 C 270.819 166.407,271.218 166.130,271.345 165.800 C 271.546 165.275,270.123 165.200,259.987 165.200 C 253.014 165.200,248.400 165.350,248.400 165.576 M338.255 165.800 C 338.382 166.130,338.781 166.406,339.143 166.413 C 345.106 166.534,364.533 166.365,364.816 166.190 C 366.169 165.354,364.113 165.200,351.613 165.200 C 339.699 165.200,338.053 165.274,338.255 165.800 M378.122 173.857 C 377.860 173.964,377.735 174.287,377.846 174.574 C 378.239 175.600,400.000 175.447,400.000 174.419 C 400.000 173.633,379.939 173.119,378.122 173.857 M0.000 175.600 C 0.000 176.358,0.267 176.400,5.043 176.400 C 9.477 176.400,10.056 176.324,9.843 175.767 C 9.709 175.419,9.600 175.059,9.600 174.967 C 9.600 174.875,7.440 174.800,4.800 174.800 C 0.267 174.800,0.000 174.844,0.000 175.600 M222.800 175.600 C 222.414 176.321,222.496 176.400,223.629 176.400 C 224.610 176.400,224.832 176.262,224.643 175.767 C 224.509 175.419,224.400 175.059,224.400 174.967 C 224.400 174.437,223.160 174.927,222.800 175.600 M247.467 175.067 C 246.132 176.401,246.078 176.400,301.243 176.400 C 350.358 176.400,355.263 176.342,355.043 175.767 C 354.909 175.419,354.800 175.059,354.800 174.967 C 354.800 174.684,247.750 174.783,247.467 175.067 M185.042 180.062 C 184.297 181.126,184.708 181.724,186.054 181.534 C 186.761 181.434,186.999 181.149,186.995 180.405 C 186.989 179.091,185.861 178.893,185.042 180.062 M25.381 180.430 C 24.725 181.492,26.439 181.606,41.625 181.505 C 55.334 181.414,57.400 181.321,57.400 180.800 C 57.400 180.033,25.852 179.669,25.381 180.430 M223.240 180.348 L 222.280 180.617 223.359 181.109 C 225.530 182.098,400.000 181.793,400.000 180.800 C 400.000 179.989,226.110 179.545,223.240 180.348 M10.400 189.222 C 10.400 189.969,10.748 190.000,19.029 190.000 C 27.033 190.000,27.649 189.949,27.524 189.300 C 27.303 188.154,10.400 188.077,10.400 189.222 M159.568 189.100 C 159.551 189.485,159.563 190.907,159.595 192.260 C 159.627 193.633,159.464 194.837,159.226 194.984 C 158.319 195.545,158.776 196.456,159.900 196.327 C 161.765 196.112,161.765 188.444,159.900 188.406 C 159.735 188.403,159.586 188.715,159.568 189.100 M214.640 189.520 C 213.705 194.212,215.022 196.525,218.510 196.319 C 221.241 196.159,221.600 195.202,218.933 195.194 C 216.348 195.186,215.934 194.848,215.902 192.717 C 215.858 189.819,214.596 190.000,234.827 190.000 C 252.994 190.000,253.201 189.991,252.716 189.214 C 252.240 188.452,251.682 188.429,233.540 188.435 L 214.855 188.441 214.640 189.520 M337.421 188.834 C 337.546 189.036,337.457 189.200,337.224 189.200 C 336.991 189.200,336.800 189.380,336.800 189.600 C 336.800 189.861,343.743 190.000,356.829 190.000 C 375.690 190.000,376.851 189.959,376.724 189.300 C 376.598 188.646,375.303 188.596,356.892 188.534 C 345.083 188.495,337.286 188.615,337.421 188.834 M283.000 190.800 C 282.837 191.064,288.063 191.200,298.376 191.200 C 308.525 191.200,314.000 191.060,314.000 190.800 C 314.000 190.540,308.608 190.400,298.624 190.400 C 288.804 190.400,283.158 190.545,283.000 190.800 M257.200 194.400 C 257.200 195.194,257.467 195.200,295.400 195.200 C 333.333 195.200,333.600 195.194,333.600 194.400 C 333.600 193.606,333.333 193.600,295.400 193.600 C 257.467 193.600,257.200 193.606,257.200 194.400 M47.900 195.087 C 47.289 195.179,46.800 195.508,46.800 195.827 C 46.800 196.318,50.201 196.400,70.600 196.400 C 90.478 196.400,94.400 196.310,94.400 195.852 C 94.400 195.530,93.782 195.203,92.900 195.057 C 91.268 194.787,49.696 194.814,47.900 195.087 M371.200 195.800 C 371.200 196.322,373.067 196.400,385.600 196.400 C 398.133 196.400,400.000 196.322,400.000 195.800 C 400.000 195.278,398.133 195.200,385.600 195.200 C 373.067 195.200,371.200 195.278,371.200 195.800 M25.200 202.820 C 25.200 203.578,25.584 203.600,38.843 203.600 C 51.119 203.600,52.461 203.537,52.243 202.967 C 52.109 202.619,52.000 202.255,52.000 202.158 C 52.000 202.061,45.970 201.994,38.600 202.011 C 25.592 202.039,25.200 202.063,25.200 202.820 M185.067 202.267 C 184.094 203.239,184.928 203.600,188.151 203.600 C 192.195 203.600,192.323 203.715,192.481 207.505 C 192.668 212.017,193.800 210.897,193.800 206.199 C 193.800 203.587,193.657 202.680,193.200 202.391 C 192.523 201.963,185.478 201.855,185.067 202.267 M225.100 203.172 C 223.797 204.566,223.703 205.200,224.800 205.200 C 225.341 205.200,225.600 204.933,225.600 204.375 C 225.600 203.575,225.788 203.551,231.700 203.602 C 235.055 203.631,238.008 203.642,238.263 203.627 C 238.517 203.612,238.643 203.285,238.542 202.900 C 238.379 202.278,237.682 202.189,232.279 202.097 L 226.200 201.995 225.100 203.172 M345.307 202.842 C 345.251 203.579,345.996 203.600,372.625 203.600 C 399.845 203.600,400.000 203.595,400.000 202.790 C 400.000 201.555,345.400 201.607,345.307 202.842 M248.800 204.157 C 248.800 205.086,249.291 205.096,291.000 204.986 C 337.461 204.863,332.400 204.959,332.400 204.200 C 332.400 203.670,327.489 203.600,290.600 203.600 C 255.158 203.600,248.800 203.685,248.800 204.157 M-0.000 209.343 L 0.000 210.400 3.951 210.400 C 7.003 210.400,8.017 210.261,8.408 209.790 C 9.182 208.858,8.778 208.733,4.225 208.501 L -0.000 208.285 -0.000 209.343 M224.000 209.257 C 224.000 210.302,222.478 210.272,279.200 210.356 C 340.939 210.447,361.200 210.198,361.200 209.347 C 361.200 208.902,359.684 208.800,353.100 208.801 C 348.645 208.802,317.775 208.757,284.500 208.701 C 228.607 208.608,224.000 208.650,224.000 209.257 M361.470 210.162 C 360.962 211.485,362.558 211.600,381.374 211.600 C 399.733 211.600,400.000 211.589,400.000 210.800 C 400.000 210.012,399.732 210.000,381.700 209.995 C 371.635 209.992,363.020 209.887,362.555 209.762 C 362.002 209.614,361.627 209.752,361.470 210.162 M76.978 210.435 C 76.307 211.521,78.507 211.602,106.217 211.503 C 133.254 211.406,134.997 211.358,135.124 210.700 C 135.288 209.848,77.504 209.584,76.978 210.435 M161.271 210.672 C 161.369 211.182,161.768 211.400,162.605 211.400 C 164.335 211.400,164.212 210.239,162.465 210.072 C 161.355 209.966,161.154 210.067,161.271 210.672 M47.300 215.865 C 47.025 215.976,46.800 216.322,46.800 216.633 C 46.800 217.316,82.967 217.500,83.388 216.820 C 84.046 215.754,49.820 214.848,47.300 215.865 M111.200 216.338 C 111.200 217.248,112.595 218.574,113.175 218.216 C 113.828 217.812,113.679 216.116,112.967 215.843 C 111.834 215.408,111.200 215.585,111.200 216.338 M148.100 215.865 C 147.825 215.976,147.600 216.322,147.600 216.633 C 147.600 217.112,149.925 217.200,162.600 217.200 C 177.333 217.200,177.600 217.186,177.600 216.400 C 177.600 215.629,149.929 215.127,148.100 215.865 M331.470 217.761 C 331.149 218.598,332.398 218.788,338.267 218.795 C 343.850 218.800,344.800 218.650,344.800 217.757 C 344.800 216.932,331.787 216.935,331.470 217.761 M263.376 219.354 C 263.054 220.638,263.504 223.290,264.111 223.682 C 264.975 224.240,313.885 223.875,314.454 223.307 C 315.473 222.286,313.744 222.195,289.667 222.000 L 265.000 221.800 265.127 220.100 C 265.275 218.114,263.840 217.503,263.376 219.354 M6.178 224.036 C 5.609 224.956,7.158 225.188,13.929 225.194 C 20.315 225.200,20.848 225.145,20.724 224.500 C 20.558 223.637,6.698 223.194,6.178 224.036 M350.584 224.026 C 349.970 225.019,351.317 225.215,358.030 225.110 C 363.910 225.017,365.000 224.906,365.000 224.400 C 365.000 223.635,351.050 223.273,350.584 224.026 M72.300 229.471 C 71.915 229.574,71.600 229.915,71.600 230.229 C 71.600 230.712,73.577 230.800,84.367 230.800 C 99.957 230.800,98.400 230.260,98.400 235.672 C 98.400 239.634,98.468 240.046,99.100 239.924 C 99.954 239.761,100.382 230.742,99.581 229.777 C 99.144 229.251,74.165 228.971,72.300 229.471 M0.000 231.600 C 0.000 232.970,13.625 232.676,13.900 231.300 C 13.977 230.915,12.387 230.800,7.000 230.800 C 0.267 230.800,0.000 230.830,0.000 231.600 M343.772 231.245 C 343.227 232.128,344.698 232.388,350.271 232.394 C 355.701 232.400,357.200 232.092,357.200 230.971 C 357.200 230.554,344.034 230.822,343.772 231.245 M297.920 232.500 C 296.899 233.308,297.132 237.400,298.200 237.400 C 298.838 237.400,299.010 237.117,299.049 236.000 C 299.076 235.230,299.121 234.375,299.149 234.100 C 299.188 233.720,300.934 233.600,306.400 233.600 C 313.333 233.600,313.600 233.570,313.600 232.800 C 313.600 231.811,299.141 231.535,297.920 232.500 M318.000 238.000 C 318.000 238.763,318.267 238.800,323.800 238.800 C 329.333 238.800,329.600 238.763,329.600 238.000 C 329.600 237.237,329.333 237.200,323.800 237.200 C 318.267 237.200,318.000 237.237,318.000 238.000 M17.900 238.658 C 17.515 238.768,17.200 239.115,17.200 239.429 C 17.200 239.905,18.589 240.000,25.576 240.000 C 33.470 240.000,35.117 239.785,34.207 238.873 C 33.891 238.556,18.943 238.358,17.900 238.658 M182.900 238.682 C 182.405 238.778,182.000 239.113,182.000 239.428 C 182.000 239.907,183.488 240.000,191.200 240.000 C 200.133 240.000,200.400 239.977,200.400 239.200 C 200.400 238.429,186.372 238.014,182.900 238.682 M361.122 238.684 C 360.384 238.797,360.113 239.030,360.265 239.424 C 360.587 240.265,380.000 240.287,380.000 239.447 C 380.000 238.498,366.035 237.935,361.122 238.684 M11.772 244.845 C 11.124 245.893,13.058 246.014,26.400 245.760 C 41.635 245.470,44.750 245.200,32.867 245.200 C 28.022 245.200,25.200 245.053,25.200 244.800 C 25.200 244.220,12.132 244.263,11.772 244.845 M76.800 248.367 C 76.800 250.549,76.691 252.619,76.557 252.967 C 76.340 253.535,73.813 253.600,52.114 253.600 C 30.212 253.600,27.937 253.660,28.157 254.233 C 28.291 254.581,28.400 254.935,28.400 255.020 C 28.400 255.411,74.479 255.186,75.215 254.792 C 75.775 254.492,76.000 254.499,76.000 254.814 C 76.000 256.133,77.806 254.908,78.084 253.400 C 78.689 250.113,78.335 244.400,77.526 244.400 C 76.874 244.400,76.800 244.802,76.800 248.367 M138.473 245.412 C 138.543 245.969,138.780 246.425,139.000 246.425 C 139.220 246.425,139.457 245.969,139.527 245.412 C 139.617 244.691,139.465 244.400,139.000 244.400 C 138.535 244.400,138.383 244.691,138.473 245.412 M181.868 244.967 C 181.523 245.866,182.468 246.000,189.183 246.000 C 196.313 246.000,198.047 245.788,197.728 244.956 C 197.410 244.127,182.186 244.138,181.868 244.967 M353.200 244.957 C 353.200 246.509,368.790 246.452,369.100 244.900 C 369.177 244.513,367.387 244.400,361.200 244.400 C 354.629 244.400,353.200 244.500,353.200 244.957 M214.322 252.284 C 213.584 252.397,213.313 252.630,213.465 253.024 C 213.785 253.858,224.000 253.876,224.000 253.043 C 224.000 252.063,218.564 251.637,214.322 252.284 M138.267 253.067 C 137.850 253.483,137.948 253.891,138.629 254.571 C 139.439 255.382,140.248 255.373,140.564 254.549 C 140.946 253.555,139.020 252.313,138.267 253.067 M152.000 254.157 C 152.000 254.464,152.285 254.824,152.633 254.957 C 153.756 255.388,175.995 255.231,176.826 254.786 C 178.758 253.752,177.218 253.600,164.800 253.600 C 154.126 253.600,152.000 253.693,152.000 254.157 M374.800 253.920 C 374.800 255.084,375.981 255.200,387.880 255.200 C 399.733 255.200,400.000 255.182,400.000 254.400 C 400.000 253.617,399.733 253.600,387.400 253.600 C 380.470 253.600,374.800 253.744,374.800 253.920 M22.656 258.601 C 23.164 259.926,41.704 260.318,41.515 259.000 C 41.404 258.228,41.064 258.197,31.920 258.120 C 23.930 258.053,22.474 258.128,22.656 258.601 M153.200 258.557 C 153.200 259.500,154.172 259.600,163.383 259.600 C 173.074 259.600,174.864 259.432,174.528 258.556 C 174.210 257.729,153.200 257.730,153.200 258.557 M207.092 259.637 C 205.622 260.492,207.015 260.800,212.357 260.800 C 218.031 260.800,218.496 260.716,218.130 259.761 C 217.867 259.077,208.240 258.968,207.092 259.637 M239.100 260.682 C 239.595 260.778,240.405 260.778,240.900 260.682 C 241.395 260.587,240.990 260.509,240.000 260.509 C 239.010 260.509,238.605 260.587,239.100 260.682 M235.076 265.881 C 232.396 266.302,234.381 267.003,238.565 267.114 C 242.509 267.218,242.853 267.169,242.728 266.514 C 242.589 265.787,238.066 265.413,235.076 265.881 M0.000 268.000 C 0.000 268.701,0.267 268.800,2.153 268.800 C 3.970 268.800,4.339 268.675,4.516 268.000 C 4.708 267.267,4.528 267.200,2.363 267.200 C 0.267 267.200,0.000 267.290,0.000 268.000 M194.000 267.586 C 194.000 269.016,205.652 269.323,205.924 267.900 C 206.047 267.258,205.556 267.200,200.029 267.200 C 196.423 267.200,194.000 267.355,194.000 267.586 M123.275 269.094 C 123.401 269.748,124.344 269.808,136.136 269.906 C 148.110 270.005,148.853 269.970,148.725 269.306 C 148.599 268.652,147.656 268.592,135.864 268.494 C 123.890 268.395,123.147 268.430,123.275 269.094 " stroke="none" fill="#535b9c" fill-rule="evenodd"></path><path id="path1" d="M311.320 107.600 C 311.320 108.810,311.395 109.305,311.487 108.700 C 311.578 108.095,311.578 107.105,311.487 106.500 C 311.395 105.895,311.320 106.390,311.320 107.600 M9.357 119.833 C 9.491 120.181,9.600 120.721,9.600 121.033 C 9.600 121.783,31.774 121.890,32.236 121.142 C 32.447 120.800,43.717 120.749,76.759 120.943 C 101.092 121.085,152.140 121.268,190.200 121.349 L 259.400 121.497 198.400 121.207 C 164.850 121.047,129.418 120.890,119.663 120.858 C 102.286 120.801,101.921 120.784,101.716 120.000 C 101.508 119.206,101.170 119.200,55.311 119.200 C 13.350 119.200,9.137 119.258,9.357 119.833 M329.254 120.100 L 329.200 121.200 338.535 121.200 C 343.669 121.200,354.604 121.270,362.835 121.355 C 377.122 121.503,377.292 121.496,366.600 121.210 C 360.440 121.045,349.608 120.885,342.528 120.855 L 329.656 120.800 329.482 119.900 C 329.334 119.128,329.301 119.157,329.254 120.100 M273.729 121.100 C 281.390 121.161,293.810 121.161,301.329 121.100 C 308.848 121.039,302.580 120.989,287.400 120.989 C 272.220 120.989,266.068 121.039,273.729 121.100 M383.723 121.099 C 386.541 121.168,391.041 121.168,393.723 121.099 C 396.405 121.030,394.100 120.973,388.600 120.973 C 383.100 120.974,380.905 121.030,383.723 121.099 M85.892 133.570 C 85.696 134.320,84.875 134.347,56.145 134.570 C 5.939 134.960,0.000 135.114,0.000 136.029 C 0.000 136.777,0.460 136.800,15.400 136.800 C 28.658 136.800,30.800 136.718,30.800 136.214 C 30.800 134.798,30.792 134.798,165.075 134.899 L 297.800 135.000 297.931 135.924 C 298.099 137.112,299.751 137.007,299.873 135.800 C 299.936 135.177,299.908 135.155,299.748 135.700 C 299.470 136.641,298.400 136.595,298.400 135.643 C 298.400 134.413,298.145 134.400,273.130 134.400 C 249.462 134.400,249.122 134.389,248.916 133.600 C 248.592 132.361,86.216 132.332,85.892 133.570 M387.744 133.500 C 387.797 134.160,385.794 134.214,352.600 134.441 C 316.348 134.688,315.600 134.720,315.600 136.027 C 315.600 136.765,315.957 136.800,323.400 136.800 C 330.772 136.800,331.200 136.759,331.200 136.047 C 331.200 134.823,331.542 134.811,366.500 134.805 L 400.000 134.800 400.000 133.800 L 400.000 132.800 393.844 132.800 C 388.228 132.800,387.694 132.861,387.744 133.500 M140.300 136.300 C 158.395 136.358,188.005 136.358,206.100 136.300 C 224.195 136.242,209.390 136.195,173.200 136.195 C 137.010 136.195,122.205 136.242,140.300 136.300 M196.000 146.427 C 196.000 146.672,195.659 146.746,195.200 146.600 C 194.296 146.313,194.220 146.516,194.814 147.626 C 195.219 148.383,195.956 148.398,227.914 148.302 L 260.600 148.205 228.889 148.100 L 197.178 147.995 196.799 146.998 C 196.408 145.968,196.000 145.677,196.000 146.427 M118.423 147.121 C 117.523 147.746,114.016 147.816,74.023 148.004 L 30.600 148.207 74.886 148.304 C 118.312 148.398,119.180 148.385,119.586 147.626 C 120.352 146.195,119.985 146.036,118.423 147.121 M261.600 148.274 C 263.360 148.565,263.768 148.792,263.324 149.236 C 263.046 149.514,220.607 149.641,131.401 149.633 C 59.068 149.626,-0.032 149.702,0.067 149.801 C 0.166 149.900,9.507 149.999,20.824 150.021 C 42.113 150.063,43.200 150.113,43.200 151.043 C 43.200 151.517,58.710 151.600,147.800 151.600 C 239.063 151.600,252.400 151.526,252.400 151.018 C 252.400 150.153,254.700 149.867,259.037 150.193 C 262.362 150.442,262.949 150.389,263.624 149.779 C 264.692 148.812,263.937 147.984,262.051 148.054 C 260.999 148.094,260.875 148.154,261.600 148.274 M393.300 148.296 C 394.565 148.375,396.635 148.375,397.900 148.296 C 399.165 148.216,398.130 148.151,395.600 148.151 C 393.070 148.151,392.035 148.216,393.300 148.296 M287.600 149.900 C 287.600 150.065,302.106 150.153,319.836 150.095 C 351.843 149.991,352.074 149.996,352.283 150.795 C 352.599 152.003,400.000 152.073,400.000 150.866 C 400.000 150.161,398.575 150.121,364.534 149.866 C 317.809 149.516,287.600 149.529,287.600 149.900 M12.400 161.623 C 12.400 161.830,12.580 162.000,12.800 162.000 C 13.020 162.000,13.200 162.180,13.200 162.400 C 13.200 162.651,10.733 162.800,6.600 162.800 C 2.970 162.800,-0.000 162.953,-0.000 163.141 C -0.000 163.766,38.505 163.189,39.231 162.553 C 39.758 162.092,45.097 162.000,71.198 162.000 C 88.433 162.000,102.458 161.935,102.367 161.855 C 101.963 161.502,12.400 161.271,12.400 161.623 M245.867 161.467 C 245.720 161.613,245.600 162.322,245.600 163.042 C 245.600 164.789,246.271 164.871,259.200 164.711 L 269.400 164.586 258.494 164.493 L 247.587 164.400 247.672 163.289 C 247.801 161.597,246.774 160.560,245.867 161.467 M248.934 161.827 C 248.417 163.174,249.507 163.227,282.633 163.471 C 342.325 163.911,366.368 163.345,363.558 161.566 C 362.429 160.851,339.993 161.116,340.271 161.840 C 340.762 163.120,338.983 163.188,304.800 163.188 C 270.617 163.188,268.838 163.120,269.329 161.840 C 269.551 161.264,268.563 161.200,259.375 161.200 C 250.483 161.200,249.144 161.280,248.934 161.827 M125.100 161.900 C 137.475 161.959,157.725 161.959,170.100 161.900 C 182.475 161.841,172.350 161.793,147.600 161.793 C 122.850 161.793,112.725 161.841,125.100 161.900 M208.000 161.978 C 216.470 162.100,223.555 162.081,223.745 161.935 C 223.935 161.789,217.005 161.689,208.345 161.713 L 192.600 161.756 208.000 161.978 M20.600 164.789 C 31.820 164.952,53.729 165.111,69.287 165.143 C 94.200 165.193,97.548 165.271,97.346 165.798 C 97.145 166.319,93.241 166.408,66.658 166.500 C 49.906 166.558,78.230 166.606,129.600 166.608 C 180.970 166.609,216.655 166.561,208.900 166.500 C 196.635 166.404,194.800 166.311,194.800 165.785 C 194.800 165.255,196.592 165.194,209.400 165.290 C 217.430 165.351,224.000 165.265,224.000 165.100 C 224.000 164.935,186.155 164.800,139.900 164.800 C 93.645 164.800,43.290 164.730,28.000 164.646 C 1.866 164.502,1.423 164.511,20.600 164.789 M355.330 164.700 C 363.651 164.760,377.151 164.760,385.330 164.700 C 393.508 164.639,386.700 164.590,370.200 164.590 C 353.700 164.590,347.008 164.639,355.330 164.700 M27.200 175.600 C 27.200 176.040,27.155 176.434,27.100 176.476 C 27.045 176.518,20.970 176.668,13.600 176.810 C 6.202 176.952,13.368 176.998,29.600 176.913 C 61.645 176.744,60.824 176.779,60.516 175.602 C 60.187 174.342,27.200 174.340,27.200 175.600 M185.000 175.300 C 184.904 175.575,184.775 176.610,184.713 177.600 L 184.600 179.400 120.400 179.602 L 56.200 179.805 120.600 179.802 L 185.000 179.800 185.200 177.300 C 185.397 174.839,185.344 174.314,185.000 175.300 M379.345 175.800 C 379.149 176.311,377.527 176.408,368.457 176.455 C 362.596 176.485,352.670 176.631,346.400 176.779 C 336.067 177.024,337.047 177.056,356.871 177.124 C 379.725 177.203,380.000 177.185,380.000 175.571 C 380.000 174.994,379.600 175.134,379.345 175.800 M385.500 175.499 C 388.195 175.568,392.605 175.568,395.300 175.499 C 397.995 175.430,395.790 175.373,390.400 175.373 C 385.010 175.373,382.805 175.430,385.500 175.499 M223.700 176.689 C 222.280 176.866,222.292 176.853,222.643 177.767 C 222.950 178.568,223.842 178.588,224.145 177.800 C 224.345 177.278,227.137 177.190,245.487 177.125 C 264.826 177.056,265.659 177.027,255.400 176.779 C 243.151 176.483,225.758 176.434,223.700 176.689 M283.730 176.700 C 293.151 176.760,308.451 176.760,317.730 176.700 C 327.008 176.640,319.300 176.591,300.600 176.591 C 281.900 176.591,274.308 176.640,283.730 176.700 M0.000 179.400 C 0.000 180.441,2.924 180.838,5.500 180.148 C 7.942 179.493,6.503 178.400,3.200 178.400 C 0.053 178.400,0.000 178.417,0.000 179.400 M222.800 179.376 C 222.800 179.934,225.017 179.990,243.900 179.909 L 265.000 179.818 244.400 179.609 C 233.070 179.494,223.575 179.254,223.300 179.076 C 222.975 178.866,222.800 178.972,222.800 179.376 M284.700 179.900 C 293.555 179.960,308.045 179.960,316.900 179.900 C 325.755 179.840,318.510 179.791,300.800 179.791 C 283.090 179.791,275.845 179.840,284.700 179.900 M347.900 179.900 C 354.115 179.962,364.285 179.962,370.500 179.900 C 376.715 179.838,371.630 179.787,359.200 179.787 C 346.770 179.787,341.685 179.838,347.900 179.900 M56.700 188.665 C 57.127 188.837,57.407 189.831,57.100 190.082 C 57.045 190.127,47.010 190.277,34.800 190.417 C 22.590 190.556,32.580 190.591,57.000 190.494 C 81.420 190.398,101.559 190.169,101.753 189.986 C 103.376 188.458,102.504 188.399,78.913 188.432 C 66.421 188.449,56.425 188.554,56.700 188.665 M133.242 188.766 C 131.076 190.137,132.869 190.376,146.188 190.489 C 156.901 190.580,159.173 190.506,159.005 190.067 C 158.892 189.774,158.800 189.279,158.800 188.967 C 158.800 188.309,134.269 188.115,133.242 188.766 M253.350 189.300 C 253.558 189.947,253.025 190.007,246.287 190.089 L 239.000 190.178 245.180 190.300 C 250.746 190.410,251.435 190.501,252.103 191.218 C 253.187 192.382,337.614 192.272,338.483 191.105 C 338.934 190.499,339.918 190.394,346.200 190.287 L 353.400 190.163 345.400 190.007 C 341.000 189.921,318.600 189.793,295.621 189.722 C 262.945 189.621,253.764 189.484,253.484 189.096 C 253.236 188.755,253.195 188.818,253.350 189.300 M2.500 189.897 C 3.985 189.974,6.415 189.974,7.900 189.897 C 9.385 189.820,8.170 189.757,5.200 189.757 C 2.230 189.757,1.015 189.820,2.500 189.897 M256.545 190.600 C 256.725 191.071,256.436 191.200,255.200 191.200 C 253.964 191.200,253.675 191.071,253.855 190.600 C 253.984 190.265,254.578 190.000,255.200 190.000 C 255.822 190.000,256.416 190.265,256.545 190.600 M317.330 190.264 C 318.774 191.708,310.772 191.910,274.900 191.334 C 261.600 191.121,258.400 190.967,258.400 190.540 C 258.400 189.973,316.767 189.700,317.330 190.264 M332.000 190.600 C 332.000 191.110,330.978 191.200,325.200 191.200 C 319.422 191.200,318.400 191.110,318.400 190.600 C 318.400 190.090,319.422 190.000,325.200 190.000 C 330.978 190.000,332.000 190.090,332.000 190.600 M365.800 190.426 C 359.420 190.561,364.460 190.593,377.000 190.496 C 389.540 190.400,399.875 190.249,399.967 190.161 C 400.178 189.957,380.975 190.106,365.800 190.426 M216.206 191.183 C 215.727 192.691,216.401 194.805,217.345 194.754 C 218.001 194.718,218.040 194.665,217.513 194.527 C 216.738 194.323,216.086 191.754,216.663 191.177 C 216.863 190.977,221.881 190.762,227.813 190.700 L 238.600 190.586 227.527 190.493 C 216.845 190.403,216.445 190.428,216.206 191.183 M4.000 193.578 C 7.678 193.772,8.193 193.887,8.144 194.500 C 8.093 195.145,8.704 195.200,15.844 195.200 C 23.187 195.200,23.600 195.160,23.600 194.443 C 23.600 193.251,22.998 193.195,11.067 193.278 C 3.875 193.328,1.319 193.437,4.000 193.578 M230.400 193.587 C 223.423 193.733,219.947 193.954,219.400 194.288 C 218.615 194.767,218.616 194.776,219.476 194.788 C 219.958 194.795,220.436 194.935,220.538 195.100 C 221.027 195.894,242.000 195.205,242.000 194.396 C 242.000 193.653,242.380 193.611,250.100 193.500 L 258.200 193.382 249.400 193.378 C 244.560 193.375,236.010 193.469,230.400 193.587 M277.470 193.500 C 287.408 193.559,303.788 193.559,313.870 193.500 C 323.951 193.440,315.820 193.392,295.800 193.392 C 275.780 193.392,267.531 193.440,277.470 193.500 M341.700 193.475 C 350.458 193.610,350.800 193.645,350.800 194.407 C 350.800 195.264,372.049 195.692,372.572 194.845 C 373.202 193.826,370.932 193.678,352.200 193.511 C 341.420 193.415,336.695 193.399,341.700 193.475 M103.400 194.400 L 47.800 194.604 103.500 194.702 C 140.432 194.767,159.200 194.665,159.200 194.400 C 159.200 194.180,159.155 194.044,159.100 194.098 C 159.045 194.152,133.980 194.288,103.400 194.400 M91.471 202.640 C 91.958 203.910,90.161 203.989,58.600 204.087 C 41.000 204.141,31.190 204.247,36.800 204.321 C 66.196 204.711,135.200 203.920,135.200 203.194 C 135.200 202.025,134.730 202.000,112.580 202.000 C 93.164 202.000,91.247 202.058,91.471 202.640 M0.000 204.400 C 0.000 205.167,0.267 205.200,6.400 205.200 C 12.533 205.200,12.800 205.167,12.800 204.400 C 12.800 203.633,12.533 203.600,6.400 203.600 C 0.267 203.600,0.000 203.633,0.000 204.400 M161.461 204.100 C 161.564 204.265,168.387 204.400,176.624 204.400 L 191.600 204.400 191.600 207.176 C 191.600 208.703,191.735 210.037,191.900 210.140 C 192.065 210.242,192.140 208.982,192.068 207.338 C 191.987 205.530,191.750 204.284,191.468 204.183 C 190.609 203.876,161.273 203.795,161.461 204.100 M231.948 203.899 C 235.505 204.011,236.188 204.142,236.748 204.823 C 237.383 205.597,237.857 205.615,255.000 205.504 L 272.600 205.391 254.900 205.296 C 240.083 205.216,237.200 205.109,237.200 204.643 C 237.200 203.768,236.231 203.594,231.867 203.684 L 227.800 203.769 231.948 203.899 M346.558 204.300 C 345.921 204.936,344.384 205.019,329.629 205.209 L 313.400 205.418 329.877 205.509 C 345.898 205.597,346.370 205.578,346.909 204.808 C 347.428 204.068,348.018 204.009,356.032 203.900 L 364.600 203.783 355.929 203.692 C 348.129 203.609,347.187 203.670,346.558 204.300 M225.616 205.500 C 225.316 206.325,224.995 206.775,224.902 206.500 C 224.644 205.736,224.000 205.905,224.000 206.736 C 224.000 208.203,226.259 208.444,238.800 208.312 L 250.600 208.187 238.300 208.094 L 226.000 208.000 226.000 206.986 C 226.000 206.428,226.291 205.528,226.646 204.986 C 227.178 204.174,227.192 204.000,226.726 204.000 C 226.415 204.000,225.916 204.675,225.616 205.500 M385.923 204.299 C 388.631 204.368,392.951 204.368,395.523 204.299 C 398.095 204.229,395.880 204.172,390.600 204.173 C 385.320 204.173,383.215 204.230,385.923 204.299 M11.000 208.364 L 21.800 208.600 21.768 209.500 L 21.736 210.400 31.681 210.400 C 40.341 210.400,41.656 210.319,41.866 209.773 C 42.335 208.549,41.179 208.468,20.800 208.299 C 9.470 208.205,5.060 208.234,11.000 208.364 M346.579 208.300 C 361.552 208.405,362.192 208.441,363.014 209.213 C 363.822 209.973,364.320 210.011,372.035 209.900 L 380.200 209.782 371.996 209.691 C 364.278 209.605,363.763 209.553,363.293 208.800 C 362.805 208.019,362.413 208.002,346.897 208.095 L 331.000 208.190 346.579 208.300 M92.900 209.500 C 100.545 209.561,113.055 209.561,120.700 209.500 C 128.345 209.439,122.090 209.389,106.800 209.389 C 91.510 209.389,85.255 209.439,92.900 209.500 M328.500 210.276 C 328.885 210.376,329.515 210.376,329.900 210.276 C 330.285 210.175,329.970 210.093,329.200 210.093 C 328.430 210.093,328.115 210.175,328.500 210.276 M13.344 217.900 C 13.395 218.534,12.756 218.620,6.600 218.815 C 0.686 219.001,0.378 219.041,4.236 219.115 C 14.901 219.320,25.600 218.730,25.600 217.936 C 25.600 217.253,25.156 217.200,19.444 217.200 C 13.828 217.200,13.294 217.261,13.344 217.900 M186.439 219.876 C 186.392 221.348,186.263 222.698,186.153 222.876 C 186.043 223.054,180.608 223.203,174.076 223.206 C 162.169 223.212,161.362 223.288,161.387 224.400 C 161.398 224.918,163.124 225.014,174.032 225.106 L 186.665 225.211 186.632 224.306 C 186.609 223.659,186.857 223.364,187.500 223.272 C 188.926 223.070,188.891 217.200,187.463 217.200 C 186.582 217.200,186.521 217.361,186.439 219.876 M357.028 217.645 C 357.626 218.612,355.741 218.791,344.000 218.884 C 335.222 218.953,333.764 219.019,338.800 219.118 C 353.656 219.412,370.000 218.802,370.000 217.954 C 370.000 217.246,369.599 217.200,363.376 217.200 C 358.618 217.200,356.830 217.325,357.028 217.645 M79.600 217.995 L 111.400 218.200 111.458 221.525 C 111.490 223.353,111.632 224.965,111.774 225.107 C 111.916 225.249,111.980 223.663,111.916 221.583 L 111.800 217.800 79.800 217.795 L 47.800 217.790 79.600 217.995 M154.726 217.900 C 158.755 217.965,165.235 217.965,169.126 217.899 C 173.017 217.834,169.720 217.780,161.800 217.781 C 153.880 217.781,150.697 217.834,154.726 217.900 M265.467 219.862 C 265.337 220.667,265.324 221.477,265.439 221.662 C 265.553 221.848,279.362 222.013,296.124 222.028 C 326.231 222.056,328.265 222.124,327.668 223.090 C 327.456 223.434,325.470 223.615,320.983 223.700 C 317.232 223.772,319.383 223.856,326.200 223.905 C 337.632 223.987,339.132 223.843,338.696 222.705 C 338.371 221.859,327.916 221.600,294.102 221.600 C 271.425 221.600,265.568 221.497,265.700 221.100 C 265.831 220.707,271.669 220.588,292.901 220.544 C 320.731 220.486,320.800 220.482,320.800 219.176 C 320.800 218.427,320.424 218.400,310.037 218.400 C 299.472 218.400,299.279 218.415,299.484 219.200 C 299.689 219.983,299.496 220.000,290.620 220.000 C 281.728 220.000,281.551 219.984,281.800 219.200 C 282.048 218.418,281.872 218.400,273.879 218.400 L 265.705 218.400 265.467 219.862 M15.200 223.250 C 19.050 223.389,25.654 223.524,29.876 223.551 C 37.320 223.599,39.051 223.889,37.551 224.839 C 37.231 225.041,43.170 225.190,51.700 225.194 C 66.211 225.200,66.400 225.190,66.400 224.387 C 66.400 223.209,67.792 223.269,36.800 223.128 C 21.070 223.057,11.350 223.112,15.200 223.250 M355.900 223.097 C 357.495 223.173,360.105 223.173,361.700 223.097 C 363.295 223.021,361.990 222.959,358.800 222.959 C 355.610 222.959,354.305 223.021,355.900 223.097 M373.800 223.494 C 383.800 223.614,384.365 223.678,383.596 224.605 C 383.161 225.129,384.116 225.200,391.551 225.200 L 400.000 225.200 400.000 224.200 L 400.000 223.200 382.300 223.292 C 372.565 223.343,368.740 223.434,373.800 223.494 M25.886 231.594 C 25.685 232.362,25.250 232.394,12.939 232.531 C 5.933 232.609,10.010 232.602,22.000 232.515 C 42.774 232.364,44.846 232.245,44.222 231.235 C 43.658 230.322,26.128 230.666,25.886 231.594 M168.650 231.119 C 168.015 232.146,169.669 232.291,184.687 232.523 C 193.315 232.656,200.453 232.638,200.550 232.483 C 200.647 232.327,198.749 232.256,196.332 232.326 C 192.176 232.444,191.927 232.406,191.723 231.626 C 191.497 230.762,169.173 230.272,168.650 231.119 M368.847 231.100 C 369.049 232.377,368.836 232.400,356.533 232.400 C 349.787 232.400,344.373 232.506,344.502 232.636 C 345.225 233.359,400.000 232.279,400.000 231.542 C 400.000 230.832,399.323 230.800,384.400 230.800 C 375.820 230.800,368.821 230.935,368.847 231.100 M85.085 231.500 L 97.570 231.611 97.702 235.306 L 97.834 239.000 97.917 235.100 L 98.000 231.200 85.300 231.294 L 72.600 231.388 85.085 231.500 M324.284 232.800 C 324.486 233.572,324.296 233.600,318.870 233.600 C 315.146 233.600,313.154 233.752,312.970 234.049 C 312.700 234.486,333.354 234.175,334.100 233.731 C 334.265 233.633,334.400 233.203,334.400 232.776 C 334.400 232.048,334.081 232.000,329.237 232.000 C 324.272 232.000,324.083 232.031,324.284 232.800 M299.555 234.300 C 299.531 234.465,299.486 235.251,299.455 236.046 L 299.400 237.492 301.200 237.446 C 303.843 237.378,304.151 235.715,301.556 235.524 C 300.624 235.456,299.790 235.180,299.701 234.910 C 299.579 234.540,301.139 234.391,306.070 234.299 L 312.600 234.179 306.100 234.089 C 302.525 234.040,299.580 234.135,299.555 234.300 M322.316 236.697 C 323.699 236.775,325.859 236.774,327.116 236.695 C 328.372 236.616,327.240 236.552,324.600 236.553 C 321.960 236.553,320.932 236.618,322.316 236.697 M0.000 237.783 C 0.000 238.788,0.037 238.800,3.228 238.800 C 6.346 238.800,6.451 238.770,6.328 237.900 C 6.115 236.402,0.000 236.289,0.000 237.783 M334.300 237.099 C 338.865 237.216,339.200 237.278,339.200 238.012 C 339.200 238.755,339.493 238.800,344.333 238.800 C 349.812 238.800,350.193 238.709,349.572 237.547 C 349.196 236.845,348.580 236.805,339.286 236.886 C 333.849 236.934,331.605 237.030,334.300 237.099 M37.000 238.402 C 58.072 238.641,56.576 238.563,56.255 239.400 C 56.053 239.927,57.991 240.000,72.242 240.000 C 87.471 240.000,88.450 239.957,88.324 239.300 C 88.169 238.489,69.663 238.083,35.800 238.149 L 17.800 238.185 37.000 238.402 M155.300 238.295 C 153.536 238.418,153.200 238.566,153.200 239.221 C 153.200 240.402,157.406 240.386,157.715 239.204 C 157.919 238.422,158.337 238.405,179.262 238.300 L 200.600 238.193 179.000 238.170 C 167.120 238.158,156.455 238.214,155.300 238.295 M370.672 238.300 C 375.992 238.363,384.812 238.363,390.272 238.300 C 395.733 238.237,391.380 238.185,380.600 238.185 C 369.820 238.185,365.353 238.237,370.672 238.300 M41.085 245.195 C 40.884 245.967,40.463 245.993,26.539 246.100 C 18.121 246.165,22.771 246.247,37.800 246.299 C 63.133 246.387,64.758 246.310,64.271 245.040 C 63.846 243.934,41.376 244.084,41.085 245.195 M76.084 248.500 L 76.000 252.800 53.100 252.895 L 30.200 252.990 52.800 253.195 C 68.584 253.338,75.555 253.271,75.915 252.971 C 76.291 252.658,76.394 251.416,76.299 248.371 L 76.169 244.200 76.084 248.500 M140.250 245.650 C 139.800 247.898,139.963 252.729,140.500 253.076 C 140.775 253.254,149.043 253.400,158.872 253.400 C 168.702 253.400,176.442 253.278,176.072 253.128 C 175.703 252.979,167.518 252.844,157.884 252.828 L 140.368 252.800 140.484 249.500 L 140.600 246.200 168.400 246.235 C 183.690 246.254,188.308 246.208,178.661 246.131 C 161.550 245.995,161.118 245.972,160.915 245.196 C 160.714 244.428,160.353 244.400,150.603 244.400 L 140.500 244.400 140.250 245.650 M-0.000 246.633 C -0.000 247.886,0.939 247.749,1.128 246.469 C 1.213 245.892,1.045 245.600,0.628 245.600 C 0.219 245.600,-0.000 245.961,-0.000 246.633 M208.072 246.500 C 208.209 247.465,221.710 248.417,223.200 247.567 C 223.572 247.354,222.605 247.220,220.653 247.212 C 217.706 247.201,217.520 247.149,217.716 246.400 C 217.917 245.632,217.728 245.600,212.935 245.600 C 207.988 245.600,207.945 245.608,208.072 246.500 M365.529 246.300 C 371.979 246.362,382.419 246.362,388.729 246.300 C 395.038 246.238,389.760 246.187,377.000 246.187 C 364.240 246.187,359.078 246.238,365.529 246.300 M1.200 251.857 C 4.310 252.193,5.200 252.451,5.200 253.018 C 5.200 253.908,15.809 253.876,16.150 252.985 C 16.485 252.113,16.264 252.085,7.600 251.885 C 3.310 251.786,0.430 251.773,1.200 251.857 M197.300 251.899 C 192.335 252.015,192.000 252.073,192.000 252.812 C 192.000 253.560,192.295 253.600,197.800 253.600 C 202.689 253.600,203.600 253.506,203.600 253.000 C 203.600 252.670,203.645 252.363,203.700 252.318 C 203.755 252.272,208.300 252.131,213.800 252.004 L 223.800 251.773 213.200 251.774 C 207.370 251.774,200.215 251.831,197.300 251.899 M344.800 251.973 C 344.800 252.167,345.157 252.232,345.594 252.118 C 346.767 251.811,348.400 252.328,348.400 253.008 C 348.400 253.498,349.225 253.600,353.176 253.600 C 357.701 253.600,359.084 253.271,358.145 252.416 C 357.656 251.971,344.800 251.544,344.800 251.973 M381.900 253.099 C 385.255 253.166,390.745 253.166,394.100 253.099 C 397.455 253.032,394.710 252.978,388.000 252.978 C 381.290 252.978,378.545 253.032,381.900 253.099 M125.128 258.900 C 125.037 259.541,124.741 259.791,124.100 259.768 C 123.226 259.737,123.200 259.848,123.200 263.668 C 123.200 266.796,123.316 267.600,123.767 267.600 C 124.079 267.600,124.574 267.692,124.867 267.805 C 125.293 267.970,125.374 267.274,125.270 264.355 C 125.197 262.280,125.313 260.527,125.538 260.302 C 125.792 260.048,134.454 259.892,149.468 259.870 L 173.000 259.835 151.200 259.609 C 139.210 259.485,129.361 259.342,129.313 259.291 C 129.264 259.241,129.329 258.930,129.455 258.600 C 129.643 258.111,129.275 258.000,127.471 258.000 C 125.478 258.000,125.243 258.090,125.128 258.900 M1.484 260.000 C 1.645 260.614,1.496 260.800,0.847 260.800 C 0.381 260.800,-0.000 260.999,-0.000 261.243 C -0.000 261.486,0.285 261.576,0.633 261.443 C 0.981 261.309,3.366 261.197,5.933 261.194 C 10.849 261.187,11.789 260.958,11.371 259.868 C 10.938 258.741,1.189 258.871,1.484 260.000 M187.734 259.827 C 187.602 260.172,187.653 260.599,187.847 260.778 C 188.392 261.278,206.090 261.682,206.800 261.211 C 207.214 260.936,205.813 260.810,202.273 260.806 C 197.329 260.800,197.155 260.771,197.400 260.000 C 197.747 258.906,188.153 258.735,187.734 259.827 M31.700 259.899 L 39.200 260.018 39.200 264.185 C 39.200 266.532,39.375 268.461,39.600 268.600 C 40.203 268.973,40.125 260.685,39.520 260.080 C 39.174 259.734,36.964 259.625,31.620 259.691 L 24.200 259.781 31.700 259.899 M227.098 261.377 C 227.292 262.395,227.313 262.400,231.385 262.400 C 233.636 262.400,237.080 262.466,239.039 262.548 C 240.997 262.629,241.636 262.619,240.457 262.526 C 238.751 262.392,238.272 262.199,238.110 261.579 C 237.922 260.860,237.526 260.800,232.986 260.800 C 230.280 260.800,227.804 260.700,227.484 260.577 C 227.042 260.407,226.949 260.599,227.098 261.377 M209.715 261.496 C 210.988 261.576,212.968 261.575,214.115 261.494 C 215.262 261.414,214.220 261.349,211.800 261.350 C 209.380 261.351,208.442 261.416,209.715 261.496 M219.700 265.499 C 215.535 265.617,215.200 265.685,215.200 266.413 C 215.200 267.632,224.195 267.627,224.514 266.408 C 224.712 265.651,225.137 265.610,233.861 265.500 L 243.000 265.384 233.600 265.378 C 228.430 265.374,222.175 265.428,219.700 265.499 M2.400 266.814 C 3.830 266.975,7.307 267.128,10.127 267.153 C 15.062 267.198,15.244 267.230,15.000 268.000 C 14.754 268.776,14.928 268.800,20.801 268.800 C 26.851 268.800,26.856 268.799,26.728 267.900 C 26.602 267.017,26.468 266.995,19.600 266.749 C 9.684 266.393,-0.988 266.433,2.400 266.814 M177.200 266.787 C 169.489 266.998,169.399 267.010,169.272 267.900 L 169.144 268.800 176.572 268.800 C 183.565 268.800,184.000 268.756,184.000 268.051 C 184.000 267.254,204.036 266.280,205.232 267.019 C 205.547 267.215,205.621 267.158,205.438 266.862 C 205.140 266.379,193.284 266.348,177.200 266.787 " stroke="none" fill="#36439b" fill-rule="evenodd"></path><path id="path2" d="M214.305 105.883 C 214.802 105.979,215.522 105.975,215.905 105.875 C 216.287 105.775,215.880 105.696,215.000 105.701 C 214.120 105.705,213.807 105.787,214.305 105.883 M234.200 106.000 C 243.858 106.133,247.743 106.282,244.400 106.394 L 239.000 106.573 243.993 106.700 C 246.739 106.769,249.160 107.000,249.373 107.213 C 249.586 107.426,251.074 107.600,252.680 107.600 C 254.360 107.600,255.600 107.770,255.600 108.000 C 255.600 108.253,252.042 108.432,245.900 108.486 C 238.133 108.556,237.196 108.616,241.200 108.786 C 244.046 108.908,237.841 109.089,226.800 109.206 C 214.500 109.336,226.394 109.446,259.300 109.506 L 311.200 109.600 311.200 107.600 L 311.200 105.600 264.900 105.693 C 236.855 105.749,224.751 105.870,234.200 106.000 M334.000 106.967 C 334.000 109.843,330.931 109.600,367.243 109.600 L 400.000 109.600 400.000 107.600 L 400.000 105.600 367.000 105.600 L 334.000 105.600 334.000 106.967 M0.000 120.400 L 0.000 121.600 4.400 121.600 L 8.800 121.600 8.800 120.400 L 8.800 119.200 4.400 119.200 L 0.000 119.200 0.000 120.400 M328.961 120.400 L 329.000 121.400 343.000 121.408 L 357.000 121.415 343.126 121.303 L 329.252 121.190 329.087 120.295 C 328.946 119.526,328.928 119.540,328.961 120.400 M32.938 121.106 C 32.521 121.371,66.950 121.362,91.400 121.091 C 96.680 121.033,85.790 120.946,67.200 120.899 C 48.610 120.851,33.192 120.944,32.938 121.106 M287.800 121.200 L 259.800 121.408 287.676 121.504 C 305.933 121.567,315.638 121.462,315.800 121.200 C 315.936 120.980,315.992 120.843,315.924 120.896 C 315.856 120.949,303.200 121.086,287.800 121.200 M113.529 121.500 C 120.420 121.561,131.580 121.561,138.329 121.500 C 145.078 121.438,139.440 121.388,125.800 121.388 C 112.160 121.388,106.638 121.438,113.529 121.500 M383.300 121.499 C 386.105 121.568,390.695 121.568,393.500 121.499 C 396.305 121.430,394.010 121.374,388.400 121.374 C 382.790 121.374,380.495 121.430,383.300 121.499 M151.569 121.700 C 151.082 123.293,147.757 123.200,205.435 123.200 C 259.333 123.200,259.600 123.196,259.600 122.400 C 259.600 121.702,151.783 121.003,151.569 121.700 M358.286 122.393 C 358.078 123.186,358.243 123.200,368.002 123.200 C 377.229 123.200,377.922 123.151,377.827 122.500 C 377.655 121.328,358.592 121.223,358.286 122.393 M399.200 122.400 C 399.200 122.840,399.380 123.200,399.600 123.200 C 399.820 123.200,400.000 122.840,400.000 122.400 C 400.000 121.960,399.820 121.600,399.600 121.600 C 399.380 121.600,399.200 121.960,399.200 122.400 M24.932 133.367 C 25.299 134.323,24.331 134.400,11.901 134.400 C 5.282 134.400,-0.040 134.493,0.074 134.607 C 0.777 135.310,85.600 134.246,85.600 133.534 C 85.600 132.828,84.424 132.800,55.157 132.800 C 29.051 132.800,24.745 132.881,24.932 133.367 M249.084 133.600 C 249.290 134.389,249.630 134.400,273.623 134.400 C 289.411 134.400,298.040 134.540,298.200 134.800 C 298.533 135.339,300.000 135.311,300.000 134.767 C 300.000 134.528,299.775 134.414,299.500 134.513 C 298.779 134.771,297.600 134.072,297.600 133.386 C 297.600 132.878,294.366 132.800,273.237 132.800 C 249.072 132.800,248.877 132.806,249.084 133.600 M316.000 133.573 C 316.000 134.532,314.447 135.117,313.956 134.343 C 313.715 133.962,313.610 134.124,313.606 134.886 C 313.602 135.556,313.897 136.131,314.376 136.387 C 315.184 136.819,315.858 136.341,315.426 135.642 C 314.908 134.804,318.270 134.700,351.200 134.534 C 387.384 134.351,387.600 134.345,387.600 133.392 C 387.600 132.874,383.151 132.800,351.800 132.800 C 316.683 132.800,316.000 132.815,316.000 133.573 M116.245 146.974 C 116.408 147.397,116.062 147.590,114.933 147.707 C 113.477 147.858,113.495 147.869,115.286 147.933 C 116.804 147.987,117.255 147.844,117.600 147.200 C 117.975 146.499,117.904 146.400,117.027 146.400 C 116.321 146.400,116.090 146.570,116.245 146.974 M197.084 147.200 C 197.217 147.707,197.606 147.983,198.147 147.954 C 198.789 147.919,198.832 147.863,198.322 147.729 C 197.928 147.625,197.737 147.309,197.865 146.975 C 197.997 146.631,197.842 146.400,197.480 146.400 C 197.072 146.400,196.943 146.660,197.084 147.200 M393.335 146.975 C 393.477 147.345,393.243 147.611,392.678 147.721 C 392.195 147.814,393.645 147.916,395.900 147.946 C 399.751 147.997,400.000 147.952,400.000 147.200 C 400.000 146.462,399.733 146.400,396.557 146.400 C 393.728 146.400,393.154 146.502,393.335 146.975 M7.700 147.900 C 12.045 147.964,19.155 147.964,23.500 147.900 C 27.845 147.835,24.290 147.782,15.600 147.782 C 6.910 147.782,3.355 147.835,7.700 147.900 M265.200 147.921 C 265.200 148.171,264.928 148.271,264.595 148.143 C 264.175 147.981,264.062 148.095,264.223 148.516 C 264.582 149.451,265.870 149.644,265.804 148.752 C 265.744 147.942,265.200 147.193,265.200 147.921 M263.586 150.217 C 263.235 150.639,263.204 150.964,263.485 151.245 C 263.766 151.526,263.958 151.332,264.093 150.628 C 264.322 149.429,264.273 149.389,263.586 150.217 M0.700 150.249 C 1.195 150.363,1.600 150.713,1.600 151.028 C 1.600 151.908,29.669 151.881,30.400 151.000 C 30.841 150.469,29.409 150.400,17.908 150.400 C 10.763 150.400,3.766 150.319,2.359 150.221 C 0.951 150.122,0.205 150.135,0.700 150.249 M288.000 150.798 C 288.000 151.594,288.235 151.600,320.029 151.600 C 350.318 151.600,352.051 151.562,351.924 150.900 C 351.697 149.723,288.000 149.620,288.000 150.798 M33.743 151.000 C 34.187 151.444,35.275 151.600,37.929 151.600 C 40.747 151.600,41.564 151.472,41.745 151.000 C 41.941 150.489,41.320 150.400,37.559 150.400 C 33.634 150.400,33.210 150.467,33.743 151.000 M253.600 151.000 C 253.600 151.475,254.173 151.600,256.357 151.600 C 258.439 151.600,259.171 151.453,259.345 151.000 C 259.537 150.500,259.079 150.400,256.587 150.400 C 254.199 150.400,253.600 150.520,253.600 151.000 M125.269 160.300 C 137.077 160.359,156.517 160.359,168.469 160.300 C 180.421 160.241,170.760 160.193,147.000 160.193 C 123.240 160.193,113.461 160.241,125.269 160.300 M103.800 161.200 C 103.140 161.368,122.490 161.514,146.800 161.525 C 171.781 161.535,190.652 161.394,190.200 161.200 C 189.213 160.776,105.467 160.776,103.800 161.200 M0.000 162.000 C 0.000 162.766,0.251 162.798,5.900 162.753 C 9.489 162.724,11.330 162.586,10.600 162.400 L 9.400 162.095 10.600 161.997 C 12.974 161.805,8.366 161.260,4.100 161.230 C 0.257 161.202,0.000 161.250,0.000 162.000 M269.484 162.000 C 269.276 162.796,269.472 162.800,304.800 162.800 C 340.128 162.800,340.324 162.796,340.116 162.000 C 339.909 161.208,339.570 161.200,304.800 161.200 C 270.030 161.200,269.691 161.208,269.484 162.000 M245.800 164.800 C 245.656 165.033,246.063 165.200,246.776 165.200 C 248.226 165.200,248.486 166.254,247.100 166.511 C 246.605 166.603,247.100 166.679,248.200 166.680 C 249.300 166.681,249.930 166.591,249.600 166.480 C 249.270 166.369,248.604 165.856,248.119 165.339 C 247.194 164.353,246.217 164.126,245.800 164.800 M8.927 165.100 C 13.947 165.163,22.047 165.163,26.927 165.100 C 31.807 165.036,27.700 164.984,17.800 164.984 C 7.900 164.984,3.907 165.036,8.927 165.100 M253.900 165.099 C 256.815 165.167,261.585 165.167,264.500 165.099 C 267.415 165.031,265.030 164.975,259.200 164.975 C 253.370 164.975,250.985 165.031,253.900 165.099 M346.100 165.099 C 349.565 165.166,355.235 165.166,358.700 165.099 C 362.165 165.033,359.330 164.978,352.400 164.978 C 345.470 164.978,342.635 165.033,346.100 165.099 M35.858 165.794 C 35.665 166.296,33.815 166.410,23.915 166.532 C 17.472 166.611,20.390 166.614,30.400 166.538 C 40.410 166.463,59.355 166.401,72.500 166.400 C 93.478 166.400,96.400 166.327,96.400 165.800 C 96.400 164.894,36.205 164.888,35.858 165.794 M196.400 165.800 C 196.400 166.338,197.896 166.399,208.800 166.306 C 216.730 166.238,221.201 166.056,221.201 165.800 C 221.201 165.544,216.730 165.362,208.800 165.294 C 197.896 165.201,196.400 165.262,196.400 165.800 M365.200 165.613 C 365.200 165.840,364.795 166.185,364.300 166.379 C 363.756 166.593,370.640 166.749,381.700 166.774 C 399.799 166.813,400.000 166.805,400.000 166.007 C 400.000 165.210,399.783 165.200,382.600 165.200 C 370.905 165.200,365.200 165.335,365.200 165.613 M2.500 166.697 C 3.985 166.774,6.415 166.774,7.900 166.697 C 9.385 166.620,8.170 166.557,5.200 166.557 C 2.230 166.557,1.015 166.620,2.500 166.697 M255.323 166.699 C 257.920 166.769,262.060 166.768,264.523 166.698 C 266.985 166.628,264.860 166.571,259.800 166.572 C 254.740 166.572,252.725 166.629,255.323 166.699 M346.324 166.699 C 349.473 166.767,354.513 166.767,357.524 166.699 C 360.536 166.631,357.960 166.576,351.800 166.576 C 345.640 166.576,343.176 166.632,346.324 166.699 M366.260 174.706 C 355.976 174.801,354.745 174.881,354.960 175.439 C 355.092 175.783,355.200 176.141,355.200 176.233 C 355.200 176.792,379.129 176.363,379.345 175.800 C 379.499 175.397,379.327 175.200,378.821 175.200 C 378.406 175.200,378.007 175.065,377.933 174.900 C 377.860 174.735,372.607 174.648,366.260 174.706 M9.757 175.433 C 9.891 175.781,10.000 176.141,10.000 176.233 C 10.000 176.325,13.853 176.400,18.563 176.400 C 26.928 176.400,27.120 176.382,26.916 175.600 C 26.715 174.831,26.370 174.800,18.111 174.800 C 10.436 174.800,9.540 174.868,9.757 175.433 M185.600 176.920 C 185.600 178.086,185.384 179.256,185.120 179.520 C 184.751 179.889,169.966 180.000,121.006 180.000 C 57.638 180.000,57.371 180.003,57.371 180.800 C 57.371 181.597,57.638 181.600,121.109 181.600 C 156.165 181.600,184.754 181.449,184.640 181.265 C 184.250 180.633,185.659 179.122,186.447 179.328 C 187.318 179.556,187.549 176.999,186.786 175.574 C 186.059 174.216,185.600 174.737,185.600 176.920 M224.592 175.573 C 224.787 176.191,224.611 176.382,223.718 176.521 C 223.103 176.617,223.390 176.630,224.356 176.548 C 225.322 176.467,230.836 176.400,236.609 176.400 C 246.770 176.400,247.113 176.374,247.316 175.600 C 247.522 174.814,247.328 174.800,235.936 174.800 C 224.662 174.800,224.353 174.821,224.592 175.573 M2.300 176.696 C 3.675 176.774,5.925 176.774,7.300 176.696 C 8.675 176.618,7.550 176.554,4.800 176.554 C 2.050 176.554,0.925 176.618,2.300 176.696 M252.300 176.699 C 254.995 176.768,259.405 176.768,262.100 176.699 C 264.795 176.630,262.590 176.573,257.200 176.573 C 251.810 176.573,249.605 176.630,252.300 176.699 M339.700 176.699 C 342.505 176.768,347.095 176.768,349.900 176.699 C 352.705 176.630,350.410 176.574,344.800 176.574 C 339.190 176.574,336.895 176.630,339.700 176.699 M27.484 189.200 C 27.688 189.980,27.496 190.000,19.780 190.000 C 15.428 190.000,11.959 190.092,12.071 190.205 C 12.765 190.899,56.400 189.845,56.400 189.135 C 56.400 188.435,55.702 188.400,41.837 188.400 C 27.472 188.400,27.278 188.411,27.484 189.200 M376.684 189.200 C 376.887 189.977,377.230 190.000,388.447 190.000 C 399.733 190.000,400.000 189.982,400.000 189.200 C 400.000 188.418,399.733 188.400,388.237 188.400 C 376.672 188.400,376.478 188.413,376.684 189.200 M216.261 190.300 C 216.159 190.465,219.523 190.554,223.738 190.498 C 238.037 190.307,239.434 190.169,227.924 190.084 C 221.612 190.038,216.364 190.135,216.261 190.300 M280.400 190.557 C 280.400 191.544,281.395 191.600,298.800 191.600 C 316.344 191.600,317.307 191.545,316.932 190.567 C 316.609 189.725,280.400 189.716,280.400 190.557 M359.324 190.299 C 362.583 190.367,367.803 190.366,370.924 190.299 C 374.046 190.231,371.380 190.176,365.000 190.177 C 358.620 190.177,356.066 190.232,359.324 190.299 M314.000 190.800 C 314.000 191.060,308.525 191.200,298.376 191.200 C 288.063 191.200,282.837 191.064,283.000 190.800 C 283.158 190.545,288.804 190.400,298.624 190.400 C 308.608 190.400,314.000 190.540,314.000 190.800 M264.500 191.098 C 266.865 191.169,270.735 191.169,273.100 191.098 C 275.465 191.028,273.530 190.970,268.800 190.970 C 264.070 190.970,262.135 191.028,264.500 191.098 M322.700 191.096 C 324.075 191.174,326.325 191.174,327.700 191.096 C 329.075 191.018,327.950 190.954,325.200 190.954 C 322.450 190.954,321.325 191.018,322.700 191.096 M0.000 194.400 C 0.000 195.147,0.267 195.200,4.000 195.200 C 7.733 195.200,8.000 195.147,8.000 194.400 C 8.000 193.653,7.733 193.600,4.000 193.600 C 0.267 193.600,0.000 193.653,0.000 194.400 M242.569 193.967 C 241.516 195.005,242.658 195.200,249.800 195.200 C 256.644 195.200,257.200 195.146,257.200 194.484 C 257.200 193.816,243.223 193.321,242.569 193.967 M333.600 194.500 C 333.600 195.337,349.705 195.602,350.216 194.773 C 350.679 194.025,350.265 193.981,341.856 193.890 C 334.226 193.807,333.600 193.853,333.600 194.500 M159.200 194.333 C 159.200 194.685,150.923 194.815,125.700 194.860 C 107.275 194.893,92.695 194.995,93.300 195.087 C 93.911 195.179,94.400 195.508,94.400 195.827 C 94.400 196.320,98.893 196.400,126.500 196.397 L 158.600 196.394 159.096 195.326 C 159.369 194.739,159.504 194.170,159.396 194.062 C 159.288 193.955,159.200 194.077,159.200 194.333 M217.705 195.087 C 218.314 195.179,219.214 195.177,219.705 195.082 C 220.197 194.987,219.700 194.911,218.600 194.914 C 217.500 194.917,217.097 194.995,217.705 195.087 M379.500 195.099 C 383.295 195.165,389.505 195.165,393.300 195.099 C 397.095 195.034,393.990 194.980,386.400 194.980 C 378.810 194.980,375.705 195.034,379.500 195.099 M52.157 202.633 C 52.291 202.981,52.400 203.341,52.400 203.433 C 52.400 203.525,61.203 203.600,71.963 203.600 C 91.328 203.600,91.523 203.592,91.316 202.800 C 91.110 202.014,90.770 202.000,71.511 202.000 C 53.806 202.000,51.938 202.061,52.157 202.633 M161.900 202.276 C 161.515 202.376,161.200 202.715,161.200 203.029 C 161.200 203.508,162.820 203.600,171.300 203.602 C 176.855 203.603,183.650 203.668,186.400 203.746 C 189.150 203.825,189.896 203.817,188.058 203.728 C 184.973 203.580,184.731 203.507,184.920 202.784 C 185.117 202.032,164.568 201.579,161.900 202.276 M361.105 202.283 C 361.602 202.379,362.322 202.375,362.705 202.275 C 363.087 202.175,362.680 202.096,361.800 202.101 C 360.920 202.105,360.607 202.187,361.105 202.283 M32.700 203.899 C 36.275 203.966,42.125 203.966,45.700 203.899 C 49.275 203.833,46.350 203.779,39.200 203.779 C 32.050 203.779,29.125 203.833,32.700 203.899 M237.061 204.216 C 237.374 205.031,238.672 205.191,244.600 205.148 C 247.680 205.126,249.885 205.025,249.500 204.924 C 249.115 204.824,248.800 204.474,248.800 204.147 C 248.800 203.645,247.878 203.566,242.834 203.632 C 238.214 203.692,236.911 203.824,237.061 204.216 M332.400 204.171 C 332.400 204.485,332.085 204.824,331.700 204.924 C 331.315 205.025,334.060 205.127,337.800 205.151 C 343.959 205.191,344.713 205.120,345.800 204.400 L 347.000 203.605 339.700 203.603 C 333.643 203.600,332.400 203.697,332.400 204.171 M368.500 203.898 C 370.645 203.970,374.155 203.970,376.300 203.898 C 378.445 203.826,376.690 203.767,372.400 203.767 C 368.110 203.767,366.355 203.826,368.500 203.898 M385.500 203.899 C 388.195 203.968,392.605 203.968,395.300 203.899 C 397.995 203.830,395.790 203.773,390.400 203.773 C 385.010 203.773,382.805 203.830,385.500 203.899 M192.134 207.200 C 192.134 208.850,192.205 209.525,192.291 208.700 C 192.378 207.875,192.378 206.525,192.291 205.700 C 192.205 204.875,192.134 205.550,192.134 207.200 M282.528 205.100 C 288.429 205.162,297.969 205.162,303.728 205.100 C 309.488 205.037,304.660 204.986,293.000 204.986 C 281.340 204.986,276.628 205.037,282.528 205.100 M224.000 205.600 C 224.000 205.820,224.259 206.000,224.576 206.000 C 224.893 206.000,225.264 205.820,225.400 205.600 C 225.536 205.380,225.277 205.200,224.824 205.200 C 224.371 205.200,224.000 205.380,224.000 205.600 M7.500 208.685 C 8.891 208.862,9.085 209.155,8.320 209.920 C 7.947 210.293,9.375 210.400,14.748 210.400 L 21.656 210.400 21.528 209.500 C 21.401 208.604,21.363 208.600,13.800 208.559 C 9.620 208.537,6.785 208.593,7.500 208.685 M229.119 208.698 C 230.944 208.772,233.824 208.772,235.519 208.697 C 237.214 208.622,235.720 208.561,232.200 208.562 C 228.680 208.562,227.294 208.624,229.119 208.698 M248.528 208.700 C 253.768 208.763,262.228 208.763,267.328 208.700 C 272.427 208.636,268.140 208.585,257.800 208.585 C 247.460 208.585,243.287 208.637,248.528 208.700 M287.474 208.699 C 291.255 208.765,297.555 208.765,301.474 208.699 C 305.393 208.634,302.300 208.580,294.600 208.580 C 286.900 208.580,283.693 208.634,287.474 208.699 M319.700 208.700 C 324.265 208.764,331.735 208.764,336.300 208.700 C 340.865 208.635,337.130 208.583,328.000 208.583 C 318.870 208.583,315.135 208.635,319.700 208.700 M353.300 208.689 C 359.894 208.796,361.200 208.913,361.200 209.399 C 361.200 209.885,359.948 210.002,353.700 210.101 L 346.200 210.219 353.900 210.309 C 359.323 210.373,361.600 210.269,361.600 209.957 C 361.600 209.678,361.990 209.611,362.648 209.776 C 363.657 210.030,363.670 210.013,362.978 209.320 C 362.332 208.674,361.397 208.598,353.829 208.581 L 345.400 208.562 353.300 208.689 M92.500 209.900 C 100.365 209.960,113.235 209.960,121.100 209.900 C 128.965 209.839,122.530 209.790,106.800 209.790 C 91.070 209.790,84.635 209.839,92.500 209.900 M385.923 209.899 C 388.631 209.968,392.951 209.968,395.523 209.899 C 398.095 209.829,395.880 209.772,390.600 209.773 C 385.320 209.773,383.215 209.830,385.923 209.899 M228.700 210.296 C 230.075 210.374,232.325 210.374,233.700 210.296 C 235.075 210.218,233.950 210.154,231.200 210.154 C 228.450 210.154,227.325 210.218,228.700 210.296 M83.024 216.171 C 84.330 217.133,83.412 217.193,65.400 217.333 C 55.940 217.406,62.293 217.391,79.517 217.298 C 115.566 217.105,112.000 216.624,112.000 221.678 C 112.000 224.872,112.076 225.244,112.700 225.125 C 113.293 225.012,113.418 224.450,113.516 221.462 C 113.598 218.966,113.503 218.013,113.191 218.206 C 112.598 218.572,111.200 217.261,111.200 216.338 C 111.200 215.634,110.528 215.600,96.724 215.600 C 84.082 215.600,82.345 215.672,83.024 216.171 M0.000 218.000 C 0.000 218.764,0.267 218.800,5.967 218.800 C 12.333 218.800,13.275 218.660,12.932 217.767 C 12.534 216.729,0.000 216.955,0.000 218.000 M154.700 217.499 C 158.715 217.565,165.285 217.565,169.300 217.499 C 173.315 217.434,170.030 217.381,162.000 217.381 C 153.970 217.381,150.685 217.434,154.700 217.499 M344.800 217.756 C 344.800 218.074,344.575 218.427,344.300 218.541 C 344.025 218.655,346.680 218.715,350.200 218.674 C 355.589 218.612,356.600 218.505,356.600 218.000 C 356.600 217.499,355.629 217.382,350.700 217.289 C 345.774 217.197,344.800 217.274,344.800 217.756 M282.400 219.200 C 282.400 219.975,282.667 220.000,290.963 220.000 C 299.328 220.000,299.520 219.982,299.316 219.200 C 299.115 218.432,298.770 218.400,290.753 218.400 C 282.667 218.400,282.400 218.426,282.400 219.200 M313.700 222.287 C 315.033 222.488,315.122 223.084,313.900 223.624 C 313.140 223.959,313.210 223.989,314.350 223.811 C 315.093 223.695,318.288 223.600,321.450 223.600 C 326.079 223.600,327.200 223.492,327.200 223.047 C 327.200 222.171,325.832 222.007,319.000 222.065 C 315.480 222.095,313.095 222.195,313.700 222.287 M10.719 223.498 C 12.544 223.572,15.424 223.572,17.119 223.497 C 18.814 223.422,17.320 223.361,13.800 223.362 C 10.280 223.362,8.894 223.424,10.719 223.498 M354.719 223.498 C 356.544 223.572,359.424 223.572,361.119 223.497 C 362.814 223.422,361.320 223.361,357.800 223.362 C 354.280 223.362,352.894 223.424,354.719 223.498 M20.684 224.400 C 20.957 225.442,36.933 225.672,37.330 224.639 C 37.706 223.658,37.229 223.600,28.771 223.600 C 20.672 223.600,20.480 223.619,20.684 224.400 M186.660 224.187 C 186.536 224.510,186.591 224.871,186.781 224.988 C 187.326 225.325,188.400 224.773,188.400 224.157 C 188.400 223.415,186.947 223.440,186.660 224.187 M364.971 224.400 C 364.971 225.199,365.149 225.212,374.186 225.107 C 382.062 225.016,383.400 224.913,383.400 224.400 C 383.400 223.887,382.062 223.784,374.186 223.693 C 365.149 223.588,364.971 223.601,364.971 224.400 M13.800 231.200 C 13.664 231.420,13.698 231.618,13.876 231.640 C 14.054 231.662,13.750 231.826,13.200 232.005 C 12.617 232.195,14.948 232.304,18.795 232.265 C 24.728 232.207,25.403 232.130,25.524 231.500 C 25.680 230.691,14.295 230.400,13.800 231.200 M78.725 231.099 C 82.314 231.166,88.074 231.166,91.525 231.099 C 94.976 231.033,92.040 230.978,85.000 230.978 C 77.960 230.979,75.136 231.033,78.725 231.099 M192.000 231.600 C 192.000 232.348,192.267 232.400,196.133 232.400 C 200.434 232.400,200.887 232.293,200.530 231.361 C 200.138 230.341,192.000 230.569,192.000 231.600 M356.684 231.610 C 355.991 232.419,355.998 232.420,362.290 232.310 C 367.921 232.212,368.604 232.126,368.724 231.500 C 368.946 230.345,357.679 230.448,356.684 231.610 M313.600 232.800 C 313.600 233.559,313.867 233.600,318.800 233.600 C 323.733 233.600,324.000 233.559,324.000 232.800 C 324.000 232.041,323.733 232.000,318.800 232.000 C 313.867 232.000,313.600 232.041,313.600 232.800 M302.500 233.898 C 304.425 233.971,307.575 233.971,309.500 233.898 C 311.425 233.825,309.850 233.765,306.000 233.765 C 302.150 233.765,300.575 233.825,302.500 233.898 M321.317 237.097 C 322.811 237.174,325.151 237.174,326.517 237.096 C 327.882 237.018,326.660 236.955,323.800 236.955 C 320.940 236.956,319.822 237.020,321.317 237.097 M329.600 238.000 C 329.600 238.793,329.782 238.821,334.300 238.713 C 338.161 238.620,339.000 238.493,339.000 238.000 C 339.000 237.507,338.161 237.380,334.300 237.287 C 329.782 237.179,329.600 237.207,329.600 238.000 M33.331 238.690 C 34.109 238.806,34.394 239.037,34.244 239.430 C 34.058 239.915,35.664 240.000,45.013 240.000 C 54.137 240.000,56.000 239.906,56.000 239.443 C 56.000 238.477,55.001 238.399,43.467 238.460 C 37.270 238.493,32.709 238.596,33.331 238.690 M158.267 238.667 C 157.042 239.891,158.003 240.000,170.000 240.000 C 180.141 240.000,182.000 239.911,182.000 239.428 C 182.000 239.113,182.405 238.778,182.900 238.682 C 183.395 238.587,178.115 238.484,171.167 238.454 C 164.218 238.425,158.413 238.520,158.267 238.667 M379.300 238.676 C 379.685 238.776,380.000 239.115,380.000 239.429 C 380.000 239.908,381.606 240.000,390.000 240.000 C 399.733 240.000,400.000 239.979,400.000 239.200 C 400.000 238.419,399.749 238.401,389.300 238.446 C 383.415 238.472,378.915 238.575,379.300 238.676 M25.200 244.800 C 25.200 245.050,28.092 245.233,32.900 245.287 L 40.600 245.375 32.400 245.604 L 24.200 245.834 32.395 245.817 C 39.874 245.801,40.601 245.739,40.724 245.100 C 40.849 244.453,40.270 244.400,33.029 244.400 C 28.076 244.400,25.200 244.547,25.200 244.800 M76.484 248.267 C 76.438 250.504,76.296 252.664,76.170 253.067 C 75.958 253.743,75.974 253.746,76.384 253.110 C 76.660 252.682,76.779 250.864,76.698 248.310 L 76.569 244.200 76.484 248.267 M139.600 245.376 C 139.600 246.716,138.875 247.054,138.422 245.926 C 138.156 245.261,138.044 246.154,138.025 249.087 C 138.004 252.578,138.088 253.141,138.605 252.943 C 138.938 252.815,139.523 252.956,139.905 253.255 C 140.529 253.745,140.546 253.731,140.068 253.120 C 139.514 252.413,139.594 247.754,140.198 245.500 C 140.391 244.781,140.339 244.400,140.047 244.400 C 139.801 244.400,139.600 244.839,139.600 245.376 M161.372 244.845 C 160.779 245.805,162.575 245.987,172.400 245.962 C 178.010 245.948,182.385 245.849,182.122 245.743 C 181.860 245.636,181.744 245.290,181.865 244.974 C 182.151 244.230,161.832 244.101,161.372 244.845 M369.000 244.800 C 368.864 245.020,368.898 245.218,369.076 245.240 C 369.254 245.262,368.950 245.424,368.400 245.600 C 367.850 245.776,374.735 245.938,383.700 245.960 C 399.747 245.999,400.000 245.988,400.000 245.200 C 400.000 244.294,369.556 243.901,369.000 244.800 M218.000 246.400 C 218.000 247.129,218.267 247.200,221.000 247.200 C 223.983 247.200,224.438 246.998,223.520 246.080 C 222.629 245.189,218.000 245.457,218.000 246.400 M0.000 252.800 C 0.000 253.511,0.267 253.600,2.400 253.600 C 4.107 253.600,4.771 253.456,4.700 253.100 C 4.438 251.788,0.000 251.505,0.000 252.800 M204.500 252.265 C 202.501 253.072,204.219 253.600,208.843 253.600 C 212.892 253.600,213.649 253.506,213.465 253.024 C 213.313 252.630,213.584 252.397,214.322 252.284 C 214.915 252.194,213.060 252.107,210.200 252.092 C 207.340 252.076,204.775 252.154,204.500 252.265 M345.200 252.757 C 345.200 253.454,345.443 253.600,346.600 253.600 C 347.578 253.600,348.000 253.419,348.000 253.000 C 348.000 252.670,347.655 252.400,347.233 252.400 C 346.811 252.400,346.181 252.291,345.833 252.157 C 345.379 251.983,345.200 252.153,345.200 252.757 M41.300 253.500 C 47.405 253.562,57.395 253.562,63.500 253.500 C 69.605 253.438,64.610 253.387,52.400 253.387 C 40.190 253.387,35.195 253.438,41.300 253.500 M158.524 253.499 C 161.783 253.567,167.003 253.566,170.124 253.499 C 173.246 253.431,170.580 253.376,164.200 253.377 C 157.820 253.377,155.266 253.432,158.524 253.499 M381.900 253.499 C 385.255 253.566,390.745 253.566,394.100 253.499 C 397.455 253.432,394.710 253.378,388.000 253.378 C 381.290 253.378,378.545 253.432,381.900 253.499 M140.643 254.233 C 140.509 254.581,140.400 254.941,140.400 255.033 C 140.400 255.125,143.235 255.186,146.700 255.168 C 150.165 255.151,152.775 255.046,152.500 254.935 C 152.225 254.824,152.000 254.478,152.000 254.167 C 152.000 253.274,140.986 253.339,140.643 254.233 M123.467 258.267 C 122.936 258.798,123.217 259.600,123.933 259.600 C 124.877 259.600,125.199 259.264,124.930 258.561 C 124.703 257.972,123.919 257.814,123.467 258.267 M130.000 258.557 C 130.000 259.522,130.991 259.601,142.733 259.568 C 149.040 259.551,153.975 259.446,153.700 259.335 C 153.425 259.224,153.200 258.878,153.200 258.567 C 153.200 258.091,151.341 258.000,141.600 258.000 C 131.952 258.000,130.000 258.094,130.000 258.557 M0.000 259.971 C 0.000 260.521,0.258 260.800,0.765 260.800 C 1.716 260.800,1.626 259.459,0.662 259.271 C 0.217 259.184,0.000 259.413,0.000 259.971 M198.267 259.467 C 197.224 260.510,198.129 260.800,202.424 260.800 C 205.078 260.800,206.754 260.650,206.615 260.425 C 206.488 260.218,206.702 259.864,207.092 259.637 C 207.608 259.336,206.545 259.221,203.167 259.212 C 200.618 259.205,198.413 259.320,198.267 259.467 M39.485 260.048 C 39.776 260.407,40.016 262.306,40.085 264.796 C 40.195 268.749,40.233 268.913,40.900 268.244 C 41.837 267.306,41.954 260.000,41.033 260.000 C 40.721 260.000,40.136 259.876,39.733 259.725 C 39.122 259.496,39.081 259.549,39.485 260.048 M240.031 260.788 C 238.057 261.025,237.421 261.839,238.916 262.215 C 240.544 262.623,242.581 262.267,242.716 261.550 C 242.875 260.712,242.218 260.526,240.031 260.788 M210.115 261.096 C 211.388 261.176,213.368 261.175,214.515 261.094 C 215.662 261.014,214.620 260.949,212.200 260.950 C 209.780 260.951,208.842 261.016,210.115 261.096 M225.000 265.906 C 223.605 266.931,224.517 267.200,229.387 267.200 C 233.541 267.200,234.338 267.105,234.156 266.630 C 234.006 266.237,234.291 266.006,235.069 265.890 C 235.691 265.796,233.770 265.696,230.800 265.666 C 227.830 265.636,225.220 265.744,225.000 265.906 M0.900 267.087 C 1.505 267.178,2.495 267.178,3.100 267.087 C 3.705 266.995,3.210 266.920,2.000 266.920 C 0.790 266.920,0.295 266.995,0.900 267.087 M197.900 267.096 C 199.275 267.174,201.525 267.174,202.900 267.096 C 204.275 267.018,203.150 266.954,200.400 266.954 C 197.650 266.954,196.525 267.018,197.900 267.096 M4.667 267.467 C 3.587 268.547,4.524 268.800,9.600 268.800 C 14.533 268.800,14.800 268.759,14.800 268.000 C 14.800 267.192,5.435 266.699,4.667 267.467 M184.476 267.900 C 184.594 268.518,185.233 268.613,189.917 268.712 L 195.223 268.823 194.412 268.012 C 193.256 266.856,184.256 266.755,184.476 267.900 M123.700 268.276 C 124.085 268.376,124.715 268.376,125.100 268.276 C 125.485 268.175,125.170 268.093,124.400 268.093 C 123.630 268.093,123.315 268.175,123.700 268.276 " stroke="none" fill="#444c9c" fill-rule="evenodd"></path><path id="path3" d="M311.600 107.600 L 311.600 109.600 317.400 109.600 L 323.200 109.600 323.200 107.600 L 323.200 105.600 317.400 105.600 L 311.600 105.600 311.600 107.600 M101.676 119.900 C 101.989 121.531,315.265 121.623,315.528 119.992 C 315.655 119.204,315.084 119.200,208.598 119.200 C 106.855 119.200,101.548 119.235,101.676 119.900 M329.600 120.000 C 329.600 120.905,334.309 121.000,379.099 121.000 L 399.998 121.000 399.999 120.100 L 400.000 119.200 364.800 119.200 C 329.867 119.200,329.600 119.206,329.600 120.000 M31.500 135.232 C 28.796 136.808,29.051 136.817,69.100 136.601 C 118.677 136.333,230.728 136.333,268.528 136.601 L 298.057 136.810 297.928 135.905 L 297.800 135.000 165.000 134.912 C 75.287 134.852,31.973 134.956,31.500 135.232 M331.900 135.076 C 331.515 135.176,331.200 135.605,331.200 136.029 C 331.200 136.784,331.903 136.800,365.600 136.800 L 400.000 136.800 400.000 135.800 L 400.000 134.800 366.300 134.846 C 347.765 134.872,332.285 134.975,331.900 135.076 M138.700 145.100 C 148.875 145.159,165.525 145.159,175.700 145.100 C 185.875 145.040,177.550 144.992,157.200 144.992 C 136.850 144.992,128.525 145.040,138.700 145.100 M119.644 147.463 L 119.160 148.526 59.580 148.296 C 1.052 148.071,0.000 148.080,0.000 148.833 C 0.000 149.580,0.594 149.600,22.300 149.611 C 160.720 149.682,262.896 149.588,263.217 149.389 C 264.628 148.518,260.582 148.400,229.168 148.400 L 195.183 148.400 194.727 147.400 L 194.272 146.400 157.200 146.400 L 120.128 146.400 119.644 147.463 M287.792 148.425 C 287.646 148.884,287.588 149.313,287.663 149.378 C 287.739 149.442,313.045 149.622,343.900 149.778 L 400.000 150.060 400.000 149.236 C 400.000 148.319,403.364 148.378,317.929 147.794 L 288.057 147.590 287.792 148.425 M247.455 161.689 C 247.621 161.957,247.719 162.667,247.674 163.266 L 247.591 164.354 259.095 164.600 C 273.009 164.896,327.765 164.896,369.500 164.598 L 400.000 164.381 400.000 162.790 L 400.000 161.200 381.500 161.206 C 370.632 161.210,363.230 161.358,363.558 161.566 C 363.865 161.760,364.017 162.178,363.896 162.494 C 363.517 163.481,295.352 163.977,260.600 163.244 L 249.000 163.000 249.032 162.100 C 249.056 161.409,248.842 161.200,248.108 161.200 C 247.458 161.200,247.249 161.356,247.455 161.689 M39.190 162.554 C 38.706 163.015,35.179 163.148,19.497 163.295 C 1.551 163.462,-0.563 163.571,0.151 164.284 C 0.307 164.441,50.737 164.643,112.218 164.734 L 224.000 164.899 224.000 163.458 L 224.000 162.017 131.890 162.004 C 53.305 161.994,39.693 162.074,39.190 162.554 M60.509 175.574 C 60.815 176.744,60.328 176.800,49.867 176.800 C 24.446 176.802,0.000 177.324,0.000 177.865 C 0.000 178.267,0.796 178.400,3.200 178.400 C 6.359 178.400,7.991 179.526,5.700 180.124 C 5.315 180.225,9.509 180.328,15.020 180.354 C 21.214 180.382,25.192 180.248,25.439 180.001 C 25.701 179.739,53.099 179.567,105.219 179.501 L 184.600 179.400 184.805 177.100 L 185.010 174.800 122.658 174.800 C 61.197 174.800,60.310 174.811,60.509 175.574 M379.809 175.971 C 379.473 177.031,389.336 176.906,301.662 176.965 C 229.221 177.013,224.694 177.056,224.218 177.708 C 223.623 178.521,222.949 178.604,222.665 177.900 C 222.554 177.625,222.473 178.120,222.486 179.000 C 222.499 179.880,222.586 180.204,222.680 179.720 C 222.827 178.961,222.989 178.892,223.850 179.219 C 224.764 179.566,261.366 179.667,368.300 179.615 L 400.000 179.600 400.000 177.600 L 400.000 175.600 390.633 175.600 C 385.481 175.600,380.997 175.497,380.669 175.371 C 380.292 175.226,379.975 175.447,379.809 175.971 M101.768 189.300 L 101.800 190.200 69.800 190.499 C 39.303 190.784,18.828 190.684,5.900 190.186 L 0.000 189.959 0.000 191.579 L 0.000 193.200 11.167 193.200 C 23.038 193.200,23.600 193.257,23.600 194.454 C 23.600 195.200,23.955 195.217,35.700 195.003 C 42.355 194.882,72.820 194.652,103.400 194.491 L 159.000 194.200 159.000 192.400 L 159.000 190.600 146.085 190.494 C 132.868 190.386,131.065 190.144,133.242 188.766 C 133.570 188.558,127.207 188.410,117.768 188.406 L 101.736 188.400 101.768 189.300 M227.813 190.700 C 216.238 190.822,216.168 190.836,216.560 192.926 C 216.880 194.631,218.010 195.038,219.761 194.079 C 221.711 193.011,371.109 193.032,372.289 194.100 C 372.994 194.737,374.266 194.800,386.531 194.800 L 400.000 194.800 400.000 192.655 L 400.000 190.509 369.382 190.561 C 342.780 190.606,338.715 190.691,338.396 191.206 C 337.725 192.293,253.044 192.294,252.113 191.207 C 251.467 190.452,251.009 190.406,245.011 190.493 C 241.485 190.544,233.746 190.637,227.813 190.700 M12.800 204.374 C 12.800 205.174,12.601 205.200,6.400 205.200 L 0.000 205.200 0.000 206.600 L 0.000 208.000 9.700 208.054 C 15.035 208.084,24.440 208.219,30.600 208.354 L 41.800 208.600 41.768 209.500 L 41.736 210.400 58.893 210.400 C 73.190 210.400,76.362 210.298,77.925 209.789 C 79.547 209.261,83.542 209.194,107.500 209.289 L 135.200 209.400 135.200 206.678 L 135.200 203.957 80.900 204.036 C 51.035 204.079,23.495 203.987,19.700 203.831 C 12.902 203.552,12.800 203.560,12.800 204.374 M161.200 206.943 C 161.200 209.106,161.316 209.641,161.750 209.474 C 162.053 209.358,162.793 209.519,163.396 209.832 C 164.280 210.290,167.129 210.400,178.146 210.401 L 191.800 210.402 191.669 207.410 L 191.537 204.419 176.369 204.309 L 161.200 204.200 161.200 206.943 M226.646 204.986 C 226.291 205.528,226.000 206.407,226.000 206.938 L 226.000 207.904 250.700 208.210 C 264.285 208.378,295.061 208.395,319.090 208.248 C 362.671 207.981,362.782 207.982,363.287 208.790 C 363.782 209.584,364.151 209.600,381.896 209.600 L 400.000 209.600 400.000 207.065 L 400.000 204.530 385.900 204.265 C 359.213 203.765,347.565 203.895,346.976 204.700 C 346.161 205.814,237.359 205.844,236.664 204.730 C 235.858 203.440,227.519 203.653,226.646 204.986 M25.600 217.924 C 25.600 218.702,17.300 219.200,4.336 219.200 L 0.000 219.200 0.000 221.600 L 0.000 224.000 3.120 224.000 C 5.082 224.000,6.426 223.814,6.740 223.500 C 7.224 223.016,65.287 222.986,66.100 223.469 C 66.265 223.567,66.400 223.997,66.400 224.424 C 66.400 225.183,66.895 225.200,88.963 225.200 L 111.527 225.200 111.463 221.700 L 111.400 218.200 79.600 217.907 C 62.110 217.746,42.805 217.515,36.700 217.395 C 26.042 217.184,25.600 217.205,25.600 217.924 M176.600 217.594 C 176.160 217.786,169.455 217.956,161.700 217.972 L 147.600 218.000 147.600 221.600 L 147.600 225.200 154.565 225.200 C 160.972 225.200,161.521 225.144,161.421 224.500 C 161.234 223.285,161.939 223.212,174.076 223.206 C 180.608 223.203,186.039 223.060,186.144 222.890 C 186.250 222.719,186.384 221.414,186.442 219.990 L 186.549 217.400 181.974 217.322 C 179.458 217.279,177.040 217.401,176.600 217.594 M370.000 217.936 C 370.000 219.039,332.472 219.888,331.800 218.800 C 331.270 217.943,320.800 218.301,320.800 219.176 C 320.800 220.482,320.731 220.486,292.901 220.544 C 271.669 220.588,265.831 220.707,265.700 221.100 C 265.568 221.497,271.425 221.600,294.102 221.600 C 334.973 221.600,341.124 221.883,338.358 223.634 C 338.021 223.848,340.262 223.990,344.020 223.994 C 348.469 223.998,350.383 223.858,350.741 223.500 C 351.133 223.108,356.490 223.032,375.621 223.148 L 400.000 223.297 400.000 220.248 L 400.000 217.200 385.000 217.200 C 370.700 217.200,370.000 217.234,370.000 217.936 M44.142 231.486 C 44.208 232.301,35.703 232.635,12.100 232.744 L 0.000 232.800 0.000 234.783 L 0.000 236.766 3.100 236.883 C 5.991 236.992,6.209 237.062,6.331 237.921 L 6.461 238.841 11.931 238.626 C 14.939 238.508,19.560 238.301,22.200 238.168 C 34.135 237.565,88.087 238.447,88.297 239.249 C 88.588 240.362,98.008 240.413,97.795 239.300 C 97.722 238.915,97.647 237.030,97.631 235.111 L 97.600 231.622 85.100 231.415 C 42.631 230.712,44.079 230.710,44.142 231.486 M153.200 234.500 L 153.200 238.200 176.999 238.200 L 200.799 238.200 200.799 235.400 L 200.798 232.600 184.899 232.447 C 169.584 232.299,168.001 232.170,168.650 231.119 C 168.758 230.944,165.327 230.800,161.024 230.800 L 153.200 230.800 153.200 234.500 M334.400 232.753 C 334.400 233.193,334.261 233.639,334.091 233.744 C 333.714 233.977,315.055 234.419,306.067 234.408 C 301.016 234.402,299.571 234.513,299.698 234.900 C 299.788 235.175,300.632 235.456,301.573 235.525 C 303.146 235.640,303.269 235.729,303.097 236.625 L 302.911 237.600 310.175 237.600 C 315.453 237.600,317.577 237.463,317.942 237.100 C 318.773 236.272,348.831 236.643,349.487 237.490 C 349.755 237.835,349.874 238.281,349.750 238.480 C 349.618 238.695,351.869 238.746,355.263 238.606 C 358.418 238.475,369.775 238.282,380.500 238.177 L 400.000 237.985 400.000 235.141 L 400.000 232.297 372.100 232.387 C 356.755 232.437,341.995 232.360,339.300 232.215 C 334.579 231.963,334.400 231.982,334.400 232.753 M64.279 245.182 C 64.430 245.759,64.237 246.024,63.542 246.194 C 62.407 246.471,14.487 246.136,6.700 245.797 C 1.315 245.562,1.200 245.574,1.200 246.391 C 1.200 246.850,0.930 247.329,0.600 247.455 C 0.180 247.617,-0.000 248.272,-0.000 249.643 L 0.000 251.600 2.300 251.650 C 12.735 251.878,16.200 252.197,16.078 252.918 C 15.964 253.594,16.370 253.623,22.878 253.408 C 26.685 253.282,40.195 253.090,52.900 252.980 L 76.000 252.781 76.000 248.591 L 76.000 244.400 70.037 244.400 C 64.318 244.400,64.083 244.432,64.279 245.182 M196.800 246.070 C 196.125 246.352,186.841 246.442,168.200 246.344 L 140.600 246.200 140.484 249.488 L 140.368 252.776 158.284 252.983 C 168.138 253.096,179.755 253.289,184.100 253.411 C 191.711 253.625,192.000 253.605,192.000 252.862 C 192.000 252.007,206.228 251.365,218.501 251.665 L 224.001 251.800 224.001 249.486 C 224.000 247.409,223.928 247.209,223.300 247.539 C 221.650 248.405,208.212 247.488,208.072 246.500 C 207.929 245.491,198.996 245.150,196.800 246.070 M344.800 248.575 L 344.800 251.600 346.100 251.647 C 356.552 252.027,358.200 252.201,358.142 252.915 C 358.087 253.587,358.607 253.616,366.942 253.410 C 371.814 253.290,381.245 253.098,387.900 252.984 L 400.000 252.777 400.000 249.595 L 400.000 246.413 376.900 246.228 C 364.195 246.127,351.775 245.933,349.300 245.797 L 344.800 245.550 344.800 248.575 M11.360 259.839 C 11.791 260.962,10.888 261.187,5.933 261.194 C -0.114 261.202,-0.000 261.147,-0.000 264.043 L 0.000 266.400 6.300 266.449 C 21.800 266.569,26.587 266.909,26.728 267.900 C 26.854 268.790,26.928 268.800,33.128 268.801 L 39.400 268.802 39.275 264.424 L 39.151 260.047 31.475 259.830 C 27.254 259.711,20.941 259.507,17.446 259.378 C 11.516 259.158,11.110 259.189,11.360 259.839 M173.800 259.612 C 173.360 259.807,162.411 259.953,149.468 259.936 C 134.904 259.916,125.789 260.051,125.551 260.289 C 125.340 260.500,125.219 262.277,125.284 264.236 L 125.400 267.800 136.786 267.906 C 143.570 267.970,148.332 268.172,148.566 268.406 C 148.804 268.644,152.966 268.800,159.052 268.800 L 169.144 268.800 169.272 267.900 C 169.399 267.007,169.465 266.998,178.200 266.751 C 192.773 266.338,205.128 266.360,205.400 266.800 C 205.907 267.621,215.200 267.301,215.200 266.463 C 215.200 265.618,221.966 265.200,235.664 265.200 L 242.800 265.200 242.800 264.060 L 242.800 262.920 239.139 262.660 C 237.125 262.517,233.627 262.400,231.366 262.400 C 227.408 262.400,227.251 262.367,227.128 261.500 C 226.955 260.280,220.645 259.971,217.294 261.019 C 215.439 261.600,213.591 261.647,201.719 261.416 C 187.476 261.139,187.420 261.133,187.728 259.955 C 187.945 259.122,175.587 258.818,173.800 259.612 " stroke="none" fill="#1c2c8c" fill-rule="evenodd"></path><path id="path4" d="M8.806 120.300 C 8.803 121.015,8.980 121.600,9.200 121.600 C 9.708 121.600,9.708 120.386,9.200 119.600 C 8.906 119.145,8.811 119.314,8.806 120.300 M6.125 135.099 C 9.604 135.166,15.184 135.166,18.525 135.099 C 21.866 135.032,19.020 134.978,12.200 134.978 C 5.380 134.978,2.646 135.033,6.125 135.099 M298.400 135.800 C 298.400 136.130,298.670 136.400,299.000 136.400 C 299.330 136.400,299.600 136.130,299.600 135.800 C 299.600 135.470,299.330 135.200,299.000 135.200 C 298.670 135.200,298.400 135.470,298.400 135.800 M117.784 146.827 C 117.348 147.532,117.807 147.630,118.629 147.009 C 119.306 146.497,119.317 146.424,118.724 146.413 C 118.352 146.406,117.929 146.592,117.784 146.827 M360.500 148.300 C 366.165 148.362,375.435 148.362,381.100 148.300 C 386.765 148.237,382.130 148.186,370.800 148.186 C 359.470 148.186,354.835 148.237,360.500 148.300 M263.617 149.779 C 263.353 150.098,262.310 150.413,261.299 150.479 C 258.512 150.662,258.588 151.600,261.390 151.600 C 262.882 151.600,263.558 151.456,263.384 151.175 C 263.240 150.941,263.437 150.401,263.823 149.975 C 264.208 149.549,264.428 149.200,264.311 149.200 C 264.194 149.200,263.882 149.461,263.617 149.779 M9.674 150.299 C 13.345 150.365,19.465 150.365,23.274 150.299 C 27.083 150.234,24.080 150.180,16.600 150.180 C 9.120 150.179,6.003 150.233,9.674 150.299 M32.130 150.287 C 29.742 150.586,29.604 151.600,31.951 151.600 C 33.863 151.600,34.646 151.127,33.500 150.665 C 33.225 150.554,35.019 150.449,37.487 150.432 C 41.320 150.405,41.941 150.488,41.745 151.000 C 41.585 151.416,41.772 151.600,42.357 151.600 C 43.482 151.600,43.438 150.557,42.300 150.252 C 41.343 149.996,34.261 150.020,32.130 150.287 M253.100 150.276 C 252.246 150.499,252.163 151.600,253.000 151.600 C 253.330 151.600,253.600 151.338,253.600 151.018 C 253.600 150.574,254.291 150.402,256.500 150.297 L 259.400 150.159 256.600 150.126 C 255.060 150.108,253.485 150.175,253.100 150.276 M10.200 161.600 C 11.667 161.863,11.700 161.895,10.600 161.986 C 9.513 162.076,9.564 162.122,11.136 162.473 C 13.108 162.914,13.574 162.716,12.676 161.819 C 12.285 161.428,11.420 161.221,10.329 161.257 L 8.600 161.314 10.200 161.600 M287.300 163.100 C 296.925 163.160,312.675 163.160,322.300 163.100 C 331.925 163.040,324.050 162.991,304.800 162.991 C 285.550 162.991,277.675 163.040,287.300 163.100 M373.500 165.100 C 378.395 165.163,386.405 165.163,391.300 165.100 C 396.195 165.036,392.190 164.984,382.400 164.984 C 372.610 164.984,368.605 165.036,373.500 165.100 M96.400 165.800 C 96.400 166.130,96.561 166.400,96.757 166.400 C 96.954 166.400,97.218 166.130,97.345 165.800 C 97.485 165.435,97.345 165.200,96.987 165.200 C 96.664 165.200,96.400 165.470,96.400 165.800 M194.800 165.800 C 194.800 166.133,195.156 166.400,195.600 166.400 C 196.044 166.400,196.400 166.133,196.400 165.800 C 196.400 165.467,196.044 165.200,195.600 165.200 C 195.156 165.200,194.800 165.467,194.800 165.800 M221.333 165.800 C 221.333 166.419,222.260 166.582,223.365 166.158 C 224.297 165.800,223.719 165.200,222.443 165.200 C 221.723 165.200,221.333 165.411,221.333 165.800 M185.320 177.200 C 185.320 178.410,185.395 178.905,185.487 178.300 C 185.578 177.695,185.578 176.705,185.487 176.100 C 185.395 175.495,185.320 175.990,185.320 177.200 M13.500 176.698 C 15.755 176.770,19.445 176.770,21.700 176.698 C 23.955 176.627,22.110 176.569,17.600 176.569 C 13.090 176.569,11.245 176.627,13.500 176.698 M33.926 179.900 C 38.176 179.964,45.016 179.964,49.126 179.899 C 53.237 179.834,49.760 179.781,41.400 179.781 C 33.040 179.782,29.677 179.835,33.926 179.900 M387.900 179.898 C 390.155 179.970,393.845 179.970,396.100 179.898 C 398.355 179.827,396.510 179.769,392.000 179.769 C 387.490 179.769,385.645 179.827,387.900 179.898 M56.400 189.400 C 56.400 189.730,56.580 190.000,56.800 190.000 C 57.020 190.000,57.200 189.730,57.200 189.400 C 57.200 189.070,57.020 188.800,56.800 188.800 C 56.580 188.800,56.400 189.070,56.400 189.400 M34.274 190.299 C 38.055 190.365,44.355 190.365,48.274 190.299 C 52.193 190.234,49.100 190.180,41.400 190.180 C 33.700 190.180,30.493 190.234,34.274 190.299 M253.855 190.600 C 253.675 191.071,253.964 191.200,255.200 191.200 C 256.436 191.200,256.725 191.071,256.545 190.600 C 256.416 190.265,255.822 190.000,255.200 190.000 C 254.578 190.000,253.984 190.265,253.855 190.600 M258.400 190.489 C 258.400 190.890,260.571 191.000,268.500 191.000 C 274.055 191.000,279.230 191.123,280.000 191.273 C 280.770 191.423,281.175 191.453,280.900 191.340 C 280.625 191.226,280.400 190.889,280.400 190.590 C 280.400 190.147,278.381 190.041,269.400 190.013 C 260.722 189.985,258.400 190.086,258.400 190.489 M318.400 190.500 C 318.400 190.880,320.027 191.000,325.200 191.000 C 330.373 191.000,332.000 190.880,332.000 190.500 C 332.000 190.120,330.373 190.000,325.200 190.000 C 320.027 190.000,318.400 190.120,318.400 190.500 M159.309 192.400 C 159.309 193.390,159.387 193.795,159.482 193.300 C 159.578 192.805,159.578 191.995,159.482 191.500 C 159.387 191.005,159.309 191.410,159.309 192.400 M246.517 193.897 C 248.011 193.974,250.351 193.974,251.717 193.896 C 253.082 193.818,251.860 193.755,249.000 193.755 C 246.140 193.756,245.022 193.820,246.517 193.897 M339.318 193.898 C 341.033 193.973,343.733 193.972,345.318 193.897 C 346.903 193.821,345.500 193.759,342.200 193.760 C 338.900 193.761,337.603 193.822,339.318 193.898 M349.729 193.881 C 350.158 193.992,350.369 194.303,350.242 194.635 C 350.123 194.946,350.199 195.200,350.413 195.200 C 350.626 195.200,350.800 194.840,350.800 194.400 C 350.800 193.823,350.549 193.613,349.900 193.646 C 349.178 193.684,349.144 193.730,349.729 193.881 M61.472 203.900 C 66.792 203.963,75.612 203.963,81.072 203.900 C 86.533 203.837,82.180 203.785,71.400 203.785 C 60.620 203.785,56.153 203.837,61.472 203.900 M167.900 203.899 C 171.035 203.967,176.165 203.967,179.300 203.899 C 182.435 203.832,179.870 203.776,173.600 203.776 C 167.330 203.776,164.765 203.832,167.900 203.899 M12.919 217.674 C 13.049 218.045,12.940 218.436,12.678 218.543 C 12.309 218.692,12.309 218.744,12.676 218.768 C 13.419 218.818,13.746 217.981,13.186 217.465 C 12.793 217.102,12.734 217.148,12.919 217.674 M90.100 217.499 C 94.005 217.565,100.395 217.565,104.300 217.499 C 108.205 217.434,105.010 217.380,97.200 217.380 C 89.390 217.380,86.195 217.434,90.100 217.499 M281.879 218.957 C 281.715 219.374,281.675 219.809,281.791 219.924 C 282.155 220.289,282.476 219.691,282.324 218.931 C 282.183 218.235,282.162 218.236,281.879 218.957 M186.667 223.467 C 186.520 223.613,186.403 223.928,186.406 224.167 C 186.410 224.460,186.507 224.453,186.706 224.146 C 186.868 223.897,187.360 223.603,187.800 223.493 C 188.574 223.299,188.573 223.291,187.767 223.246 C 187.308 223.221,186.813 223.320,186.667 223.467 M98.148 236.000 C 98.148 238.310,98.214 239.255,98.295 238.100 C 98.376 236.945,98.376 235.055,98.295 233.900 C 98.214 232.745,98.148 233.690,98.148 236.000 M160.871 245.067 C 160.942 245.434,161.270 245.807,161.600 245.897 C 162.093 246.032,162.102 245.992,161.649 245.675 C 161.346 245.463,161.221 245.089,161.372 244.845 C 161.524 244.600,161.443 244.400,161.194 244.400 C 160.945 244.400,160.800 244.700,160.871 245.067 M139.679 249.651 C 139.615 252.143,139.728 252.803,140.300 253.251 C 140.914 253.733,140.941 253.724,140.519 253.182 C 140.255 252.842,139.975 251.222,139.899 249.582 L 139.759 246.600 139.679 249.651 M129.513 258.467 C 129.260 259.111,130.251 259.882,130.724 259.409 C 130.839 259.294,130.737 259.200,130.496 259.200 C 130.255 259.200,129.995 258.885,129.918 258.500 C 129.788 257.860,129.754 257.857,129.513 258.467 M197.443 259.833 C 197.121 260.672,197.135 260.800,197.553 260.800 C 197.748 260.800,198.001 260.440,198.116 260.000 C 198.363 259.055,197.795 258.914,197.443 259.833 M229.200 260.666 C 233.531 260.957,238.402 260.976,238.401 260.700 C 238.400 260.535,235.925 260.432,232.900 260.472 C 229.875 260.512,228.210 260.599,229.200 260.666 M131.124 268.299 C 134.273 268.367,139.313 268.367,142.324 268.299 C 145.336 268.231,142.760 268.176,136.600 268.176 C 130.440 268.176,127.976 268.232,131.124 268.299 " stroke="none" fill="#3c4c9c" fill-rule="evenodd"></path></g></svg>