<?xml version="1.0" standalone="no"?>
<!DOCTYPE svg PUBLIC "-//W3C//DTD SVG 20010904//EN"
 "http://www.w3.org/TR/2001/REC-SVG-20010904/DTD/svg10.dtd">
<svg version="1.0" xmlns="http://www.w3.org/2000/svg"
 width="294.000000pt" height="294.000000pt" viewBox="0 0 294.000000 294.000000"
 preserveAspectRatio="xMidYMid meet">

<g transform="translate(0.000000,294.000000) scale(0.100000,-0.100000)"
fill="#000000" stroke="none">
<path d="M1000 2150 c38 -12 1370 -12 1370 0 0 7 -239 10 -697 9 -384 -1 -687
-5 -673 -9z"/>
<path d="M2460 2150 c0 -6 87 -10 240 -10 153 0 240 4 240 10 0 6 -87 10 -240
10 -153 0 -240 -4 -240 -10z"/>
<path d="M844 2048 c473 -5 988 -5 1165 0 241 7 40 9 -849 9 l-1165 0 849 -9z"/>
<path d="M2423 2054 c8 -9 517 -10 517 -1 0 4 -118 7 -262 7 -144 0 -259 -3
-255 -6z"/>
<path d="M85 1950 c-50 -3 406 -7 1013 -8 733 -1 1101 1 1097 8 -7 11 -1951
11 -2110 0z"/>
<path d="M2310 1950 c0 -6 112 -10 315 -10 203 0 315 4 315 10 0 6 -112 10
-315 10 -203 0 -315 -4 -315 -10z"/>
<path d="M418 1853 c-267 -2 -418 -7 -418 -13 0 -12 1936 -14 1944 -2 6 10
-620 23 -913 20 -108 -2 -384 -4 -613 -5z"/>
<path d="M2503 1853 c-244 -2 -383 -7 -383 -13 0 -6 147 -10 410 -10 358 0
410 2 410 15 0 10 -9 14 -27 13 -16 -2 -200 -4 -410 -5z"/>
<path d="M378 1753 c-357 -3 -463 -12 -310 -26 37 -4 406 -7 820 -7 622 0 752
2 752 13 0 18 -260 28 -624 25 -144 -2 -431 -4 -638 -5z"/>
<path d="M1810 1738 c0 -10 120 -13 565 -14 469 -1 565 1 565 12 0 12 -96 14
-565 14 -445 0 -565 -3 -565 -12z"/>
<path d="M32 1643 c-17 -2 -32 -8 -32 -12 0 -11 755 -23 1105 -19 238 3 260 4
263 21 3 16 -33 17 -650 15 -359 0 -668 -3 -686 -5z"/>
<path d="M1643 1637 c-3 -5 -3 -10 -2 -12 2 -2 295 -5 652 -7 581 -3 647 -1
647 13 0 14 -67 15 -646 15 -355 -1 -648 -5 -651 -9z"/>
<path d="M102 1543 c-81 -3 -102 -7 -102 -18 0 -13 34 -15 223 -15 123 0 386
-3 585 -7 l362 -6 0 26 0 27 -482 -2 c-266 -1 -529 -4 -586 -5z"/>
<path d="M1586 1533 c-3 -6 -2 -14 1 -17 4 -3 309 -6 680 -6 641 0 673 1 673
18 0 17 -31 18 -675 18 -500 -1 -676 -4 -679 -13z"/>
<path d="M193 1443 c-153 -3 -193 -6 -193 -17 0 -22 73 -26 541 -26 l449 0 0
25 0 25 -302 -2 c-167 -2 -390 -4 -495 -5z"/>
<path d="M1190 1425 l0 -25 110 0 c101 0 110 2 110 19 0 22 -40 31 -147 31
-71 0 -73 -1 -73 -25z"/>
<path d="M2546 1437 c-144 -4 -404 -6 -579 -3 -273 4 -318 3 -315 -9 3 -12 98
-15 646 -19 617 -4 642 -4 642 14 0 25 -61 27 -394 17z"/>
<path d="M303 1343 c-286 -3 -303 -4 -303 -22 0 -16 12 -19 113 -24 61 -4 248
-7 415 -7 l303 0 -3 28 -3 27 -110 0 c-60 0 -246 -1 -412 -2z"/>
<path d="M1090 1315 l0 -25 145 0 145 0 0 25 0 25 -145 0 -145 0 0 -25z"/>
<path d="M2243 1333 c-161 -2 -293 -7 -293 -12 0 -4 132 -11 293 -15 160 -3
383 -9 495 -13 l202 -6 0 26 0 27 -202 -2 c-112 -2 -335 -4 -495 -5z"/>
<path d="M48 1233 c-38 -3 -48 -8 -48 -22 0 -16 16 -18 182 -24 99 -4 261 -7
360 -7 l178 0 0 30 0 30 -312 -2 c-172 -1 -334 -3 -360 -5z"/>
<path d="M1130 1210 l0 -30 73 0 c39 0 116 3 170 7 93 6 97 7 97 30 l0 23
-170 0 -170 0 0 -30z"/>
<path d="M2440 1229 c-102 -3 -197 -7 -212 -8 -16 0 -28 -5 -28 -10 0 -5 100
-11 223 -15 122 -3 288 -9 370 -12 l147 -6 0 31 0 31 -157 -2 c-87 -1 -241 -5
-343 -9z"/>
<path d="M92 1133 c-90 -4 -92 -4 -92 -28 l0 -25 264 0 c145 0 271 -3 280 -6
13 -5 16 1 16 30 l0 36 -187 -2 c-104 -1 -230 -4 -281 -5z"/>
<path d="M1022 1108 l3 -33 255 3 c311 4 360 8 360 32 0 15 -21 17 -227 23
-124 4 -264 7 -310 7 l-84 0 3 -32z"/>
<path d="M2623 1133 c-81 -4 -83 -5 -83 -28 l0 -25 200 0 200 0 0 30 0 30
-117 -2 c-65 -1 -155 -4 -200 -5z"/>
<path d="M910 1005 l0 -38 398 6 c413 7 472 11 472 32 0 9 -58 14 -232 19
-128 3 -324 9 -435 12 l-203 7 0 -38z"/>
<path d="M0 1006 c0 -32 19 -36 173 -36 l127 0 0 30 0 30 -150 0 -150 0 0 -24z"/>
</g>
</svg>
