<?xml version="1.0" standalone="no"?>
<!DOCTYPE svg PUBLIC "-//W3C//DTD SVG 20010904//EN"
 "http://www.w3.org/TR/2001/REC-SVG-20010904/DTD/svg10.dtd">
<svg version="1.0" xmlns="http://www.w3.org/2000/svg"
 width="512.000000pt" height="512.000000pt" viewBox="0 0 512.000000 512.000000"
 preserveAspectRatio="xMidYMid meet">

<g transform="translate(0.000000,512.000000) scale(0.100000,-0.100000)"
fill="#000000" stroke="none">
<path d="M2375 3450 c-229 -61 -404 -223 -483 -449 -24 -68 -27 -91 -27 -211
0 -123 3 -143 29 -218 35 -104 108 -214 189 -287 75 -67 216 -140 307 -158
l65 -13 3 -68 3 -69 88 5 c49 3 94 8 100 12 6 4 11 33 11 65 l0 59 83 25 c45
15 104 40 130 57 l49 31 18 -23 c10 -13 122 -142 248 -288 l230 -264 -74 -24
-75 -23 30 -37 c16 -20 49 -58 73 -84 l43 -47 80 15 80 15 65 -73 c139 -157
164 -178 204 -178 28 0 45 7 67 29 41 41 39 86 -3 140 -18 22 -46 57 -63 78
-47 60 -186 222 -194 225 -4 2 -128 143 -275 313 -147 171 -278 319 -290 331
l-23 20 25 35 c37 52 89 167 107 234 21 79 22 251 1 330 -96 360 -472 587
-821 495z m320 -211 c118 -44 206 -120 262 -225 43 -80 55 -132 54 -230 -3
-410 -485 -626 -793 -355 -179 158 -214 428 -81 628 119 180 356 257 558 182z"/>
<path d="M3630 1194 c0 -13 69 -78 97 -93 55 -28 147 0 171 53 10 22 8 24 -26
30 -71 12 -242 19 -242 10z"/>
</g>
</svg>
