<?xml version="1.0" standalone="no"?>
<!DOCTYPE svg PUBLIC "-//W3C//DTD SVG 20010904//EN"
 "http://www.w3.org/TR/2001/REC-SVG-20010904/DTD/svg10.dtd">
<svg version="1.0" xmlns="http://www.w3.org/2000/svg"
 width="512.000000pt" height="512.000000pt" viewBox="0 0 512.000000 512.000000"
 preserveAspectRatio="xMidYMid meet">

<g transform="translate(0.000000,512.000000) scale(0.100000,-0.100000)"
fill="#000000" stroke="none">
<path d="M894 3480 c3 -22 9 -58 12 -80 l6 -40 -166 0 -166 0 0 -95 0 -95 410
0 410 0 0 -70 0 -70 -387 -2 -388 -3 0 -90 0 -90 388 -3 387 -2 0 -70 0 -70
-390 0 -390 0 0 -90 0 -90 390 0 390 0 0 -85 0 -85 -410 0 -410 0 0 -95 0 -95
380 0 c209 0 380 -4 380 -8 0 -15 -113 -117 -179 -161 -121 -82 -287 -142
-451 -164 l-94 -12 -27 -85 c-14 -47 -29 -95 -33 -106 -6 -20 -4 -21 41 -17
104 10 279 45 371 74 203 65 342 146 468 273 l81 82 73 -73 c126 -127 286
-220 490 -286 100 -33 286 -75 294 -66 2 2 28 48 59 101 l56 97 -37 6 c-137
20 -239 42 -316 67 -162 52 -320 144 -411 237 l-39 41 387 0 387 0 0 95 0 95
-415 0 -415 0 0 85 0 85 385 0 385 0 0 90 0 90 -385 0 -385 0 0 70 0 70 385 0
385 0 0 95 0 95 -385 0 -385 0 0 70 0 70 413 2 412 3 3 93 3 92 -166 0 -166 0
7 80 7 80 -117 0 c-85 0 -118 -3 -121 -12 -2 -7 -7 -43 -10 -80 l-7 -68 -369
0 c-203 0 -369 1 -370 3 0 1 -6 36 -12 77 l-12 75 -118 3 -119 3 6 -41z"/>
<path d="M2722 2588 c3 -967 0 -920 57 -950 19 -10 196 -13 895 -13 l871 0 0
890 c0 843 -1 891 -18 917 -10 14 -32 31 -49 37 -21 8 -305 11 -895 11 l-863
0 2 -892z m1598 -33 l0 -735 -685 0 -685 0 0 735 0 735 685 0 685 0 0 -735z"/>
<path d="M3800 3110 l0 -80 -370 0 -370 0 0 -90 0 -90 160 0 c131 0 160 -3
160 -14 0 -37 -44 -263 -70 -362 -47 -178 -134 -386 -214 -513 -15 -22 -26
-43 -26 -46 0 -3 51 -5 114 -5 92 0 118 3 131 16 26 26 99 179 143 299 50 138
106 358 128 509 l18 117 95 -3 96 -3 3 -270 c3 -317 -7 -435 -48 -554 -16 -47
-31 -90 -32 -96 -2 -6 40 -10 112 -10 l115 0 13 28 c8 16 23 70 34 120 18 80
21 139 25 440 l5 347 104 0 105 0 -3 88 -3 87 -102 3 -103 3 0 79 0 80 -110 0
-110 0 0 -80z"/>
</g>
</svg>
