<svg id="svg" version="1.1" xmlns="http://www.w3.org/2000/svg" xmlns:xlink="http://www.w3.org/1999/xlink" width="400" height="400" viewBox="0, 0, 400,400"><g id="svgg"><path id="path0" d="M44.000 283.400 L 44.000 359.202 119.700 359.101 L 195.400 359.000 195.400 283.400 L 195.400 207.800 119.700 207.699 L 44.000 207.598 44.000 283.400 " stroke="none" fill="#04a3ec" fill-rule="evenodd"></path><path id="path1" d="M207.797 41.706 C 207.678 42.198,207.630 76.260,207.691 117.400 L 207.800 192.200 283.400 192.200 L 359.000 192.200 359.109 117.400 C 359.170 76.260,359.121 42.195,359.002 41.700 L 358.785 40.800 283.399 40.806 L 208.012 40.812 207.797 41.706 " stroke="none" fill="#8cc41b" fill-rule="evenodd"></path><path id="path2" d="M207.702 281.904 L 207.792 356.200 207.996 284.000 C 208.202 211.104,208.209 210.800,209.647 210.800 C 210.087 210.800,210.341 210.628,210.211 210.417 C 210.081 210.207,209.665 210.134,209.287 210.255 C 208.756 210.426,208.724 210.387,209.147 210.085 C 209.448 209.870,209.861 209.448,210.064 209.147 C 210.366 208.699,210.416 208.709,210.337 209.200 C 210.228 209.874,211.767 213.009,212.398 213.399 C 212.676 213.570,212.804 237.104,212.796 286.226 L 212.783 358.800 210.841 358.800 C 208.859 358.800,208.239 358.422,207.889 357.000 C 207.756 356.457,207.678 356.603,207.646 357.453 C 207.610 358.436,207.795 358.759,208.500 358.948 C 210.865 359.582,357.930 359.213,358.571 358.571 C 359.219 357.924,359.588 212.041,358.950 208.851 L 358.700 207.602 283.156 207.605 L 207.612 207.608 207.702 281.904 M319.332 356.300 C 300.594 356.357,269.814 356.357,250.932 356.300 C 232.049 356.242,247.380 356.195,285.000 356.195 C 322.620 356.195,338.069 356.242,319.332 356.300 M353.400 357.200 C 353.564 357.466,330.663 357.600,285.000 357.600 C 239.337 357.600,216.436 357.466,216.600 357.200 C 216.763 356.936,239.996 356.800,285.000 356.800 C 330.004 356.800,353.237 356.936,353.400 357.200 " stroke="none" fill="#fcb42b" fill-rule="evenodd"></path><path id="path3" d="M44.000 116.593 L 44.000 192.400 119.801 192.400 L 195.602 192.400 195.501 116.700 L 195.400 41.000 119.700 40.893 L 44.000 40.786 44.000 116.593 M194.600 42.072 C 195.041 42.477,195.417 184.366,194.984 186.772 C 194.820 187.679,194.629 187.970,194.418 187.630 C 194.194 187.267,194.019 187.245,193.826 187.557 C 192.394 189.876,192.408 190.559,192.302 114.617 L 192.200 41.235 193.200 41.469 C 193.750 41.598,194.380 41.869,194.600 42.072 " stroke="none" fill="#ec5404" fill-rule="evenodd"></path><path id="path4" d="M192.600 41.032 C 192.335 41.143,192.234 65.949,192.302 114.600 C 192.408 190.896,192.368 189.072,193.920 187.520 C 194.293 187.147,194.406 187.169,194.428 187.620 C 194.446 187.981,194.586 187.898,194.801 187.400 C 195.265 186.324,195.249 43.662,194.785 42.500 C 194.566 41.951,194.070 41.589,193.513 41.572 C 192.647 41.545,192.641 41.526,193.400 41.200 C 193.900 40.985,193.975 40.858,193.600 40.860 C 193.270 40.862,192.820 40.939,192.600 41.032 M209.431 209.703 C 208.807 210.380,208.786 210.491,209.318 210.287 C 209.679 210.148,210.081 210.207,210.211 210.417 C 210.341 210.628,210.072 210.800,209.614 210.800 C 209.088 210.800,208.637 211.177,208.392 211.821 C 207.803 213.370,207.855 357.543,208.445 358.254 C 208.714 358.578,209.687 358.800,210.841 358.800 L 212.783 358.800 212.796 286.226 C 212.804 237.104,212.676 213.570,212.398 213.399 C 211.803 213.031,210.223 209.888,210.338 209.300 C 210.464 208.650,210.355 208.699,209.431 209.703 M250.932 356.300 C 269.814 356.357,300.594 356.357,319.332 356.300 C 338.069 356.242,322.620 356.195,285.000 356.195 C 247.380 356.195,232.049 356.242,250.932 356.300 M216.600 357.200 C 216.436 357.466,239.337 357.600,285.000 357.600 C 330.663 357.600,353.564 357.466,353.400 357.200 C 353.237 356.936,330.004 356.800,285.000 356.800 C 239.996 356.800,216.763 356.936,216.600 357.200 " stroke="none" fill="#fcb434" fill-rule="evenodd"></path></g></svg>