<svg id="svg" version="1.1" xmlns="http://www.w3.org/2000/svg" xmlns:xlink="http://www.w3.org/1999/xlink" width="400" height="400" viewBox="0, 0, 400,400"><g id="svgg"><path id="path0" d="M94.724 86.564 C 91.009 87.636,88.529 89.992,87.287 93.628 C 86.312 96.486,86.610 257.891,87.595 260.188 C 89.887 265.535,91.838 266.332,104.368 267.045 C 114.148 267.601,116.357 267.800,123.237 268.747 C 133.332 270.135,146.111 273.611,155.800 277.603 C 158.320 278.641,168.935 283.973,170.800 285.137 C 173.632 286.905,178.941 290.463,179.200 290.767 C 179.310 290.896,180.471 291.812,181.780 292.801 C 183.089 293.790,185.699 296.067,187.580 297.861 C 189.461 299.654,191.135 301.039,191.300 300.937 C 191.661 300.715,191.708 248.096,191.349 245.482 L 191.098 243.653 188.449 243.389 C 148.953 239.454,126.832 194.816,147.866 161.495 C 148.403 160.644,149.176 159.354,149.584 158.629 C 149.991 157.903,150.567 156.880,150.862 156.355 C 151.158 155.830,151.490 155.310,151.601 155.200 C 151.711 155.090,152.055 154.508,152.365 153.907 C 152.674 153.305,153.219 152.495,153.575 152.107 C 153.931 151.718,154.656 150.770,155.186 150.000 C 156.353 148.306,162.633 141.997,165.400 139.739 C 169.240 136.607,179.815 131.191,182.076 131.198 C 182.448 131.199,182.864 131.020,183.000 130.800 C 183.136 130.580,183.766 130.400,184.400 130.400 C 185.034 130.400,185.664 130.220,185.800 130.000 C 185.936 129.780,186.847 129.600,187.824 129.600 C 190.059 129.600,190.051 129.333,187.713 126.057 C 173.772 106.521,152.962 94.134,125.200 88.846 C 123.990 88.615,122.460 88.323,121.800 88.197 C 118.429 87.551,109.507 86.724,100.800 86.251 C 97.849 86.090,96.042 86.183,94.724 86.564 M298.000 86.256 C 297.450 86.332,294.390 86.582,291.200 86.813 C 282.744 87.425,275.928 88.421,269.200 90.028 C 268.210 90.264,266.813 90.555,266.096 90.673 C 265.379 90.792,264.694 91.049,264.573 91.244 C 264.452 91.440,263.980 91.600,263.524 91.600 C 262.347 91.600,255.016 94.071,252.705 95.247 C 252.323 95.441,251.803 95.600,251.549 95.600 C 249.420 95.600,234.201 104.236,229.406 108.166 C 228.310 109.065,227.068 110.070,226.648 110.400 C 221.198 114.679,210.265 127.542,210.499 129.400 C 210.565 129.921,210.949 130.241,211.600 130.317 C 212.150 130.381,212.960 130.581,213.400 130.761 C 213.840 130.942,214.920 131.311,215.800 131.582 C 225.100 134.445,237.329 143.680,241.911 151.300 C 242.275 151.905,242.714 152.400,242.886 152.400 C 243.059 152.400,243.200 152.593,243.200 152.828 C 243.200 153.063,243.708 154.008,244.328 154.928 C 245.571 156.769,248.000 161.700,248.000 162.380 C 248.000 162.617,248.174 163.123,248.387 163.505 C 252.596 171.051,252.583 190.659,248.364 201.100 C 248.164 201.595,247.843 202.405,247.651 202.900 C 246.921 204.780,245.388 207.805,245.100 207.933 C 244.935 208.007,244.800 208.412,244.800 208.833 C 244.800 209.255,244.620 209.600,244.400 209.600 C 244.180 209.600,244.000 209.836,244.000 210.125 C 244.000 210.413,243.683 210.998,243.296 211.425 C 242.909 211.851,242.155 213.035,241.621 214.055 L 240.650 215.909 242.424 218.055 C 243.401 219.235,244.829 220.900,245.600 221.756 C 246.370 222.611,247.180 223.511,247.400 223.756 C 247.620 224.000,249.419 226.090,251.397 228.400 C 255.127 232.754,256.715 234.595,257.400 235.356 C 257.620 235.601,258.970 237.151,260.400 238.801 C 261.829 240.450,263.100 241.890,263.223 242.000 C 263.346 242.110,265.302 244.360,267.570 247.000 C 269.837 249.640,272.729 252.970,273.996 254.400 C 275.263 255.830,276.814 257.630,277.443 258.400 C 278.072 259.170,278.686 259.890,278.807 260.000 C 278.928 260.110,280.357 261.730,281.982 263.600 C 283.608 265.470,285.132 267.110,285.369 267.244 C 286.627 267.957,305.796 266.486,307.552 265.542 C 309.803 264.332,312.063 261.748,312.700 259.655 C 313.417 257.300,313.434 94.979,312.717 93.319 C 310.284 87.677,305.257 85.265,298.000 86.256 M59.800 123.267 C 55.070 124.861,52.850 127.400,52.015 132.173 C 51.440 135.463,51.445 300.405,52.020 303.953 C 52.909 309.427,58.692 314.124,63.154 312.995 C 63.729 312.849,65.100 312.566,66.200 312.366 C 67.300 312.166,69.010 311.821,70.000 311.600 C 70.990 311.379,72.745 311.018,73.900 310.799 C 75.055 310.580,77.035 310.201,78.300 309.957 C 83.664 308.924,93.088 307.573,100.400 306.788 C 125.431 304.101,152.111 305.013,171.000 309.201 C 172.100 309.445,173.630 309.736,174.400 309.847 L 175.800 310.050 174.135 308.525 C 166.950 301.943,154.056 294.591,144.000 291.341 C 143.010 291.021,141.840 290.604,141.400 290.413 C 140.960 290.223,140.150 289.950,139.600 289.806 C 138.490 289.517,136.525 288.966,134.400 288.347 C 132.262 287.725,127.119 286.626,123.400 285.998 C 115.872 284.726,109.504 284.108,99.000 283.631 C 85.698 283.026,77.798 278.540,72.884 268.800 C 69.533 262.158,69.833 269.417,69.702 191.900 L 69.585 122.800 65.292 122.832 C 62.932 122.849,60.460 123.045,59.800 123.267 M330.285 192.100 C 330.149 264.689,330.217 261.635,328.631 265.800 C 327.995 267.469,326.588 270.205,326.300 270.333 C 326.135 270.407,326.000 270.729,326.000 271.049 C 326.000 271.369,324.335 273.294,322.300 275.326 C 316.591 281.028,310.674 283.576,303.100 283.593 C 299.444 283.601,299.346 283.797,301.700 286.387 C 307.232 292.473,307.818 293.293,308.181 295.467 C 308.716 298.671,308.100 300.701,305.907 302.957 C 303.530 305.404,302.832 306.800,303.986 306.800 C 304.408 306.800,304.850 306.957,304.969 307.150 C 305.088 307.342,306.134 307.603,307.293 307.730 C 309.812 308.005,314.356 308.685,321.000 309.783 C 321.880 309.928,323.320 310.202,324.200 310.391 C 325.080 310.580,326.880 310.943,328.200 311.197 C 329.520 311.452,331.230 311.813,332.000 312.001 C 338.948 313.693,341.563 313.253,345.008 309.808 C 346.854 307.962,347.427 306.921,347.983 304.400 C 348.529 301.929,348.529 134.071,347.983 131.600 C 346.629 125.465,342.560 122.800,334.548 122.800 L 330.415 122.800 330.285 192.100 M186.600 149.956 C 176.720 152.440,168.323 159.050,164.442 167.400 C 163.931 168.500,163.352 169.713,163.156 170.095 C 162.960 170.477,162.800 171.206,162.800 171.715 C 162.800 172.224,162.638 172.811,162.441 173.020 C 161.577 173.934,161.080 185.385,161.756 188.800 C 162.125 190.667,162.809 193.191,163.246 194.300 C 165.762 200.691,167.894 203.953,172.589 208.600 C 181.127 217.049,195.234 220.973,205.200 217.672 C 206.630 217.198,208.191 216.808,208.668 216.805 C 209.938 216.798,213.895 214.535,217.260 211.891 C 234.167 198.609,235.003 172.695,218.995 158.065 C 216.148 155.463,210.686 152.081,208.823 151.768 C 208.040 151.636,206.140 151.191,204.600 150.779 C 199.467 149.404,190.436 148.992,186.600 149.956 M220.600 236.545 C 219.940 236.849,218.202 237.650,216.738 238.327 C 215.274 239.003,212.912 239.962,211.488 240.459 L 208.901 241.362 208.653 243.981 C 208.298 247.744,208.341 300.717,208.700 300.937 C 208.865 301.039,210.534 299.654,212.410 297.860 C 222.263 288.437,238.252 279.113,252.400 274.541 C 253.390 274.221,254.560 273.802,255.000 273.609 C 255.440 273.416,256.047 273.193,256.350 273.113 C 256.686 273.024,253.446 269.009,248.014 262.783 C 243.128 257.183,236.220 249.258,232.665 245.173 C 224.424 235.706,223.641 235.146,220.600 236.545 M266.000 288.273 C 265.450 288.363,264.550 288.588,264.000 288.772 C 263.450 288.956,262.190 289.329,261.200 289.599 C 260.210 289.870,259.040 290.242,258.600 290.425 C 258.160 290.609,256.900 291.052,255.800 291.409 C 254.700 291.766,253.170 292.333,252.400 292.670 C 251.630 293.006,250.640 293.421,250.200 293.592 C 242.906 296.424,230.432 304.097,225.600 308.724 L 224.200 310.065 225.600 309.855 C 226.370 309.739,227.900 309.446,229.000 309.203 C 230.100 308.961,231.990 308.600,233.200 308.401 C 234.410 308.202,236.570 307.848,238.000 307.613 C 247.627 306.036,259.573 305.218,273.131 305.208 L 284.862 305.200 283.531 303.669 C 282.799 302.826,279.436 298.956,276.057 295.069 C 269.370 287.374,269.782 287.652,266.000 288.273 " stroke="none" fill="#f9fafb" fill-rule="evenodd"></path><path id="path1" d="M67.800 0.294 C 66.480 0.377,65.229 0.614,65.020 0.822 C 64.811 1.030,63.956 1.200,63.120 1.200 C 62.284 1.200,61.600 1.380,61.600 1.600 C 61.600 1.820,60.981 2.000,60.224 2.000 C 59.467 2.000,58.736 2.180,58.600 2.400 C 58.464 2.620,57.823 2.800,57.176 2.800 C 56.529 2.800,56.000 2.980,56.000 3.200 C 56.000 3.420,55.638 3.600,55.195 3.600 C 54.417 3.600,54.031 3.742,52.105 4.738 C 51.613 4.992,50.848 5.200,50.405 5.200 C 49.962 5.200,49.600 5.380,49.600 5.600 C 49.600 5.820,49.150 6.000,48.600 6.000 C 48.050 6.000,47.600 6.138,47.600 6.306 C 47.600 6.577,45.218 7.817,43.600 8.388 C 43.270 8.505,41.593 9.410,39.873 10.400 C 38.153 11.390,36.394 12.398,35.965 12.641 C 35.536 12.883,34.650 13.558,33.996 14.141 C 33.342 14.723,32.717 15.200,32.607 15.200 C 31.174 15.200,15.200 31.174,15.200 32.607 C 15.200 32.717,14.723 33.342,14.141 33.996 C 13.558 34.650,12.883 35.536,12.641 35.965 C 12.398 36.394,11.390 38.153,10.400 39.873 C 9.410 41.593,8.505 43.270,8.388 43.600 C 7.817 45.218,6.577 47.600,6.306 47.600 C 6.138 47.600,6.000 48.050,6.000 48.600 C 6.000 49.150,5.820 49.600,5.600 49.600 C 5.380 49.600,5.200 49.962,5.200 50.405 C 5.200 50.848,4.992 51.613,4.738 52.105 C 3.742 54.031,3.600 54.417,3.600 55.195 C 3.600 55.638,3.420 56.000,3.200 56.000 C 2.980 56.000,2.800 56.529,2.800 57.176 C 2.800 57.823,2.620 58.464,2.400 58.600 C 2.180 58.736,2.000 59.467,2.000 60.224 C 2.000 60.981,1.820 61.600,1.600 61.600 C 1.380 61.600,1.200 62.284,1.200 63.120 C 1.200 63.956,0.975 64.865,0.700 65.140 C -0.035 65.875,-0.035 334.125,0.700 334.860 C 0.975 335.135,1.200 336.044,1.200 336.880 C 1.200 337.716,1.380 338.400,1.600 338.400 C 1.820 338.400,2.000 339.120,2.000 340.000 C 2.000 340.880,2.180 341.600,2.400 341.600 C 2.620 341.600,2.800 342.140,2.800 342.800 C 2.800 343.460,2.980 344.000,3.200 344.000 C 3.420 344.000,3.600 344.362,3.600 344.805 C 3.600 345.583,3.742 345.969,4.738 347.895 C 4.992 348.387,5.200 349.152,5.200 349.595 C 5.200 350.038,5.380 350.400,5.600 350.400 C 5.820 350.400,6.000 350.850,6.000 351.400 C 6.000 351.950,6.135 352.401,6.300 352.403 C 6.659 352.407,7.600 354.344,7.600 355.080 C 7.600 355.366,7.780 355.600,8.000 355.600 C 8.220 355.600,8.413 355.915,8.429 356.300 C 8.445 356.685,8.801 357.540,9.219 358.200 C 9.637 358.860,10.438 360.210,10.999 361.200 C 13.007 364.743,13.694 365.788,14.442 366.436 C 14.859 366.798,15.200 367.206,15.200 367.343 C 15.200 368.738,31.087 384.759,32.504 384.793 C 32.671 384.797,33.372 385.340,34.063 386.000 C 34.754 386.660,35.562 387.200,35.859 387.200 C 36.157 387.200,36.400 387.335,36.400 387.501 C 36.400 387.666,37.255 388.243,38.300 388.784 C 39.345 389.324,40.827 390.178,41.593 390.683 C 42.359 391.187,43.304 391.600,43.693 391.600 C 44.082 391.600,44.400 391.780,44.400 392.000 C 44.400 392.220,44.634 392.400,44.920 392.400 C 45.656 392.400,47.593 393.341,47.597 393.700 C 47.599 393.865,48.050 394.000,48.600 394.000 C 49.150 394.000,49.600 394.180,49.600 394.400 C 49.600 394.620,49.962 394.800,50.405 394.800 C 50.848 394.800,51.613 395.008,52.105 395.262 C 54.031 396.258,54.417 396.400,55.195 396.400 C 55.638 396.400,56.000 396.580,56.000 396.800 C 56.000 397.020,56.540 397.200,57.200 397.200 C 57.860 397.200,58.400 397.380,58.400 397.600 C 58.400 397.820,59.120 398.000,60.000 398.000 C 60.880 398.000,61.600 398.180,61.600 398.400 C 61.600 398.620,62.284 398.800,63.120 398.800 C 63.956 398.800,64.865 399.025,65.140 399.300 C 65.875 400.035,334.125 400.035,334.860 399.300 C 335.135 399.025,336.033 398.800,336.856 398.800 C 337.679 398.800,338.464 398.620,338.600 398.400 C 338.736 398.180,339.467 398.000,340.224 398.000 C 340.981 398.000,341.600 397.820,341.600 397.600 C 341.600 397.380,342.140 397.200,342.800 397.200 C 343.460 397.200,344.000 397.020,344.000 396.800 C 344.000 396.580,344.362 396.400,344.805 396.400 C 345.248 396.400,346.013 396.192,346.505 395.938 C 348.431 394.942,348.817 394.800,349.595 394.800 C 350.038 394.800,350.400 394.620,350.400 394.400 C 350.400 394.180,350.850 394.000,351.400 394.000 C 351.950 394.000,352.400 393.820,352.400 393.600 C 352.400 393.380,352.771 393.200,353.224 393.200 C 353.677 393.200,353.936 393.020,353.800 392.800 C 353.660 392.573,353.996 392.400,354.576 392.400 C 355.139 392.400,355.600 392.220,355.600 392.000 C 355.600 391.780,355.879 391.600,356.220 391.600 C 356.852 391.600,359.237 390.495,359.600 390.034 C 359.710 389.895,360.655 389.335,361.700 388.791 C 362.745 388.247,363.600 387.666,363.600 387.501 C 363.600 387.335,363.825 387.199,364.100 387.198 C 364.375 387.197,365.175 386.657,365.878 385.998 C 366.581 385.339,367.301 384.800,367.478 384.799 C 367.655 384.799,368.430 384.259,369.200 383.600 C 369.970 382.941,370.690 382.400,370.800 382.397 C 370.910 382.395,371.845 381.540,372.878 380.497 C 375.270 378.081,378.081 375.270,380.497 372.878 C 381.540 371.845,382.395 370.910,382.397 370.800 C 382.400 370.690,382.941 369.970,383.600 369.200 C 384.259 368.430,384.799 367.655,384.799 367.478 C 384.800 367.301,385.339 366.581,385.998 365.878 C 386.657 365.175,387.197 364.375,387.198 364.100 C 387.199 363.825,387.335 363.600,387.501 363.600 C 387.666 363.600,388.247 362.745,388.791 361.700 C 389.335 360.655,389.895 359.710,390.034 359.600 C 390.495 359.237,391.600 356.852,391.600 356.220 C 391.600 355.879,391.780 355.600,392.000 355.600 C 392.220 355.600,392.400 355.139,392.400 354.576 C 392.400 353.996,392.573 353.660,392.800 353.800 C 393.020 353.936,393.200 353.677,393.200 353.224 C 393.200 352.771,393.380 352.400,393.600 352.400 C 393.820 352.400,394.000 351.950,394.000 351.400 C 394.000 350.850,394.180 350.400,394.400 350.400 C 394.620 350.400,394.800 350.038,394.800 349.595 C 394.800 349.152,394.980 348.432,395.200 347.995 C 395.420 347.558,395.780 346.842,396.000 346.405 C 396.220 345.968,396.400 345.248,396.400 344.805 C 396.400 344.362,396.580 344.000,396.800 344.000 C 397.020 344.000,397.200 343.460,397.200 342.800 C 397.200 342.140,397.380 341.600,397.600 341.600 C 397.820 341.600,398.000 340.981,398.000 340.224 C 398.000 339.467,398.180 338.736,398.400 338.600 C 398.620 338.464,398.800 337.679,398.800 336.856 C 398.800 336.033,399.025 335.135,399.300 334.860 C 400.035 334.125,400.035 65.875,399.300 65.140 C 399.025 64.865,398.800 63.956,398.800 63.120 C 398.800 62.284,398.620 61.600,398.400 61.600 C 398.180 61.600,398.000 60.880,398.000 60.000 C 398.000 59.120,397.820 58.400,397.600 58.400 C 397.380 58.400,397.200 57.860,397.200 57.200 C 397.200 56.540,397.020 56.000,396.800 56.000 C 396.580 56.000,396.400 55.638,396.400 55.195 C 396.400 54.752,396.220 54.032,396.000 53.595 C 395.780 53.158,395.420 52.442,395.200 52.005 C 394.980 51.568,394.800 50.848,394.800 50.405 C 394.800 49.962,394.620 49.600,394.400 49.600 C 394.180 49.600,394.000 49.150,394.000 48.600 C 394.000 48.050,393.865 47.599,393.700 47.597 C 393.341 47.593,392.400 45.656,392.400 44.920 C 392.400 44.634,392.220 44.400,392.000 44.400 C 391.780 44.400,391.600 44.082,391.600 43.693 C 391.600 43.304,391.187 42.359,390.683 41.593 C 390.178 40.827,389.324 39.345,388.784 38.300 C 388.243 37.255,387.666 36.400,387.501 36.400 C 387.335 36.400,387.200 36.157,387.200 35.859 C 387.200 35.562,386.660 34.754,386.000 34.063 C 385.340 33.372,384.797 32.671,384.793 32.504 C 384.759 31.087,368.738 15.200,367.343 15.200 C 367.206 15.200,366.798 14.859,366.436 14.442 C 365.788 13.694,364.743 13.007,361.200 10.999 C 360.210 10.438,358.860 9.637,358.200 9.219 C 357.540 8.801,356.685 8.445,356.300 8.429 C 355.915 8.413,355.600 8.220,355.600 8.000 C 355.600 7.780,355.366 7.600,355.080 7.600 C 354.344 7.600,352.407 6.659,352.403 6.300 C 352.401 6.135,351.950 6.000,351.400 6.000 C 350.850 6.000,350.400 5.820,350.400 5.600 C 350.400 5.380,350.038 5.200,349.595 5.200 C 349.152 5.200,348.432 5.020,347.995 4.800 C 347.558 4.580,346.842 4.220,346.405 4.000 C 345.968 3.780,345.248 3.600,344.805 3.600 C 344.362 3.600,344.000 3.420,344.000 3.200 C 344.000 2.980,343.460 2.800,342.800 2.800 C 342.140 2.800,341.600 2.620,341.600 2.400 C 341.600 2.180,340.880 2.000,340.000 2.000 C 339.120 2.000,338.400 1.820,338.400 1.600 C 338.400 1.380,337.716 1.200,336.880 1.200 C 336.044 1.200,335.135 0.975,334.860 0.700 C 334.391 0.231,75.123 -0.163,67.800 0.294 M113.450 86.612 C 122.609 87.604,129.975 89.020,137.600 91.255 C 138.370 91.481,139.497 91.762,140.105 91.879 C 140.713 91.996,141.308 92.251,141.429 92.446 C 141.549 92.641,141.999 92.800,142.429 92.800 C 142.859 92.800,143.523 92.959,143.905 93.153 C 144.657 93.536,146.472 94.287,149.700 95.553 C 155.532 97.839,167.491 104.675,170.661 107.535 C 171.068 107.901,172.030 108.712,172.800 109.337 C 177.685 113.301,183.745 119.632,186.821 123.985 C 187.360 124.747,188.115 125.725,188.500 126.160 C 188.885 126.595,189.407 127.419,189.661 127.993 L 190.122 129.035 196.961 129.017 C 200.722 129.008,205.066 129.157,206.612 129.349 L 209.425 129.699 211.112 127.090 C 215.760 119.903,224.827 110.495,231.437 106.000 C 231.922 105.670,233.283 104.743,234.460 103.939 C 237.894 101.596,246.475 97.053,250.300 95.553 C 250.795 95.359,251.605 95.044,252.100 94.854 C 253.065 94.482,254.393 93.953,256.000 93.301 C 256.550 93.078,258.350 92.492,260.000 91.999 C 261.650 91.507,263.450 90.966,264.000 90.798 C 273.645 87.854,295.915 85.000,303.337 85.757 C 307.736 86.206,310.975 88.406,312.729 92.138 L 313.600 93.991 313.591 176.496 C 313.581 270.200,313.947 260.713,310.207 264.252 C 307.790 266.540,305.607 267.192,300.229 267.236 C 295.344 267.276,284.731 268.123,285.462 268.415 C 285.963 268.615,297.319 281.610,298.313 283.121 C 298.737 283.764,299.045 283.915,299.339 283.621 C 299.571 283.389,300.849 283.185,302.180 283.166 C 310.342 283.052,316.515 280.550,321.940 275.156 C 325.289 271.826,327.932 267.307,329.052 263.000 C 329.223 262.340,329.418 230.580,329.484 192.422 C 329.579 137.630,329.709 122.978,330.102 122.728 C 330.852 122.252,338.773 122.341,340.592 122.847 C 344.204 123.849,347.428 127.192,348.337 130.877 C 348.992 133.533,349.002 301.814,348.347 304.880 C 347.502 308.841,344.370 312.073,340.300 313.185 C 338.153 313.771,336.698 313.646,331.000 312.381 C 325.307 311.117,324.899 311.041,316.000 309.573 C 314.790 309.374,312.630 309.049,311.200 308.851 C 309.770 308.653,308.150 308.392,307.600 308.271 C 305.551 307.820,301.800 307.595,302.357 307.956 C 302.816 308.254,302.760 308.532,302.041 309.543 C 298.516 314.493,292.835 313.920,287.350 308.061 L 285.300 305.871 273.550 305.835 C 262.639 305.803,251.696 306.326,245.000 307.201 C 237.953 308.122,233.757 308.789,230.000 309.585 C 222.615 311.149,222.189 311.059,225.000 308.528 C 231.015 303.113,242.544 295.981,249.800 293.188 C 250.240 293.018,251.453 292.502,252.496 292.040 C 253.538 291.578,254.549 291.200,254.742 291.200 C 254.935 291.200,255.972 290.858,257.047 290.439 C 259.610 289.441,264.029 288.167,266.893 287.600 C 269.010 287.181,270.421 286.400,269.061 286.400 C 268.739 286.400,266.006 283.565,262.988 280.100 C 258.968 275.486,257.272 273.811,256.650 273.843 C 255.772 273.887,252.690 274.916,249.100 276.363 C 248.605 276.562,247.390 277.027,246.400 277.396 C 239.877 279.824,229.143 285.455,224.000 289.148 C 217.891 293.534,215.603 295.446,209.703 301.100 C 209.186 301.595,208.592 302.000,208.382 302.000 C 208.143 302.000,207.980 290.414,207.946 271.100 C 207.916 254.105,207.816 240.586,207.723 241.058 C 207.541 241.992,207.553 241.988,201.600 242.968 C 197.288 243.679,192.532 243.797,192.333 243.199 C 192.260 242.978,192.258 255.695,192.328 271.458 C 192.483 305.977,192.803 303.479,188.733 299.562 C 185.362 296.319,180.271 292.049,177.800 290.393 C 176.700 289.656,175.710 288.947,175.600 288.817 C 174.214 287.185,160.034 279.848,153.200 277.228 C 151.330 276.510,149.440 275.782,149.000 275.610 C 148.560 275.437,146.850 274.892,145.200 274.400 C 143.550 273.908,141.840 273.360,141.400 273.182 C 140.960 273.005,140.060 272.749,139.400 272.612 C 138.740 272.476,137.570 272.200,136.800 272.000 C 133.170 271.057,131.713 270.758,125.000 269.581 C 118.767 268.487,110.114 267.658,100.800 267.261 C 93.038 266.930,91.324 266.335,88.747 263.081 C 86.276 259.961,86.404 264.730,86.406 176.200 L 86.408 94.200 87.355 92.200 C 90.429 85.710,95.366 84.652,113.450 86.612 M69.767 122.643 C 70.341 122.863,70.400 129.312,70.400 191.623 C 70.400 264.736,70.324 261.638,72.239 266.400 C 74.937 273.110,84.710 282.000,89.387 282.000 C 89.753 282.000,90.394 282.183,90.812 282.406 C 91.229 282.630,95.492 282.990,100.285 283.207 C 116.588 283.946,126.564 285.522,140.600 289.573 C 152.239 292.933,167.714 301.593,175.800 309.272 C 177.817 311.187,177.698 311.194,170.100 309.602 C 147.459 304.857,117.121 304.553,89.000 308.789 C 80.557 310.061,74.393 311.172,68.800 312.430 C 59.916 314.429,55.393 313.055,52.636 307.522 L 51.600 305.443 51.600 217.967 L 51.600 130.491 52.720 128.347 C 53.975 125.946,56.767 123.576,59.120 122.916 C 60.744 122.461,68.756 122.255,69.767 122.643 " stroke="none" fill="#6b83fb" fill-rule="evenodd"></path><path id="path2" d="M188.400 129.616 C 185.964 130.034,183.595 130.672,183.269 130.998 C 182.980 131.286,184.688 130.959,186.560 130.367 C 187.198 130.165,188.188 129.997,188.760 129.994 C 189.332 129.991,190.070 129.813,190.400 129.600 C 191.063 129.172,190.985 129.172,188.400 129.616 M209.200 129.968 C 209.200 130.171,209.785 130.454,210.500 130.598 C 211.215 130.742,212.138 130.956,212.550 131.073 C 213.034 131.210,213.203 131.129,213.026 130.843 C 212.876 130.599,212.234 130.400,211.600 130.400 C 210.966 130.400,210.336 130.220,210.200 130.000 C 209.890 129.498,209.200 129.476,209.200 129.968 M179.400 132.070 C 174.918 133.875,167.722 137.855,168.157 138.290 C 168.260 138.393,169.179 137.902,170.201 137.200 C 172.227 135.805,178.339 132.836,181.200 131.855 C 182.190 131.516,182.640 131.244,182.200 131.251 C 181.760 131.259,180.500 131.627,179.400 132.070 M214.200 131.600 C 215.301 132.073,215.692 132.073,215.400 131.600 C 215.264 131.380,214.758 131.213,214.276 131.228 C 213.431 131.255,213.429 131.269,214.200 131.600 M216.033 132.135 C 216.387 132.422,219.600 133.585,219.600 133.426 C 219.600 133.137,217.106 132.000,216.472 132.000 C 216.139 132.000,215.942 132.061,216.033 132.135 M220.033 133.749 C 220.576 134.235,222.799 135.169,222.797 134.910 C 222.794 134.578,220.896 133.600,220.254 133.600 C 220.041 133.600,219.942 133.667,220.033 133.749 M226.400 137.127 C 226.400 137.316,226.850 137.677,227.400 137.927 C 227.950 138.178,228.400 138.317,228.400 138.237 C 228.400 138.157,227.950 137.797,227.400 137.437 C 226.850 137.076,226.400 136.937,226.400 137.127 M165.000 140.355 C 151.239 151.411,140.792 172.780,140.802 189.851 C 140.818 216.680,161.931 240.305,187.624 242.245 C 190.759 242.481,191.214 242.613,191.448 243.350 C 191.969 244.993,192.251 242.792,192.020 238.885 C 191.783 234.884,191.521 234.417,189.506 234.406 C 188.904 234.403,187.554 234.193,186.506 233.939 C 142.344 223.260,130.580 169.296,166.010 139.915 C 166.994 139.099,167.710 138.430,167.600 138.429 C 167.490 138.428,166.320 139.295,165.000 140.355 M228.800 138.665 C 228.800 138.864,229.349 139.352,230.019 139.748 C 232.782 141.380,239.246 148.275,242.254 152.797 C 244.230 155.769,245.083 156.622,243.558 154.100 C 240.951 149.792,236.753 144.936,232.571 141.390 C 229.262 138.585,228.800 138.252,228.800 138.665 M192.600 145.086 C 186.743 145.895,180.448 148.533,175.348 152.314 C 168.968 157.045,163.925 164.341,162.018 171.600 C 161.759 172.590,161.388 173.940,161.195 174.600 C 161.003 175.260,160.756 177.780,160.646 180.200 L 160.447 184.600 160.803 181.000 C 162.760 161.217,174.845 149.095,193.200 148.503 C 215.014 147.800,230.889 162.802,230.974 184.200 C 231.059 205.253,215.906 220.110,195.400 219.081 C 192.823 218.952,191.331 219.002,191.800 219.202 C 193.171 219.788,202.368 219.648,205.505 218.993 C 228.003 214.300,240.863 191.094,232.989 169.400 C 228.869 158.048,218.092 148.362,207.000 146.041 C 205.900 145.811,204.155 145.438,203.123 145.211 C 201.318 144.816,195.091 144.741,192.600 145.086 M248.412 165.200 C 248.412 165.530,248.587 166.070,248.800 166.400 C 249.145 166.933,249.188 166.933,249.188 166.400 C 249.188 166.070,249.013 165.530,248.800 165.200 C 248.455 164.667,248.412 164.667,248.412 165.200 M249.212 168.000 C 249.212 168.330,249.387 168.870,249.600 169.200 C 249.945 169.733,249.988 169.733,249.988 169.200 C 249.988 168.870,249.813 168.330,249.600 168.000 C 249.255 167.467,249.212 167.467,249.212 168.000 M250.235 172.600 C 250.382 173.700,250.569 174.675,250.651 174.767 C 251.010 175.168,250.746 171.739,250.377 171.200 C 250.086 170.774,250.045 171.180,250.235 172.600 M250.993 181.729 C 250.997 185.380,251.122 188.060,251.272 187.684 C 251.621 186.806,251.605 177.303,251.253 176.045 C 251.106 175.520,250.989 178.078,250.993 181.729 M160.806 186.833 C 160.809 188.025,160.988 189.270,161.202 189.600 C 161.465 190.004,161.510 189.349,161.340 187.600 C 161.024 184.337,160.798 184.013,160.806 186.833 M250.459 190.400 C 250.420 190.950,250.289 191.850,250.167 192.400 C 249.976 193.262,250.008 193.302,250.397 192.691 C 250.646 192.302,250.777 191.402,250.689 190.691 C 250.564 189.687,250.513 189.622,250.459 190.400 M161.646 191.200 C 161.627 191.750,161.787 192.470,162.000 192.800 C 162.494 193.564,162.494 192.742,162.000 191.200 L 161.680 190.200 161.646 191.200 M162.427 193.941 C 162.377 194.935,165.561 201.243,167.444 203.883 C 171.500 209.566,179.170 215.632,184.000 216.976 C 184.550 217.129,183.516 216.477,181.703 215.527 C 172.521 210.717,167.472 205.048,162.885 194.400 C 162.648 193.850,162.442 193.643,162.427 193.941 M249.429 195.429 C 249.281 196.015,249.251 196.584,249.361 196.694 C 249.471 196.804,249.681 196.415,249.829 195.829 C 249.976 195.242,250.006 194.673,249.896 194.563 C 249.786 194.453,249.576 194.842,249.429 195.429 M248.600 198.000 C 248.450 198.473,248.417 198.950,248.527 199.060 C 248.637 199.170,248.850 198.873,249.000 198.400 C 249.150 197.927,249.183 197.450,249.073 197.340 C 248.963 197.230,248.750 197.527,248.600 198.000 M248.000 200.026 C 248.000 200.520,246.361 204.278,245.132 206.600 C 244.667 207.480,244.036 208.678,243.732 209.263 C 243.428 209.847,242.283 211.554,241.189 213.054 C 238.892 216.205,238.921 216.107,240.100 216.772 C 240.595 217.050,242.170 218.689,243.600 220.414 C 245.030 222.138,246.357 223.561,246.549 223.575 C 246.846 223.596,245.593 222.093,240.635 216.479 C 240.114 215.889,239.972 215.458,240.241 215.279 C 242.129 214.023,249.491 199.600,248.243 199.600 C 248.110 199.600,248.000 199.792,248.000 200.026 M185.600 217.600 C 185.930 217.813,186.470 217.988,186.800 217.988 C 187.333 217.988,187.333 217.945,186.800 217.600 C 186.470 217.387,185.930 217.212,185.600 217.212 C 185.067 217.212,185.067 217.255,185.600 217.600 M188.000 218.400 C 188.330 218.613,189.050 218.778,189.600 218.766 C 190.516 218.746,190.533 218.715,189.800 218.400 C 188.616 217.891,187.213 217.891,188.000 218.400 M248.269 225.700 C 248.714 226.195,250.905 228.719,253.139 231.310 C 255.373 233.900,257.200 235.917,257.200 235.791 C 257.200 235.467,247.973 224.800,247.692 224.800 C 247.565 224.800,247.824 225.205,248.269 225.700 M225.901 227.389 C 223.941 228.570,220.453 230.307,217.400 231.623 C 216.005 232.224,211.490 233.600,210.914 233.600 C 210.609 233.600,209.829 233.875,209.180 234.210 L 208.000 234.821 208.032 238.710 C 208.056 241.697,208.153 242.356,208.449 241.547 C 208.745 240.740,209.414 240.285,211.318 239.598 C 212.683 239.105,215.428 237.914,217.418 236.951 C 224.275 233.633,223.698 233.281,237.200 249.012 C 240.390 252.728,243.737 256.586,244.638 257.585 C 254.937 268.998,257.860 272.823,256.700 273.369 C 255.676 273.850,258.311 273.248,261.600 272.249 C 263.470 271.681,265.304 271.213,265.676 271.208 C 267.076 271.191,266.742 270.358,264.119 267.323 C 262.635 265.605,261.323 264.110,261.204 264.000 C 261.086 263.890,259.911 262.540,258.594 261.000 C 257.277 259.460,256.110 258.110,256.000 258.000 C 255.889 257.890,254.630 256.450,253.200 254.800 C 251.770 253.150,250.510 251.710,250.398 251.600 C 250.286 251.490,249.207 250.230,248.000 248.800 C 246.793 247.370,245.708 246.110,245.589 246.000 C 245.471 245.890,243.043 243.100,240.195 239.800 C 237.347 236.500,234.923 233.710,234.808 233.600 C 233.766 232.602,229.615 227.604,229.245 226.900 C 228.638 225.745,228.622 225.748,225.901 227.389 M257.613 236.299 C 257.621 236.464,258.656 237.689,259.913 239.020 C 262.206 241.446,261.850 240.881,259.081 237.699 C 258.266 236.763,257.606 236.133,257.613 236.299 M264.718 244.700 C 265.594 245.745,266.730 246.960,267.242 247.400 C 267.754 247.840,267.122 246.985,265.837 245.500 C 264.553 244.015,263.418 242.800,263.314 242.800 C 263.210 242.800,263.842 243.655,264.718 244.700 M270.215 251.000 C 271.470 252.430,272.576 253.600,272.672 253.600 C 272.990 253.600,268.607 248.454,268.266 248.427 C 268.083 248.412,268.960 249.570,270.215 251.000 M275.009 256.400 C 276.801 258.690,278.440 260.494,278.589 260.342 C 278.666 260.264,277.646 259.030,276.321 257.600 C 274.997 256.170,274.407 255.630,275.009 256.400 M278.800 260.925 C 278.800 260.994,279.385 261.579,280.100 262.225 L 281.400 263.400 280.225 262.100 C 279.130 260.888,278.800 260.616,278.800 260.925 M281.200 263.725 C 281.200 263.794,281.785 264.379,282.500 265.025 L 283.800 266.200 282.625 264.900 C 281.530 263.688,281.200 263.416,281.200 263.725 M277.000 285.604 C 276.120 285.778,274.050 286.143,272.400 286.413 C 268.567 287.041,267.213 287.539,269.244 287.575 C 270.773 287.601,270.889 287.713,278.400 296.402 C 279.610 297.802,281.808 300.309,283.285 301.973 L 285.971 305.000 284.936 305.440 L 283.902 305.880 285.201 306.140 C 285.915 306.283,288.246 306.400,290.380 306.400 C 293.783 306.400,301.511 307.224,303.800 307.831 C 304.360 307.979,304.271 307.829,303.500 307.329 C 302.010 306.362,302.063 306.203,304.700 303.687 C 305.965 302.480,306.370 301.993,305.600 302.607 C 302.665 304.943,299.336 305.462,296.800 303.978 C 295.205 303.045,294.489 302.292,287.636 294.352 C 281.517 287.262,279.554 285.188,279.017 285.243 C 278.788 285.266,277.880 285.429,277.000 285.604 M300.000 285.325 C 300.000 285.394,300.585 285.979,301.300 286.625 L 302.600 287.800 301.425 286.500 C 300.330 285.288,300.000 285.016,300.000 285.325 M303.822 289.625 C 304.690 290.629,305.481 291.388,305.580 291.312 C 305.680 291.235,304.970 290.414,304.003 289.486 L 302.244 287.800 303.822 289.625 M307.728 297.200 C 307.728 298.630,307.801 299.215,307.889 298.500 C 307.978 297.785,307.978 296.615,307.889 295.900 C 307.801 295.185,307.728 295.770,307.728 297.200 " stroke="none" fill="#a6aad1" fill-rule="evenodd"></path><path id="path3" d="M191.600 129.264 C 190.830 129.474,189.390 129.806,188.400 130.001 C 181.908 131.279,174.721 134.119,170.200 137.193 C 169.320 137.792,168.402 138.353,168.161 138.441 C 167.281 138.760,164.121 141.479,160.769 144.800 C 135.005 170.333,142.223 214.032,174.788 229.673 C 180.602 232.465,186.656 234.400,189.577 234.400 C 191.458 234.400,192.000 235.291,192.000 238.379 C 192.000 243.480,192.073 243.600,195.150 243.597 C 197.392 243.595,202.309 242.958,206.458 242.132 C 207.680 241.889,208.000 240.858,208.000 237.160 C 208.000 234.768,208.956 233.600,210.914 233.600 C 211.486 233.600,215.984 232.231,217.400 231.626 C 220.360 230.361,223.382 228.854,225.766 227.454 C 228.369 225.926,228.558 225.874,228.966 226.578 C 229.334 227.212,234.141 232.999,234.798 233.600 C 234.919 233.710,237.347 236.500,240.195 239.800 C 243.043 243.100,245.471 245.890,245.589 246.000 C 245.708 246.110,246.793 247.370,248.000 248.800 C 249.207 250.230,250.286 251.490,250.398 251.600 C 250.510 251.710,251.770 253.150,253.200 254.800 C 254.630 256.450,255.889 257.890,256.000 258.000 C 256.110 258.110,257.277 259.460,258.594 261.000 C 259.911 262.540,261.086 263.890,261.204 264.000 C 261.323 264.110,262.635 265.605,264.119 267.323 C 266.705 270.315,267.075 271.200,265.742 271.200 C 264.777 271.200,259.075 272.895,258.294 273.414 C 257.462 273.968,267.625 286.099,269.296 286.547 C 270.130 286.771,271.068 286.656,277.161 285.583 C 279.815 285.116,279.071 284.517,286.566 293.154 C 296.442 304.537,296.742 304.796,300.037 304.799 C 307.585 304.805,310.181 296.350,304.459 290.400 C 303.719 289.630,301.738 287.292,300.057 285.205 C 296.059 280.242,286.613 269.330,284.989 267.800 C 284.288 267.140,282.564 265.250,281.158 263.600 C 279.752 261.950,278.510 260.510,278.400 260.400 C 278.290 260.290,277.030 258.850,275.600 257.200 C 274.170 255.550,272.908 254.110,272.795 254.000 C 272.681 253.890,271.511 252.540,270.194 251.000 C 268.877 249.460,267.705 248.110,267.590 248.000 C 267.474 247.890,266.394 246.637,265.190 245.215 C 263.985 243.794,262.640 242.251,262.200 241.787 C 261.760 241.323,260.590 239.982,259.600 238.806 C 258.610 237.630,257.619 236.472,257.398 236.234 C 257.176 235.995,255.038 233.550,252.645 230.800 C 250.253 228.050,247.354 224.720,246.203 223.400 C 245.052 222.080,243.410 220.163,242.555 219.139 C 241.700 218.116,240.595 217.051,240.100 216.772 C 238.921 216.107,238.892 216.205,241.189 213.054 C 242.283 211.554,243.428 209.847,243.732 209.263 C 244.036 208.678,244.667 207.480,245.132 206.600 C 256.907 184.344,250.447 154.815,230.600 140.180 C 229.720 139.531,228.762 138.775,228.471 138.500 C 228.181 138.225,227.789 138.000,227.600 138.000 C 227.411 138.000,227.019 137.768,226.729 137.484 C 225.039 135.835,214.487 131.327,210.700 130.637 C 209.875 130.487,209.200 130.231,209.200 130.068 C 209.200 129.087,194.677 128.424,191.600 129.264 M203.123 145.211 C 204.155 145.438,205.900 145.811,207.000 146.041 C 231.604 151.189,243.302 182.133,228.778 203.648 C 213.163 226.778,177.229 224.288,164.605 199.200 C 163.451 196.907,162.850 195.262,161.100 189.600 C 160.529 187.753,160.529 176.592,161.100 174.800 C 161.345 174.030,161.759 172.590,162.018 171.600 C 166.519 154.461,186.576 141.585,203.123 145.211 M287.183 307.920 C 291.841 313.715,298.550 314.445,302.046 309.535 C 303.492 307.505,299.766 306.507,290.481 306.435 L 285.962 306.400 287.183 307.920 " stroke="none" fill="#545ccc" fill-rule="evenodd"></path><path id="path4" d="M94.687 86.011 C 91.352 86.853,88.912 88.913,87.355 92.200 L 86.408 94.200 86.406 176.200 C 86.404 264.730,86.276 259.961,88.747 263.081 C 91.296 266.301,93.179 266.990,99.600 267.054 L 105.000 267.108 99.688 266.811 C 92.386 266.402,89.603 264.872,87.582 260.157 C 86.609 257.888,86.324 96.453,87.287 93.628 C 89.725 86.486,98.142 84.465,113.967 87.222 C 115.158 87.430,116.821 87.600,117.661 87.600 C 118.501 87.600,119.956 87.773,120.894 87.984 C 121.832 88.195,123.680 88.569,125.000 88.816 C 146.220 92.784,163.814 101.174,176.943 113.585 C 180.934 117.358,187.893 125.767,189.370 128.600 C 189.812 129.450,189.996 129.584,189.998 129.062 C 190.000 128.440,188.766 126.281,188.019 125.600 C 187.899 125.490,187.360 124.770,186.821 124.000 C 183.832 119.724,177.709 113.320,172.800 109.337 C 172.030 108.712,171.068 107.901,170.661 107.535 C 167.491 104.675,155.532 97.839,149.700 95.553 C 146.472 94.287,144.657 93.536,143.905 93.153 C 143.523 92.959,142.859 92.800,142.429 92.800 C 141.999 92.800,141.549 92.641,141.429 92.446 C 141.308 92.251,140.713 91.996,140.105 91.879 C 139.497 91.762,138.370 91.481,137.600 91.255 C 126.880 88.113,114.859 86.273,102.200 85.836 C 98.900 85.722,95.519 85.800,94.687 86.011 M292.685 86.011 C 282.763 86.732,270.753 88.736,264.000 90.798 C 263.450 90.966,261.650 91.507,260.000 91.999 C 258.350 92.492,256.550 93.078,256.000 93.301 C 254.393 93.953,253.065 94.482,252.100 94.854 C 251.605 95.044,250.795 95.359,250.300 95.553 C 246.475 97.053,237.894 101.596,234.460 103.939 C 233.283 104.743,231.922 105.670,231.437 106.000 C 222.872 111.824,208.194 128.335,210.144 129.953 C 210.583 130.318,210.660 130.230,210.537 129.503 C 210.213 127.598,220.935 114.885,226.648 110.400 C 227.068 110.070,228.310 109.065,229.406 108.166 C 234.201 104.236,249.420 95.600,251.549 95.600 C 251.803 95.600,252.323 95.441,252.705 95.247 C 255.016 94.071,262.347 91.600,263.524 91.600 C 263.980 91.600,264.452 91.440,264.573 91.244 C 264.694 91.049,265.379 90.792,266.096 90.673 C 266.813 90.555,268.210 90.264,269.200 90.028 C 280.057 87.435,300.065 85.381,304.501 86.405 C 308.478 87.323,311.073 89.506,312.717 93.319 C 313.434 94.979,313.417 257.300,312.700 259.655 C 311.278 264.326,307.579 266.456,300.271 266.813 L 295.000 267.070 299.829 267.135 C 305.637 267.213,307.676 266.647,310.207 264.252 C 313.947 260.713,313.581 270.200,313.591 176.496 L 313.600 93.991 312.729 92.138 C 310.017 86.368,305.741 85.061,292.685 86.011 M59.132 122.942 C 55.155 124.183,51.977 127.973,51.752 131.742 L 51.629 133.800 52.023 131.800 C 53.255 125.540,57.344 122.800,65.452 122.800 L 69.585 122.800 69.702 191.900 C 69.833 269.417,69.533 262.158,72.884 268.800 C 77.607 278.161,86.079 283.215,97.400 283.423 L 103.400 283.534 97.510 283.186 C 94.270 282.995,91.267 282.650,90.836 282.419 C 90.405 282.189,89.753 282.000,89.387 282.000 C 84.710 282.000,74.937 273.110,72.239 266.400 C 70.324 261.638,70.400 264.736,70.400 191.623 C 70.400 129.312,70.341 122.863,69.767 122.643 C 68.696 122.232,60.686 122.457,59.132 122.942 M330.102 122.728 C 329.709 122.978,329.579 137.630,329.484 192.422 C 329.418 230.580,329.223 262.340,329.052 263.000 C 327.932 267.307,325.289 271.826,321.940 275.156 C 316.501 280.565,310.342 283.054,302.124 283.166 C 299.781 283.198,298.694 283.640,299.593 284.196 C 299.817 284.334,300.000 284.257,300.000 284.024 C 300.000 283.763,301.189 283.597,303.100 283.593 C 310.674 283.576,316.591 281.028,322.300 275.326 C 324.335 273.294,326.000 271.369,326.000 271.049 C 326.000 270.729,326.135 270.407,326.300 270.333 C 326.588 270.205,327.995 267.469,328.631 265.800 C 330.217 261.635,330.149 264.689,330.285 192.100 L 330.415 122.800 334.548 122.800 C 342.560 122.800,346.629 125.465,347.983 131.600 C 348.529 134.071,348.529 301.929,347.983 304.400 C 347.427 306.921,346.854 307.962,345.008 309.808 C 341.563 313.253,338.948 313.693,332.000 312.001 C 331.230 311.813,329.520 311.452,328.200 311.197 C 326.880 310.943,325.080 310.580,324.200 310.391 C 323.320 310.202,321.880 309.928,321.000 309.783 C 314.356 308.685,309.812 308.005,307.293 307.730 C 306.134 307.603,305.088 307.342,304.969 307.150 C 304.850 306.957,304.408 306.800,303.986 306.800 C 302.825 306.800,303.535 305.400,305.961 302.901 C 307.083 301.747,307.993 300.487,307.984 300.101 C 307.973 299.633,307.761 299.799,307.347 300.600 C 307.005 301.260,305.752 302.718,304.563 303.841 C 302.127 306.139,302.037 306.377,303.300 307.178 C 304.154 307.720,305.084 307.913,311.200 308.824 C 312.630 309.036,314.790 309.374,316.000 309.573 C 324.899 311.041,325.307 311.117,331.000 312.381 C 336.698 313.646,338.153 313.771,340.300 313.185 C 344.370 312.073,347.502 308.841,348.347 304.880 C 349.002 301.814,348.992 133.533,348.337 130.877 C 347.428 127.192,344.204 123.849,340.592 122.847 C 338.773 122.341,330.852 122.252,330.102 122.728 M166.922 138.629 L 165.800 139.658 167.100 138.754 C 167.815 138.257,168.400 137.793,168.400 137.725 C 168.400 137.409,167.958 137.680,166.922 138.629 M159.586 145.100 L 157.400 147.400 159.700 145.214 C 161.837 143.182,162.183 142.800,161.886 142.800 C 161.824 142.800,160.789 143.835,159.586 145.100 M237.000 145.600 C 238.083 146.700,239.060 147.600,239.170 147.600 C 239.280 147.600,238.483 146.700,237.400 145.600 C 236.317 144.500,235.340 143.600,235.230 143.600 C 235.120 143.600,235.917 144.500,237.000 145.600 M186.600 149.191 C 177.067 151.735,169.180 157.419,165.635 164.300 C 164.888 165.750,165.454 165.333,166.449 163.700 C 173.382 152.318,189.731 146.743,204.469 150.735 C 206.081 151.171,208.040 151.636,208.823 151.768 C 210.686 152.081,216.148 155.463,218.995 158.065 C 235.003 172.695,234.167 198.609,217.260 211.891 C 213.895 214.535,209.938 216.798,208.668 216.805 C 208.191 216.808,206.630 217.198,205.200 217.672 C 202.996 218.402,201.657 218.535,196.400 218.544 C 192.121 218.551,190.882 218.642,192.400 218.837 C 229.804 223.656,246.398 173.567,214.069 153.429 C 207.100 149.088,194.355 147.122,186.600 149.191 M152.895 153.023 C 152.403 153.774,152.000 154.523,152.000 154.687 C 152.000 154.851,152.466 154.300,153.036 153.462 C 153.605 152.624,154.008 151.875,153.931 151.798 C 153.854 151.720,153.388 152.272,152.895 153.023 M245.550 157.743 C 247.146 160.872,247.913 162.088,247.343 160.588 C 246.858 159.308,244.780 155.433,244.346 155.000 C 244.127 154.780,244.668 156.015,245.550 157.743 M150.214 157.435 C 149.841 158.004,149.605 158.538,149.689 158.622 C 149.773 158.707,150.158 158.241,150.544 157.588 C 151.406 156.128,151.148 156.009,150.214 157.435 M147.874 161.500 C 127.201 195.843,148.803 239.439,188.449 243.389 L 191.098 243.653 191.349 245.482 C 191.708 248.096,191.661 300.715,191.300 300.937 C 191.135 301.039,189.461 299.654,187.580 297.861 C 185.699 296.067,183.089 293.790,181.780 292.801 C 180.471 291.812,179.310 290.896,179.200 290.767 C 178.941 290.463,173.632 286.905,170.800 285.137 C 168.935 283.973,158.320 278.641,155.800 277.603 C 146.213 273.653,128.190 268.800,123.107 268.800 C 121.186 268.800,121.973 269.138,125.024 269.623 C 130.398 270.478,132.314 270.865,136.700 271.982 C 137.525 272.192,138.740 272.476,139.400 272.612 C 140.060 272.749,140.960 273.005,141.400 273.182 C 141.840 273.360,143.550 273.908,145.200 274.400 C 146.850 274.892,148.560 275.437,149.000 275.610 C 149.440 275.782,151.330 276.510,153.200 277.228 C 160.034 279.848,174.214 287.185,175.600 288.817 C 175.710 288.947,176.700 289.656,177.800 290.393 C 180.271 292.049,185.362 296.319,188.733 299.562 C 192.790 303.467,192.466 305.925,192.320 272.391 C 192.179 239.681,192.640 242.623,187.594 242.243 C 170.435 240.947,153.977 229.221,145.986 212.600 C 138.055 196.101,139.246 178.006,149.481 159.500 C 149.573 159.335,149.560 159.200,149.453 159.200 C 149.346 159.200,148.635 160.235,147.874 161.500 M249.206 166.633 C 249.209 167.055,249.395 167.670,249.618 168.000 C 249.915 168.438,249.952 168.276,249.756 167.400 C 249.427 165.929,249.198 165.610,249.206 166.633 M250.006 169.833 C 250.009 170.255,250.195 170.870,250.418 171.200 C 250.715 171.638,250.752 171.476,250.556 170.600 C 250.227 169.129,249.998 168.810,250.006 169.833 M162.446 171.467 C 162.421 171.724,162.284 172.264,162.141 172.667 C 161.940 173.236,161.994 173.297,162.379 172.942 C 162.652 172.691,162.789 172.151,162.684 171.742 C 162.579 171.334,162.472 171.210,162.446 171.467 M250.887 174.000 C 250.883 174.550,251.024 175.450,251.200 176.000 C 251.631 177.344,251.631 175.892,251.200 174.200 C 250.926 173.122,250.894 173.102,250.887 174.000 M161.649 174.800 C 161.616 175.130,161.489 175.850,161.367 176.400 C 161.175 177.264,161.207 177.303,161.599 176.688 C 161.848 176.297,161.975 175.577,161.881 175.088 C 161.786 174.600,161.682 174.470,161.649 174.800 M160.931 182.200 C 160.933 183.740,161.005 184.321,161.092 183.491 C 161.179 182.661,161.177 181.401,161.089 180.691 C 161.000 179.981,160.929 180.660,160.931 182.200 M161.438 188.600 C 161.770 190.584,162.002 190.904,161.994 189.367 C 161.991 188.725,161.804 187.930,161.579 187.600 C 161.286 187.170,161.246 187.454,161.438 188.600 M251.056 188.084 C 250.921 188.588,250.831 189.630,250.855 190.400 C 250.889 191.469,250.975 191.280,251.218 189.602 C 251.553 187.292,251.472 186.533,251.056 188.084 M162.244 192.200 C 162.573 193.671,162.802 193.990,162.794 192.967 C 162.791 192.545,162.605 191.930,162.382 191.600 C 162.085 191.162,162.048 191.324,162.244 192.200 M250.249 193.015 C 250.112 193.373,250.018 194.056,250.041 194.533 C 250.067 195.081,250.203 194.886,250.410 194.003 C 250.760 192.516,250.665 191.933,250.249 193.015 M249.088 197.683 C 248.972 198.187,248.683 199.218,248.445 199.973 C 248.208 200.728,248.160 201.178,248.337 200.973 C 248.822 200.414,249.762 197.228,249.515 196.981 C 249.396 196.863,249.205 197.179,249.088 197.683 M165.125 199.400 C 165.572 200.280,166.233 201.360,166.594 201.800 C 166.955 202.240,166.759 201.700,166.159 200.600 C 164.816 198.138,164.007 197.199,165.125 199.400 M168.096 204.195 C 168.593 204.962,169.144 205.592,169.320 205.595 C 169.497 205.598,169.160 204.970,168.573 204.200 C 167.200 202.400,166.932 202.397,168.096 204.195 M171.777 208.290 C 173.085 209.659,174.240 210.694,174.344 210.590 C 174.448 210.485,174.454 210.355,174.357 210.300 C 174.261 210.245,173.106 209.210,171.791 208.000 L 169.400 205.800 171.777 208.290 M178.000 213.341 C 178.000 213.608,181.690 215.643,181.863 215.471 C 181.940 215.393,181.103 214.839,180.002 214.240 C 178.901 213.640,178.000 213.236,178.000 213.341 M240.667 214.831 C 240.018 215.589,242.750 220.000,243.868 220.000 C 243.982 220.000,243.313 219.091,242.383 217.979 C 240.875 216.179,240.739 215.851,241.137 214.979 C 241.682 213.783,241.588 213.754,240.667 214.831 M182.648 215.981 C 183.155 216.450,187.955 218.084,188.374 217.930 C 188.567 217.858,187.279 217.318,185.511 216.728 C 183.743 216.138,182.454 215.802,182.648 215.981 M244.408 220.699 C 244.413 220.864,245.628 222.272,247.108 223.828 C 248.589 225.383,249.350 226.106,248.800 225.434 C 248.250 224.762,247.710 224.120,247.600 224.006 C 247.490 223.893,246.725 223.034,245.900 222.099 C 245.075 221.163,244.404 220.533,244.408 220.699 M250.000 227.325 C 250.000 227.394,250.585 227.979,251.300 228.625 L 252.600 229.800 251.425 228.500 C 250.330 227.288,250.000 227.016,250.000 227.325 M252.400 230.125 C 252.400 230.194,252.985 230.779,253.700 231.425 L 255.000 232.600 253.825 231.300 C 252.730 230.088,252.400 229.816,252.400 230.125 M254.800 232.925 C 254.800 232.994,255.373 233.579,256.074 234.225 L 257.349 235.400 256.374 234.122 C 255.547 233.037,254.800 232.469,254.800 232.925 M217.400 236.953 C 215.420 237.916,212.686 239.106,211.323 239.597 C 209.279 240.334,208.773 240.702,208.423 241.705 C 207.869 243.294,207.829 302.000,208.382 302.000 C 208.592 302.000,209.186 301.595,209.703 301.100 C 215.603 295.446,217.891 293.534,224.000 289.148 C 229.143 285.455,239.877 279.824,246.400 277.396 C 248.695 276.541,250.020 275.998,250.895 275.553 C 251.277 275.359,251.847 275.200,252.161 275.200 C 253.068 275.200,256.541 273.608,256.256 273.323 C 256.115 273.181,255.594 273.267,255.099 273.513 C 254.605 273.759,253.390 274.221,252.400 274.541 C 238.252 279.113,222.263 288.437,212.410 297.860 C 210.534 299.654,208.865 301.039,208.700 300.937 C 208.341 300.717,208.298 247.744,208.653 243.981 L 208.901 241.362 211.550 240.438 C 213.008 239.930,215.730 238.783,217.600 237.889 C 223.763 234.945,223.746 234.937,232.000 244.406 C 235.190 248.065,242.120 256.023,247.400 262.089 C 252.680 268.155,257.056 272.878,257.125 272.584 C 257.229 272.135,250.816 264.431,244.638 257.585 C 243.737 256.586,240.390 252.728,237.200 249.012 C 223.696 233.279,224.255 233.620,217.400 236.953 M258.000 236.525 C 258.000 236.594,258.585 237.179,259.300 237.825 L 260.600 239.000 259.425 237.700 C 258.330 236.488,258.000 236.216,258.000 236.525 M261.429 240.438 C 262.073 241.229,262.681 241.808,262.779 241.725 C 262.878 241.642,262.351 240.995,261.609 240.287 L 260.258 239.000 261.429 240.438 M263.200 242.236 C 263.200 242.377,264.318 243.777,265.684 245.346 C 267.051 246.916,268.221 248.275,268.284 248.367 C 268.348 248.458,268.472 248.458,268.560 248.367 C 268.647 248.275,267.477 246.800,265.960 245.089 C 264.442 243.378,263.200 242.094,263.200 242.236 M270.549 250.916 C 271.620 252.172,272.582 253.200,272.686 253.200 C 272.954 253.200,269.623 249.261,269.064 248.917 C 268.809 248.761,269.477 249.660,270.549 250.916 M275.845 257.000 C 278.209 259.675,279.322 260.616,277.383 258.300 C 275.123 255.599,274.017 254.400,273.786 254.400 C 273.655 254.400,274.582 255.570,275.845 257.000 M278.800 260.236 C 278.800 260.377,279.918 261.777,281.284 263.346 C 282.651 264.916,283.821 266.275,283.884 266.367 C 283.948 266.458,284.072 266.458,284.160 266.367 C 284.247 266.275,283.077 264.800,281.560 263.089 C 280.042 261.378,278.800 260.094,278.800 260.236 M284.749 267.323 C 285.355 268.070,287.728 268.155,292.400 267.595 C 294.613 267.330,294.286 267.291,290.200 267.335 C 287.560 267.363,285.130 267.220,284.800 267.017 C 284.282 266.697,284.275 266.739,284.749 267.323 M108.600 267.638 C 110.580 267.820,114.226 268.185,116.702 268.450 C 119.177 268.714,121.308 268.826,121.435 268.698 C 121.563 268.570,120.617 268.357,119.334 268.224 C 118.050 268.092,115.795 267.807,114.323 267.591 C 112.851 267.376,110.151 267.224,108.323 267.254 L 105.000 267.308 108.600 267.638 M104.600 283.846 C 105.040 283.922,107.650 284.166,110.400 284.388 C 118.838 285.072,128.785 286.713,134.400 288.347 C 136.525 288.966,138.490 289.517,139.600 289.806 C 140.150 289.950,140.960 290.223,141.400 290.413 C 141.840 290.604,143.010 291.021,144.000 291.341 C 154.056 294.591,166.950 301.943,174.135 308.525 L 175.800 310.050 174.400 309.847 C 173.630 309.736,172.100 309.445,171.000 309.201 C 160.050 306.773,143.743 305.218,129.200 305.214 C 113.424 305.210,93.133 307.100,78.300 309.957 C 77.035 310.201,75.055 310.580,73.900 310.799 C 72.745 311.018,70.990 311.379,70.000 311.600 C 69.010 311.821,67.300 312.166,66.200 312.366 C 65.100 312.566,63.729 312.849,63.154 312.995 C 58.880 314.077,52.892 309.405,52.048 304.329 C 51.703 302.256,51.692 302.243,51.647 303.821 C 51.501 308.877,57.536 314.010,63.000 313.479 C 64.100 313.372,66.710 312.900,68.800 312.430 C 74.393 311.172,80.557 310.061,89.000 308.789 C 117.121 304.553,147.459 304.857,170.100 309.602 C 177.698 311.194,177.817 311.187,175.800 309.272 C 167.711 301.590,152.403 293.022,140.600 289.569 C 129.029 286.183,113.949 283.528,107.000 283.652 C 105.240 283.683,104.160 283.771,104.600 283.846 M302.163 287.300 C 303.447 288.785,304.582 290.000,304.686 290.000 C 304.970 290.000,301.824 286.316,300.758 285.400 C 300.246 284.960,300.878 285.815,302.163 287.300 M263.400 288.446 C 261.860 288.885,260.060 289.398,259.400 289.586 C 257.818 290.038,253.758 291.512,252.000 292.275 C 251.230 292.608,250.240 293.020,249.800 293.189 C 242.578 295.960,231.014 303.113,225.000 308.528 C 222.189 311.059,222.615 311.149,230.000 309.585 C 233.797 308.780,237.697 308.163,245.200 307.179 C 251.770 306.317,260.380 305.881,272.210 305.812 C 287.240 305.725,286.742 305.898,283.274 301.972 C 281.803 300.308,279.610 297.802,278.400 296.402 C 277.190 295.002,274.960 292.449,273.444 290.728 L 270.689 287.600 268.444 287.624 C 267.210 287.637,264.940 288.007,263.400 288.446 M276.057 295.069 C 279.436 298.956,282.799 302.826,283.531 303.669 L 284.862 305.200 273.131 305.208 C 259.573 305.218,247.627 306.036,238.000 307.613 C 236.570 307.848,234.410 308.202,233.200 308.401 C 231.990 308.600,230.100 308.961,229.000 309.203 C 227.900 309.446,226.370 309.739,225.600 309.855 L 224.200 310.065 225.600 308.724 C 230.432 304.097,242.906 296.424,250.200 293.592 C 250.640 293.421,251.630 293.006,252.400 292.670 C 253.170 292.333,254.700 291.766,255.800 291.409 C 256.900 291.052,258.160 290.609,258.600 290.425 C 259.040 290.242,260.210 289.870,261.200 289.599 C 262.190 289.329,263.450 288.956,264.000 288.772 C 269.040 287.084,269.183 287.159,276.057 295.069 M306.110 291.901 C 306.459 292.286,307.026 293.141,307.370 293.801 C 307.714 294.460,307.996 294.772,307.998 294.494 C 308.001 293.813,306.292 291.211,305.838 291.205 C 305.639 291.202,305.761 291.515,306.110 291.901 M308.109 297.200 C 308.109 298.190,308.187 298.595,308.282 298.100 C 308.378 297.605,308.378 296.795,308.282 296.300 C 308.187 295.805,308.109 296.210,308.109 297.200 " stroke="none" fill="#b4c4fb" fill-rule="evenodd"></path></g></svg>