<svg id="svg" version="1.1" xmlns="http://www.w3.org/2000/svg" xmlns:xlink="http://www.w3.org/1999/xlink" width="400" height="400" viewBox="0, 0, 400,400"><g id="svgg"><path id="path0" d="M70.586 125.832 C 70.318 125.947,70.274 126.893,70.461 128.505 C 70.621 129.877,70.879 132.485,71.035 134.300 L 71.319 137.600 58.459 137.600 L 45.600 137.600 45.600 144.598 L 45.600 151.595 77.500 151.698 L 109.400 151.800 109.400 157.800 L 109.400 163.800 79.400 164.000 L 49.400 164.200 49.400 170.800 L 49.400 177.400 79.400 177.600 L 109.400 177.800 109.400 183.400 L 109.400 189.000 79.400 189.200 L 49.400 189.400 49.290 196.097 L 49.181 202.795 79.290 202.897 L 109.400 203.000 109.509 209.851 C 109.618 216.680,109.616 216.703,108.709 216.945 C 108.209 217.079,93.805 217.192,76.700 217.195 L 45.600 217.200 45.600 224.000 L 45.600 230.800 75.176 230.800 C 95.293 230.800,104.835 230.934,105.011 231.218 C 105.553 232.095,100.505 237.808,96.491 240.858 C 95.231 241.815,94.110 242.710,94.000 242.847 C 91.668 245.753,74.246 253.909,66.600 255.674 C 60.778 257.019,57.003 257.622,52.427 257.939 L 48.655 258.200 47.086 263.200 C 46.223 265.950,45.374 268.560,45.200 269.000 C 45.027 269.440,44.618 270.700,44.292 271.800 L 43.699 273.800 45.550 273.937 C 49.293 274.215,62.863 271.930,71.600 269.550 C 89.682 264.624,105.337 255.413,115.066 243.974 C 116.737 242.008,118.203 240.400,118.322 240.400 C 118.440 240.400,120.622 242.530,123.169 245.134 C 135.749 257.994,154.738 268.054,173.400 271.747 C 174.060 271.877,175.770 272.237,177.200 272.546 C 178.630 272.855,181.060 273.232,182.601 273.384 L 185.402 273.661 187.972 269.131 C 189.385 266.639,191.230 263.457,192.071 262.059 C 194.053 258.766,194.221 259.004,189.500 258.441 C 187.245 258.172,184.749 257.782,183.954 257.576 C 183.158 257.369,182.091 257.200,181.582 257.200 C 181.073 257.200,180.104 257.034,179.428 256.831 C 178.753 256.629,176.490 256.065,174.400 255.578 C 166.937 253.841,157.847 250.488,151.805 247.243 C 148.126 245.267,143.313 242.359,142.470 241.602 C 142.101 241.271,141.079 240.465,140.200 239.811 C 137.647 237.914,131.566 231.901,131.723 231.430 C 131.823 231.131,140.936 230.939,161.633 230.800 L 191.400 230.600 191.510 223.902 L 191.619 217.205 159.510 217.102 L 127.400 217.000 127.400 210.000 L 127.400 203.000 157.400 202.800 L 187.400 202.600 187.400 196.000 L 187.400 189.400 157.300 189.297 L 127.200 189.195 127.200 183.400 L 127.200 177.605 157.300 177.503 L 187.400 177.400 187.400 170.800 L 187.400 164.200 157.400 164.000 L 127.400 163.800 127.400 157.800 L 127.400 151.800 159.400 151.600 L 191.400 151.400 191.400 144.600 L 191.400 137.800 178.454 137.694 L 165.509 137.589 165.755 136.494 C 165.967 135.551,166.643 129.887,166.913 126.800 L 167.000 125.800 158.203 125.800 L 149.407 125.800 148.600 131.600 L 147.793 137.400 118.622 137.400 L 89.451 137.400 89.173 136.200 C 89.021 135.540,88.676 133.380,88.406 131.400 C 88.137 129.420,87.786 127.350,87.625 126.800 L 87.334 125.800 79.167 125.727 C 74.675 125.688,70.814 125.735,70.586 125.832 M213.398 129.293 C 213.276 129.792,213.227 161.070,213.288 198.800 L 213.400 267.400 214.345 268.910 C 214.865 269.740,216.125 270.910,217.145 271.510 L 219.000 272.600 286.800 272.600 L 354.600 272.600 354.704 204.800 C 354.819 130.500,354.914 133.620,352.443 131.149 C 349.741 128.447,354.494 128.623,280.709 128.499 L 213.619 128.386 213.398 129.293 M337.757 143.433 C 338.203 144.594,338.034 257.188,337.586 258.026 C 337.073 258.985,231.435 259.275,230.480 258.320 C 229.956 257.796,229.745 143.589,230.267 143.067 C 230.924 142.409,337.504 142.772,337.757 143.433 M297.200 157.112 C 297.200 161.189,297.050 163.190,296.720 163.520 C 296.356 163.884,289.369 164.000,267.720 164.000 L 239.200 164.000 239.200 170.600 L 239.200 177.200 251.613 177.200 C 262.530 177.200,264.054 177.276,264.266 177.829 C 264.647 178.820,262.793 191.304,261.242 198.200 C 261.044 199.080,260.759 200.430,260.607 201.200 C 260.456 201.970,260.189 203.050,260.013 203.600 C 259.837 204.150,259.498 205.320,259.261 206.200 C 258.384 209.449,257.110 213.823,256.815 214.600 C 256.648 215.040,256.294 216.120,256.029 217.000 C 255.764 217.880,255.395 218.960,255.209 219.400 C 255.023 219.840,253.933 222.630,252.788 225.600 C 250.705 230.999,245.505 241.886,243.999 244.002 C 243.559 244.619,243.200 245.243,243.200 245.390 C 243.200 245.536,242.660 246.441,242.000 247.400 C 240.149 250.090,239.887 250.000,249.573 250.000 L 258.346 250.000 259.126 248.900 C 262.644 243.941,267.645 232.773,271.194 221.950 C 273.776 214.076,273.845 213.856,274.619 211.000 C 275.974 206.002,276.256 204.863,277.223 200.500 C 278.896 192.952,279.677 188.477,280.382 182.400 C 280.573 180.750,280.855 178.905,281.008 178.300 L 281.287 177.200 289.001 177.200 C 295.666 177.200,296.747 177.286,296.957 177.833 C 297.368 178.902,297.226 221.584,296.796 226.231 C 296.364 230.905,295.817 234.422,295.119 237.000 C 294.323 239.942,292.316 245.782,291.554 247.375 C 290.241 250.119,289.881 250.000,299.500 249.997 L 308.200 249.994 308.700 248.917 C 308.975 248.325,309.200 247.604,309.200 247.315 C 309.200 247.026,309.370 246.477,309.577 246.095 C 309.971 245.368,311.237 240.165,311.935 236.400 C 313.241 229.362,313.349 227.120,313.572 202.600 L 313.800 177.400 321.700 177.292 L 329.600 177.183 329.600 170.592 L 329.600 164.000 322.049 164.000 C 312.920 164.000,313.655 164.587,313.511 157.173 L 313.400 151.400 305.300 151.292 L 297.200 151.183 297.200 157.112 " stroke="none" fill="#080704" fill-rule="evenodd"></path><path id="path1" d="M47.500 0.294 C 45.795 0.371,44.400 0.606,44.400 0.817 C 44.400 1.028,43.601 1.200,42.624 1.200 C 41.647 1.200,40.736 1.380,40.600 1.600 C 40.464 1.820,39.744 2.000,39.000 2.000 C 38.256 2.000,37.536 2.180,37.400 2.400 C 37.264 2.620,36.623 2.800,35.976 2.800 C 35.329 2.800,34.800 2.980,34.800 3.200 C 34.800 3.420,34.440 3.600,34.000 3.600 C 33.560 3.600,33.200 3.780,33.200 4.000 C 33.200 4.220,32.761 4.400,32.224 4.400 C 31.687 4.400,31.136 4.580,31.000 4.800 C 30.864 5.020,30.403 5.200,29.976 5.200 C 29.549 5.200,29.200 5.346,29.200 5.525 C 29.200 5.704,28.570 6.098,27.800 6.400 C 27.030 6.702,26.400 7.083,26.400 7.246 C 26.400 7.409,25.680 7.860,24.800 8.248 C 23.920 8.636,23.200 9.099,23.200 9.277 C 23.200 9.455,22.975 9.600,22.700 9.600 C 22.267 9.601,21.616 10.060,19.343 11.968 C 19.091 12.179,18.821 12.307,18.743 12.252 C 18.664 12.197,17.122 13.648,15.316 15.476 C 13.510 17.304,12.122 18.800,12.232 18.800 C 12.342 18.800,12.241 19.025,12.008 19.300 C 10.091 21.563,9.462 22.467,8.533 24.300 C 7.948 25.455,7.352 26.400,7.209 26.400 C 7.066 26.400,6.702 27.030,6.400 27.800 C 6.098 28.570,5.704 29.200,5.525 29.200 C 5.346 29.200,5.200 29.549,5.200 29.976 C 5.200 30.403,5.020 30.864,4.800 31.000 C 4.580 31.136,4.400 31.687,4.400 32.224 C 4.400 32.761,4.220 33.200,4.000 33.200 C 3.780 33.200,3.600 33.560,3.600 34.000 C 3.600 34.440,3.420 34.800,3.200 34.800 C 2.980 34.800,2.800 35.329,2.800 35.976 C 2.800 36.623,2.620 37.264,2.400 37.400 C 2.180 37.536,2.000 38.256,2.000 39.000 C 2.000 39.744,1.820 40.464,1.600 40.600 C 1.380 40.736,1.200 41.632,1.200 42.590 C 1.200 43.629,0.998 44.401,0.700 44.500 C -0.036 44.745,-0.036 355.255,0.700 355.500 C 0.998 355.599,1.200 356.371,1.200 357.410 C 1.200 358.368,1.380 359.264,1.600 359.400 C 1.820 359.536,2.000 360.256,2.000 361.000 C 2.000 361.744,2.180 362.464,2.400 362.600 C 2.620 362.736,2.800 363.377,2.800 364.024 C 2.800 364.671,2.980 365.200,3.200 365.200 C 3.420 365.200,3.600 365.560,3.600 366.000 C 3.600 366.440,3.780 366.800,4.000 366.800 C 4.220 366.800,4.400 367.135,4.400 367.544 C 4.400 368.380,6.704 373.089,7.547 373.976 C 7.848 374.292,8.271 375.057,8.486 375.676 C 8.702 376.294,9.041 376.800,9.239 376.800 C 9.438 376.800,9.600 377.025,9.600 377.300 C 9.601 377.575,10.051 378.323,10.600 378.962 C 11.150 379.601,11.600 380.265,11.600 380.437 C 11.600 380.844,19.156 388.400,19.563 388.400 C 19.735 388.400,20.399 388.851,21.038 389.401 C 21.677 389.952,23.145 390.881,24.300 391.467 C 25.455 392.052,26.400 392.648,26.400 392.791 C 26.400 392.934,27.030 393.298,27.800 393.600 C 28.570 393.902,29.200 394.296,29.200 394.475 C 29.200 394.654,29.549 394.800,29.976 394.800 C 30.403 394.800,30.864 394.980,31.000 395.200 C 31.136 395.420,31.687 395.600,32.224 395.600 C 32.761 395.600,33.200 395.780,33.200 396.000 C 33.200 396.220,33.560 396.400,34.000 396.400 C 34.440 396.400,34.800 396.580,34.800 396.800 C 34.800 397.020,35.329 397.200,35.976 397.200 C 36.623 397.200,37.264 397.380,37.400 397.600 C 37.536 397.820,38.256 398.000,39.000 398.000 C 39.744 398.000,40.464 398.180,40.600 398.400 C 40.736 398.620,41.632 398.800,42.590 398.800 C 43.629 398.800,44.401 399.002,44.500 399.300 C 44.633 399.699,76.089 399.800,200.000 399.800 C 323.911 399.800,355.367 399.699,355.500 399.300 C 355.599 399.002,356.371 398.800,357.410 398.800 C 358.368 398.800,359.264 398.620,359.400 398.400 C 359.536 398.180,360.256 398.000,361.000 398.000 C 361.744 398.000,362.464 397.820,362.600 397.600 C 362.736 397.380,363.377 397.200,364.024 397.200 C 364.671 397.200,365.200 397.020,365.200 396.800 C 365.200 396.580,365.560 396.400,366.000 396.400 C 366.440 396.400,366.800 396.220,366.800 396.000 C 366.800 395.780,367.239 395.600,367.776 395.600 C 368.313 395.600,368.864 395.420,369.000 395.200 C 369.136 394.980,369.597 394.800,370.024 394.800 C 370.451 394.800,370.800 394.654,370.800 394.475 C 370.800 394.296,371.430 393.902,372.200 393.600 C 372.970 393.298,373.600 392.904,373.600 392.725 C 373.600 392.546,373.855 392.400,374.167 392.400 C 374.478 392.400,374.793 392.265,374.867 392.100 C 374.940 391.935,375.641 391.475,376.424 391.078 C 377.208 390.681,378.361 389.916,378.987 389.378 C 379.612 388.840,380.274 388.400,380.457 388.400 C 380.891 388.400,388.400 380.891,388.400 380.457 C 388.400 380.274,388.850 379.601,389.400 378.962 C 389.949 378.323,390.399 377.575,390.400 377.300 C 390.400 377.025,390.577 376.800,390.792 376.800 C 391.008 376.800,391.298 376.350,391.436 375.800 C 391.574 375.250,391.847 374.800,392.043 374.800 C 392.240 374.800,392.400 374.530,392.400 374.200 C 392.400 373.870,392.546 373.600,392.725 373.600 C 392.904 373.600,393.298 372.970,393.600 372.200 C 393.902 371.430,394.296 370.800,394.475 370.800 C 394.654 370.800,394.800 370.451,394.800 370.024 C 394.800 369.597,394.980 369.136,395.200 369.000 C 395.420 368.864,395.600 368.313,395.600 367.776 C 395.600 367.239,395.780 366.800,396.000 366.800 C 396.220 366.800,396.400 366.440,396.400 366.000 C 396.400 365.560,396.580 365.200,396.800 365.200 C 397.020 365.200,397.200 364.671,397.200 364.024 C 397.200 363.377,397.380 362.736,397.600 362.600 C 397.820 362.464,398.000 361.744,398.000 361.000 C 398.000 360.256,398.180 359.536,398.400 359.400 C 398.620 359.264,398.800 358.368,398.800 357.410 C 398.800 356.371,399.002 355.599,399.300 355.500 C 400.036 355.255,400.036 44.745,399.300 44.500 C 399.002 44.401,398.800 43.629,398.800 42.590 C 398.800 41.632,398.620 40.736,398.400 40.600 C 398.180 40.464,398.000 39.744,398.000 39.000 C 398.000 38.256,397.820 37.536,397.600 37.400 C 397.380 37.264,397.200 36.623,397.200 35.976 C 397.200 35.329,397.020 34.800,396.800 34.800 C 396.580 34.800,396.400 34.440,396.400 34.000 C 396.400 33.560,396.220 33.200,396.000 33.200 C 395.780 33.200,395.600 32.761,395.600 32.224 C 395.600 31.687,395.420 31.136,395.200 31.000 C 394.980 30.864,394.800 30.403,394.800 29.976 C 394.800 29.549,394.654 29.200,394.475 29.200 C 394.296 29.200,393.902 28.570,393.600 27.800 C 393.298 27.030,392.934 26.400,392.791 26.400 C 392.648 26.400,392.052 25.455,391.467 24.300 C 390.881 23.145,389.952 21.677,389.401 21.038 C 388.851 20.399,388.400 19.735,388.400 19.563 C 388.400 19.156,380.844 11.600,380.437 11.600 C 380.265 11.600,379.601 11.150,378.962 10.600 C 378.323 10.051,377.575 9.601,377.300 9.600 C 377.025 9.600,376.800 9.438,376.800 9.239 C 376.800 9.041,376.294 8.702,375.676 8.486 C 375.057 8.271,374.292 7.848,373.976 7.547 C 373.089 6.704,368.380 4.400,367.544 4.400 C 367.135 4.400,366.800 4.220,366.800 4.000 C 366.800 3.780,366.440 3.600,366.000 3.600 C 365.560 3.600,365.200 3.420,365.200 3.200 C 365.200 2.980,364.671 2.800,364.024 2.800 C 363.377 2.800,362.736 2.620,362.600 2.400 C 362.464 2.180,361.744 2.000,361.000 2.000 C 360.256 2.000,359.536 1.820,359.400 1.600 C 359.264 1.380,358.368 1.200,357.410 1.200 C 356.371 1.200,355.599 0.998,355.500 0.700 C 355.346 0.237,57.454 -0.156,47.500 0.294 M88.166 125.300 C 88.311 125.818,88.799 128.745,89.631 134.100 L 90.113 137.200 118.414 137.200 C 144.992 137.200,146.732 137.157,146.999 136.500 C 147.156 136.115,147.585 133.370,147.954 130.400 L 148.623 125.000 157.856 124.893 C 168.558 124.768,168.013 124.561,167.580 128.600 C 167.415 130.140,167.146 132.702,166.983 134.294 L 166.686 137.189 179.443 137.294 L 192.200 137.400 192.200 144.800 L 192.200 152.200 159.900 152.302 L 127.600 152.405 127.600 157.800 L 127.600 163.195 157.900 163.297 L 188.200 163.400 188.310 170.347 C 188.385 175.132,188.277 177.467,187.961 177.847 C 187.578 178.309,182.545 178.400,157.551 178.400 L 127.600 178.400 127.600 183.400 L 127.600 188.400 157.520 188.400 C 180.258 188.400,187.555 188.515,187.920 188.880 C 188.726 189.686,188.585 203.043,187.767 203.357 C 187.419 203.491,173.739 203.600,157.367 203.600 L 127.600 203.600 127.600 210.000 L 127.600 216.400 160.009 216.400 L 192.418 216.400 192.309 223.900 L 192.200 231.400 162.465 231.600 L 132.729 231.800 134.465 233.644 C 135.419 234.658,137.370 236.458,138.800 237.644 C 140.230 238.830,141.490 239.902,141.600 240.026 C 145.154 244.049,162.555 251.893,174.300 254.767 C 175.125 254.969,176.520 255.315,177.400 255.537 C 181.041 256.455,184.163 256.952,190.111 257.561 C 192.042 257.759,193.877 258.132,194.188 258.390 C 194.781 258.882,194.844 258.704,192.738 262.445 C 192.442 262.970,192.110 263.490,192.000 263.600 C 191.890 263.710,191.419 264.520,190.954 265.400 C 190.488 266.280,189.145 268.665,187.969 270.700 L 185.832 274.400 184.122 274.400 C 183.181 274.400,181.644 274.227,180.706 274.016 C 179.768 273.805,177.920 273.428,176.600 273.177 C 165.806 271.131,156.280 267.873,146.407 262.854 C 143.653 261.454,140.996 260.104,140.503 259.854 C 140.010 259.604,139.605 259.265,139.603 259.100 C 139.601 258.935,139.410 258.800,139.178 258.800 C 137.696 258.800,124.303 248.196,121.874 245.099 C 118.548 240.857,118.509 240.843,116.751 243.200 C 115.609 244.730,110.574 249.890,108.359 251.800 C 105.057 254.647,98.003 259.600,97.251 259.600 C 97.040 259.600,96.807 259.735,96.733 259.900 C 96.608 260.181,95.653 260.718,91.200 263.007 C 79.962 268.786,66.254 272.470,47.259 274.816 C 42.293 275.429,42.099 275.155,43.998 270.200 C 44.166 269.760,44.887 267.510,45.600 265.200 C 46.313 262.890,47.045 260.640,47.227 260.200 C 47.410 259.760,47.614 259.049,47.681 258.620 C 47.810 257.795,52.328 256.856,56.354 256.817 C 57.318 256.808,58.758 256.636,59.554 256.435 C 60.349 256.234,61.990 255.866,63.200 255.618 C 73.877 253.427,89.189 246.467,94.873 241.221 C 95.243 240.880,96.503 239.797,97.673 238.815 C 98.843 237.834,100.859 235.854,102.154 234.415 L 104.507 231.800 74.754 231.600 L 45.000 231.400 45.000 224.000 L 45.000 216.600 77.000 216.400 L 109.000 216.200 109.110 209.903 L 109.220 203.605 78.910 203.503 L 48.600 203.400 48.600 196.000 L 48.600 188.600 78.800 188.400 L 109.000 188.200 109.112 183.303 L 109.225 178.405 78.912 178.303 L 48.600 178.200 48.600 170.800 L 48.600 163.400 78.900 163.297 L 109.200 163.195 109.200 157.800 L 109.200 152.405 77.100 152.302 L 45.000 152.200 45.000 144.800 L 45.000 137.400 57.942 137.294 L 70.884 137.189 70.608 136.094 C 70.456 135.492,70.178 133.560,69.989 131.800 C 69.800 130.040,69.524 128.021,69.375 127.312 C 68.836 124.745,68.628 124.800,78.800 124.800 C 85.838 124.800,88.058 124.919,88.166 125.300 M349.400 128.400 C 349.536 128.620,349.961 128.800,350.345 128.800 C 351.538 128.800,354.019 131.447,354.832 133.588 C 355.786 136.097,356.067 272.173,355.120 273.120 C 354.411 273.829,221.299 273.803,218.996 273.094 C 216.118 272.208,214.513 270.916,213.419 268.604 L 212.400 266.450 212.400 197.225 L 212.400 128.000 280.776 128.000 C 325.929 128.000,349.237 128.136,349.400 128.400 M230.800 200.600 L 230.800 257.600 284.000 257.600 L 337.200 257.600 337.200 200.600 L 337.200 143.600 284.000 143.600 L 230.800 143.600 230.800 200.600 M313.767 150.643 C 314.306 150.850,314.400 151.797,314.400 157.043 L 314.400 163.200 322.357 163.200 C 331.776 163.200,330.800 162.327,330.800 170.753 C 330.800 178.666,331.596 178.000,322.140 178.000 L 314.440 178.000 314.252 202.700 C 314.150 216.285,313.891 228.750,313.679 230.400 C 313.108 234.830,312.003 240.615,311.197 243.400 C 310.943 244.280,310.638 245.497,310.521 246.105 C 310.404 246.713,310.149 247.308,309.954 247.429 C 309.759 247.549,309.594 248.042,309.587 248.524 C 309.555 250.742,309.291 250.800,299.280 250.800 C 288.936 250.800,289.072 250.842,290.406 248.065 C 290.898 247.039,291.480 245.750,291.697 245.200 C 291.915 244.650,292.252 243.887,292.447 243.505 C 292.641 243.123,292.800 242.536,292.800 242.200 C 292.800 241.864,292.962 241.277,293.161 240.895 C 293.360 240.513,293.732 239.390,293.988 238.400 C 294.244 237.410,294.622 236.047,294.827 235.372 C 295.032 234.696,295.200 233.583,295.200 232.898 C 295.200 232.213,295.377 231.185,295.594 230.615 C 295.838 229.974,295.995 219.757,296.006 203.889 L 296.024 178.200 288.889 178.091 L 281.755 177.983 281.251 182.291 C 280.975 184.661,280.660 186.960,280.553 187.400 C 280.446 187.840,280.186 189.280,279.975 190.600 C 279.284 194.933,278.517 198.727,277.589 202.400 C 277.339 203.390,277.040 204.876,276.925 205.703 C 276.810 206.529,276.555 207.305,276.358 207.426 C 276.161 207.548,276.000 208.166,276.000 208.800 C 276.000 209.434,275.820 210.064,275.600 210.200 C 275.380 210.336,275.200 210.878,275.200 211.405 C 275.200 211.931,275.040 212.776,274.844 213.281 C 274.648 213.787,274.086 215.550,273.596 217.200 C 273.106 218.850,272.556 220.560,272.374 221.000 C 272.192 221.440,271.482 223.473,270.797 225.518 C 270.112 227.563,269.013 230.533,268.355 232.118 C 267.698 233.703,266.861 235.720,266.497 236.599 C 265.167 239.808,261.035 247.574,259.526 249.700 L 258.746 250.800 249.173 250.800 C 238.386 250.800,238.668 250.898,240.752 247.870 C 241.385 246.949,242.268 245.547,242.714 244.753 C 243.160 243.959,243.767 242.880,244.062 242.355 C 244.358 241.830,244.701 241.310,244.824 241.200 C 245.103 240.950,250.000 230.863,250.000 230.537 C 250.000 230.407,250.470 229.198,251.045 227.850 C 251.619 226.503,252.249 224.995,252.445 224.500 C 252.640 224.005,252.968 223.195,253.174 222.700 C 253.379 222.205,253.776 221.080,254.055 220.200 C 254.335 219.320,254.707 218.429,254.882 218.220 C 255.057 218.011,255.200 217.437,255.200 216.944 C 255.200 216.451,255.380 215.936,255.600 215.800 C 255.820 215.664,256.000 215.201,256.000 214.771 C 256.000 214.341,256.162 213.677,256.361 213.295 C 256.560 212.913,256.938 211.790,257.203 210.800 C 257.467 209.810,257.845 208.587,258.042 208.081 C 258.239 207.576,258.400 206.731,258.400 206.205 C 258.400 205.678,258.560 205.148,258.756 205.027 C 258.951 204.906,259.212 204.221,259.334 203.504 C 259.456 202.787,259.746 201.345,259.978 200.300 C 260.210 199.255,260.590 197.545,260.821 196.500 C 262.096 190.748,263.729 178.938,263.337 178.300 C 263.236 178.135,257.799 178.000,251.256 178.000 C 242.537 178.000,239.232 177.872,238.880 177.520 C 238.373 177.013,238.183 165.851,238.651 164.103 L 238.892 163.205 267.489 163.103 L 296.086 163.000 296.024 157.509 C 295.936 149.782,295.158 150.400,304.981 150.400 C 309.466 150.400,313.419 150.509,313.767 150.643 " stroke="none" fill="#fbd404" fill-rule="evenodd"></path><path id="path2" d="M246.700 128.300 C 265.235 128.357,295.565 128.357,314.100 128.300 C 332.635 128.242,317.470 128.195,280.400 128.195 C 243.330 128.195,228.165 128.242,246.700 128.300 M212.595 196.800 C 212.595 234.090,212.642 249.345,212.700 230.700 C 212.757 212.055,212.757 181.545,212.700 162.900 C 212.642 144.255,212.595 159.510,212.595 196.800 M45.542 152.102 C 45.709 152.269,60.145 152.359,77.622 152.302 L 109.400 152.200 77.320 152.000 C 59.676 151.890,45.376 151.936,45.542 152.102 M127.462 152.300 C 127.294 152.572,150.272 152.569,180.000 152.293 C 186.270 152.235,177.056 152.145,159.524 152.094 C 141.992 152.042,127.564 152.135,127.462 152.300 M109.355 157.800 C 109.356 160.660,109.420 161.778,109.497 160.283 C 109.574 158.789,109.574 156.449,109.496 155.083 C 109.418 153.718,109.355 154.940,109.355 157.800 M127.353 157.800 C 127.353 160.440,127.418 161.468,127.497 160.084 C 127.575 158.701,127.574 156.541,127.495 155.284 C 127.416 154.028,127.352 155.160,127.353 157.800 M127.542 163.303 C 127.709 163.469,141.245 163.559,157.623 163.503 L 187.400 163.400 157.320 163.200 C 140.776 163.090,127.376 163.136,127.542 163.303 M267.800 163.200 L 239.000 163.408 267.676 163.504 C 286.467 163.567,296.438 163.462,296.600 163.200 C 296.736 162.980,296.792 162.843,296.724 162.896 C 296.656 162.949,283.640 163.086,267.800 163.200 M49.062 163.500 C 48.893 163.772,70.469 163.769,98.600 163.493 C 104.540 163.434,95.866 163.345,79.324 163.293 C 62.782 163.242,49.164 163.335,49.062 163.500 M322.000 163.587 L 329.800 163.800 329.800 170.662 C 329.800 174.436,329.935 177.441,330.100 177.339 C 330.626 177.013,330.458 164.218,329.920 163.680 C 329.574 163.334,327.315 163.224,321.820 163.287 L 314.200 163.374 322.000 163.587 M187.764 170.600 C 187.763 174.340,187.823 175.924,187.897 174.120 C 187.971 172.315,187.972 169.255,187.898 167.320 C 187.825 165.384,187.764 166.860,187.764 170.600 M238.964 170.600 C 238.963 174.340,239.023 175.924,239.097 174.120 C 239.171 172.315,239.172 169.255,239.098 167.320 C 239.025 165.384,238.964 166.860,238.964 170.600 M109.354 183.200 C 109.354 185.950,109.418 187.075,109.496 185.700 C 109.574 184.325,109.574 182.075,109.496 180.700 C 109.418 179.325,109.354 180.450,109.354 183.200 M127.351 183.200 C 127.351 185.730,127.416 186.765,127.496 185.500 C 127.575 184.235,127.575 182.165,127.496 180.900 C 127.416 179.635,127.351 180.670,127.351 183.200 M187.599 195.919 L 187.798 203.000 187.909 196.230 C 187.970 192.506,187.880 189.320,187.710 189.149 C 187.539 188.978,187.490 192.024,187.599 195.919 M127.361 209.600 C 127.361 213.010,127.422 214.405,127.497 212.700 C 127.572 210.995,127.572 208.205,127.497 206.500 C 127.422 204.795,127.361 206.190,127.361 209.600 M109.361 210.000 C 109.361 213.410,109.422 214.805,109.497 213.100 C 109.572 211.395,109.572 208.605,109.497 206.900 C 109.422 205.195,109.361 206.590,109.361 210.000 M127.542 216.502 C 127.709 216.669,142.235 216.759,159.822 216.702 L 191.800 216.600 159.520 216.400 C 141.766 216.290,127.376 216.336,127.542 216.502 M45.462 216.700 C 45.294 216.972,68.272 216.969,98.000 216.693 C 104.270 216.635,95.056 216.545,77.524 216.494 C 59.992 216.442,45.564 216.535,45.462 216.700 M296.520 222.800 C 296.520 224.010,296.595 224.505,296.687 223.900 C 296.778 223.295,296.778 222.305,296.687 221.700 C 296.595 221.095,296.520 221.590,296.520 222.800 M313.701 223.800 C 313.705 224.680,313.787 224.993,313.883 224.495 C 313.979 223.998,313.975 223.278,313.875 222.895 C 313.775 222.513,313.696 222.920,313.701 223.800 M101.381 235.700 L 99.800 237.400 101.500 235.819 C 103.081 234.348,103.384 234.000,103.081 234.000 C 103.016 234.000,102.251 234.765,101.381 235.700 M49.300 257.876 C 49.685 257.976,50.315 257.976,50.700 257.876 C 51.085 257.775,50.770 257.693,50.000 257.693 C 49.230 257.693,48.915 257.775,49.300 257.876 M230.662 258.100 C 230.764 258.265,254.766 258.400,284.000 258.400 C 313.234 258.400,337.236 258.265,337.338 258.100 C 337.440 257.935,313.438 257.800,284.000 257.800 C 254.562 257.800,230.560 257.935,230.662 258.100 M287.600 272.800 L 220.200 273.003 287.476 273.102 C 332.002 273.167,354.836 273.065,355.000 272.800 C 355.136 272.580,355.192 272.444,355.124 272.498 C 355.056 272.552,324.670 272.688,287.600 272.800 " stroke="none" fill="#947904" fill-rule="evenodd"></path><path id="path3" d="M70.080 125.704 C 69.809 126.030,69.787 126.699,70.018 127.604 L 70.374 129.000 70.269 127.511 C 70.130 125.555,69.919 125.600,79.209 125.600 C 88.006 125.600,87.530 125.441,88.029 128.540 L 88.360 130.600 88.240 128.513 C 88.045 125.120,88.273 125.200,78.800 125.200 C 72.613 125.200,70.391 125.328,70.080 125.704 M149.288 125.700 C 149.063 125.975,148.782 127.460,148.663 129.000 L 148.447 131.800 148.923 128.800 L 149.400 125.800 158.262 125.800 C 163.136 125.800,167.041 125.665,166.938 125.500 C 166.598 124.950,149.746 125.141,149.288 125.700 M166.625 129.625 C 166.470 131.194,166.427 132.561,166.529 132.662 C 166.631 132.764,166.843 131.566,167.000 130.000 C 167.157 128.434,167.200 127.067,167.096 126.963 C 166.992 126.858,166.780 128.056,166.625 129.625 M212.896 197.100 C 212.949 234.885,213.039 257.070,213.096 246.400 C 213.366 195.617,213.369 128.400,213.100 128.400 C 212.935 128.400,212.843 159.315,212.896 197.100 M348.000 128.952 C 350.720 129.552,351.626 130.040,352.957 131.622 C 353.531 132.304,354.000 132.689,354.000 132.477 C 354.000 131.015,349.267 128.359,346.800 128.436 C 346.250 128.453,346.790 128.685,348.000 128.952 M70.476 131.200 C 70.467 131.750,70.603 133.010,70.780 134.000 C 71.020 135.350,71.107 135.500,71.127 134.600 C 71.142 133.940,71.005 132.680,70.823 131.800 C 70.616 130.798,70.486 130.574,70.476 131.200 M88.901 134.200 C 88.905 135.080,88.987 135.393,89.083 134.895 C 89.179 134.398,89.175 133.678,89.075 133.295 C 88.975 132.913,88.896 133.320,88.901 134.200 M354.258 134.400 C 354.575 136.125,354.802 136.451,354.794 135.167 C 354.791 134.635,354.611 133.930,354.394 133.600 C 354.118 133.178,354.077 133.415,354.258 134.400 M165.850 135.650 C 165.526 137.268,165.535 137.600,165.900 137.599 C 166.065 137.599,166.249 136.879,166.310 135.999 C 166.441 134.090,166.199 133.906,165.850 135.650 M147.568 136.100 C 147.449 136.960,147.510 137.450,147.712 137.248 C 147.905 137.055,147.998 136.381,147.919 135.749 C 147.787 134.691,147.759 134.719,147.568 136.100 M354.800 204.680 C 354.690 242.124,354.736 272.625,354.901 272.459 C 355.067 272.293,355.157 241.657,355.101 204.379 L 355.000 136.600 354.800 204.680 M45.386 144.700 L 45.400 151.800 77.178 151.902 C 101.967 151.982,109.033 152.114,109.308 152.502 C 109.568 152.869,109.618 152.842,109.497 152.400 C 109.354 151.874,105.396 151.787,77.476 151.698 L 45.618 151.595 45.495 144.597 L 45.371 137.599 45.386 144.700 M191.400 144.500 L 191.400 151.400 159.618 151.502 C 142.137 151.559,127.701 151.739,127.537 151.902 C 127.374 152.066,141.766 152.110,159.520 152.000 L 191.800 151.800 191.909 144.700 C 191.969 140.795,191.879 137.600,191.709 137.600 C 191.539 137.600,191.400 140.705,191.400 144.500 M230.267 143.067 C 229.745 143.589,229.956 257.796,230.480 258.320 C 231.026 258.866,337.002 259.044,337.338 258.500 C 337.440 258.335,313.466 258.200,284.062 258.200 L 230.600 258.200 230.499 200.701 L 230.397 143.203 284.099 143.100 L 337.800 142.997 284.167 142.899 C 254.668 142.844,230.413 142.920,230.267 143.067 M337.795 200.600 C 337.795 232.060,337.842 244.989,337.900 229.331 C 337.958 213.674,337.958 187.934,337.900 172.131 C 337.842 156.329,337.795 169.140,337.795 200.600 M296.992 151.300 C 296.891 151.575,296.761 154.410,296.704 157.600 L 296.600 163.400 267.800 163.604 L 239.000 163.808 267.620 163.904 C 289.455 163.977,296.354 163.886,296.720 163.520 C 297.050 163.190,297.200 161.189,297.200 157.112 L 297.200 151.183 305.300 151.292 L 313.400 151.400 313.511 157.173 C 313.655 164.587,312.920 164.000,322.049 164.000 L 329.600 164.000 329.600 170.600 L 329.600 177.200 321.787 177.200 C 315.893 177.200,313.934 177.323,313.808 177.700 C 313.717 177.975,313.587 189.360,313.521 203.000 C 313.454 216.640,313.511 226.450,313.648 224.800 C 313.784 223.150,313.919 211.859,313.948 199.708 L 314.000 177.617 321.900 177.508 L 329.800 177.400 329.800 170.600 L 329.800 163.800 322.000 163.600 L 314.200 163.400 314.089 157.417 C 314.011 153.245,313.830 151.339,313.489 151.123 C 312.613 150.566,297.200 150.732,296.992 151.300 M109.200 163.197 C 109.200 163.456,98.703 163.631,79.100 163.697 L 49.000 163.800 48.891 170.443 C 48.805 175.661,48.898 177.183,49.325 177.538 C 49.947 178.054,109.778 178.418,109.263 177.903 C 109.099 177.739,95.563 177.559,79.183 177.503 L 49.400 177.400 49.400 170.800 L 49.400 164.200 79.367 164.000 C 102.841 163.843,109.370 163.692,109.500 163.300 C 109.592 163.025,109.562 162.800,109.433 162.800 C 109.305 162.800,109.200 162.979,109.200 163.197 M127.535 163.695 C 127.921 164.081,187.600 164.290,187.600 163.905 C 187.600 163.743,174.019 163.563,157.420 163.505 C 140.821 163.447,127.373 163.533,127.535 163.695 M157.300 177.500 C 140.745 177.558,127.200 177.739,127.200 177.903 C 127.200 178.366,186.900 178.060,187.365 177.595 C 187.582 177.378,187.679 177.244,187.580 177.297 C 187.481 177.351,173.855 177.442,157.300 177.500 M251.577 177.497 L 263.955 177.611 264.121 179.306 L 264.288 181.000 264.244 179.200 L 264.200 177.400 251.700 177.391 L 239.200 177.383 251.577 177.497 M285.121 177.499 C 287.388 177.570,290.988 177.570,293.121 177.498 C 295.255 177.426,293.400 177.368,289.000 177.368 C 284.600 177.368,282.855 177.427,285.121 177.499 M296.987 200.800 C 296.987 213.450,297.038 218.625,297.100 212.300 C 297.162 205.975,297.162 195.625,297.100 189.300 C 297.038 182.975,296.987 188.150,296.987 200.800 M280.585 180.585 C 280.430 181.823,280.393 182.927,280.503 183.037 C 280.613 183.147,280.830 182.223,280.985 180.985 C 281.139 179.746,281.176 178.643,281.066 178.533 C 280.956 178.423,280.739 179.346,280.585 180.585 M263.309 185.200 C 263.309 186.190,263.387 186.595,263.482 186.100 C 263.578 185.605,263.578 184.795,263.482 184.300 C 263.387 183.805,263.309 184.210,263.309 185.200 M279.782 186.582 C 279.629 187.602,279.594 188.527,279.704 188.637 C 279.814 188.747,280.029 188.002,280.182 186.982 C 280.335 185.961,280.370 185.037,280.260 184.927 C 280.150 184.817,279.935 185.561,279.782 186.582 M109.200 188.400 C 109.200 188.663,99.029 188.802,79.500 188.806 C 63.165 188.809,49.571 188.958,49.290 189.136 C 48.902 189.382,48.806 191.081,48.890 196.230 L 49.000 203.000 78.978 203.103 C 102.327 203.182,109.034 203.315,109.308 203.703 C 109.568 204.069,109.618 204.042,109.497 203.600 C 109.354 203.075,105.594 202.987,79.257 202.897 L 49.181 202.795 49.290 196.097 L 49.400 189.400 79.367 189.200 C 102.841 189.043,109.370 188.892,109.500 188.500 C 109.592 188.225,109.562 188.000,109.433 188.000 C 109.305 188.000,109.200 188.180,109.200 188.400 M127.200 188.895 C 127.200 189.057,140.781 189.237,157.380 189.295 C 173.979 189.353,187.427 189.267,187.265 189.105 C 186.879 188.719,127.200 188.510,127.200 188.895 M262.493 190.400 C 262.493 191.170,262.575 191.485,262.676 191.100 C 262.776 190.715,262.776 190.085,262.676 189.700 C 262.575 189.315,262.493 189.630,262.493 190.400 M279.000 191.600 C 278.846 192.510,278.804 193.338,278.907 193.440 C 279.010 193.543,279.213 192.877,279.360 191.960 C 279.507 191.043,279.548 190.215,279.453 190.120 C 279.358 190.024,279.154 190.690,279.000 191.600 M261.654 194.400 C 261.619 194.950,261.496 195.850,261.383 196.400 L 261.177 197.400 261.607 196.415 C 261.843 195.874,261.965 194.974,261.878 194.415 L 261.720 193.400 261.654 194.400 M278.178 195.778 C 278.027 196.581,277.994 197.327,278.104 197.437 C 278.214 197.547,278.427 196.981,278.578 196.178 C 278.728 195.375,278.762 194.628,278.652 194.518 C 278.542 194.408,278.328 194.975,278.178 195.778 M260.849 198.200 C 260.816 198.640,260.696 199.450,260.583 200.000 L 260.377 201.000 260.806 200.019 C 261.042 199.479,261.161 198.669,261.072 198.219 C 260.913 197.421,260.907 197.421,260.849 198.200 M277.449 199.015 C 277.312 199.373,277.216 200.056,277.236 200.533 C 277.262 201.147,277.385 201.008,277.659 200.056 C 278.057 198.672,277.894 197.858,277.449 199.015 M260.054 201.867 C 260.025 202.344,259.896 203.064,259.770 203.467 C 259.552 204.161,259.564 204.162,259.996 203.488 C 260.247 203.097,260.375 202.377,260.281 201.888 C 260.109 201.001,260.109 201.001,260.054 201.867 M276.649 202.615 C 276.512 202.973,276.416 203.656,276.436 204.133 C 276.462 204.747,276.585 204.608,276.859 203.656 C 277.257 202.272,277.094 201.458,276.649 202.615 M157.617 202.700 C 141.237 202.758,127.701 202.939,127.537 203.103 C 127.374 203.266,140.821 203.353,157.420 203.295 C 176.949 203.227,187.600 203.051,187.600 202.795 C 187.600 202.578,187.555 202.444,187.500 202.497 C 187.445 202.551,173.998 202.642,157.617 202.700 M259.246 204.867 C 259.221 205.234,259.096 205.864,258.970 206.267 C 258.752 206.962,258.763 206.963,259.197 206.287 C 259.448 205.896,259.573 205.266,259.473 204.887 C 259.311 204.268,259.288 204.266,259.246 204.867 M275.800 206.400 C 275.648 207.091,275.607 207.741,275.709 207.842 C 275.811 207.944,276.009 207.453,276.150 206.750 C 276.291 206.047,276.331 205.398,276.241 205.308 C 276.150 205.217,275.952 205.709,275.800 206.400 M258.229 208.629 C 258.081 209.215,258.038 209.772,258.132 209.866 C 258.227 209.960,258.424 209.558,258.571 208.971 C 258.719 208.385,258.762 207.828,258.668 207.734 C 258.573 207.640,258.376 208.042,258.229 208.629 M275.049 209.015 C 274.912 209.373,274.815 209.966,274.834 210.333 C 274.853 210.700,275.027 210.469,275.221 209.820 C 275.598 208.558,275.465 207.933,275.049 209.015 M273.891 213.388 C 272.944 216.464,273.063 217.170,274.032 214.220 C 274.462 212.911,274.761 211.684,274.697 211.492 C 274.634 211.301,274.271 212.154,273.891 213.388 M256.846 213.067 C 256.821 213.324,256.684 213.864,256.541 214.267 C 256.340 214.836,256.394 214.897,256.779 214.542 C 257.052 214.291,257.189 213.751,257.084 213.342 C 256.979 212.934,256.872 212.810,256.846 213.067 M127.462 216.900 C 127.564 217.065,142.041 217.200,159.633 217.200 L 191.619 217.200 191.510 223.900 L 191.400 230.600 161.633 230.800 C 141.954 230.932,131.821 231.138,131.731 231.408 C 131.656 231.632,132.991 233.162,134.697 234.808 L 137.800 237.800 134.900 234.791 C 133.305 233.135,132.000 231.652,132.000 231.493 C 132.000 231.335,145.455 231.159,161.900 231.103 L 191.800 231.000 191.909 223.905 L 192.018 216.809 159.647 216.705 C 141.843 216.647,127.360 216.735,127.462 216.900 M45.377 217.315 C 45.268 217.599,45.229 220.794,45.290 224.415 L 45.400 231.000 74.978 231.103 C 98.007 231.182,104.634 231.315,104.908 231.703 C 105.168 232.069,105.218 232.042,105.097 231.600 C 104.954 231.075,101.239 230.987,75.267 230.897 L 45.600 230.795 45.600 224.000 L 45.600 217.205 77.100 217.100 L 108.600 216.995 77.087 216.898 C 51.675 216.819,45.537 216.900,45.377 217.315 M272.440 218.240 C 272.210 219.073,272.094 219.827,272.182 219.915 C 272.270 220.003,272.530 219.393,272.760 218.560 C 272.990 217.727,273.106 216.973,273.018 216.885 C 272.930 216.797,272.670 217.407,272.440 218.240 M271.057 222.457 C 270.690 223.593,270.459 224.592,270.544 224.677 C 270.628 224.762,271.001 223.904,271.371 222.771 C 271.742 221.639,271.973 220.640,271.885 220.551 C 271.797 220.463,271.424 221.321,271.057 222.457 M296.509 226.400 C 296.509 227.390,296.587 227.795,296.682 227.300 C 296.778 226.805,296.778 225.995,296.682 225.500 C 296.587 225.005,296.509 225.410,296.509 226.400 M251.467 228.067 C 251.105 228.988,250.874 229.807,250.954 229.888 C 251.034 229.968,251.400 229.283,251.767 228.367 C 252.133 227.450,252.364 226.631,252.279 226.546 C 252.194 226.461,251.829 227.145,251.467 228.067 M296.114 230.200 C 296.117 231.300,296.195 231.703,296.287 231.095 C 296.379 230.486,296.377 229.586,296.282 229.095 C 296.187 228.603,296.111 229.100,296.114 230.200 M312.585 231.785 C 312.430 233.023,312.393 234.127,312.503 234.237 C 312.613 234.347,312.830 233.423,312.985 232.185 C 313.139 230.946,313.176 229.843,313.066 229.733 C 312.956 229.623,312.739 230.546,312.585 231.785 M249.872 231.819 C 248.932 233.789,249.064 234.124,250.047 232.262 C 250.493 231.416,250.787 230.654,250.701 230.567 C 250.614 230.481,250.241 231.044,249.872 231.819 M267.050 233.191 C 266.147 235.447,266.287 235.783,267.237 233.642 C 267.666 232.675,267.945 231.812,267.858 231.725 C 267.771 231.638,267.408 232.298,267.050 233.191 M99.200 238.096 C 97.110 240.108,96.300 241.014,97.400 240.109 C 99.369 238.490,103.546 234.382,103.185 234.419 C 103.083 234.430,101.290 236.085,99.200 238.096 M295.254 235.067 C 295.225 235.544,295.096 236.264,294.970 236.667 C 294.752 237.361,294.764 237.362,295.196 236.688 C 295.447 236.297,295.575 235.577,295.481 235.088 C 295.309 234.201,295.309 234.201,295.254 235.067 M311.778 236.978 C 311.627 237.781,311.594 238.527,311.704 238.637 C 311.814 238.747,312.027 238.181,312.178 237.378 C 312.328 236.575,312.362 235.828,312.252 235.718 C 312.142 235.608,311.928 236.175,311.778 236.978 M246.862 238.062 C 246.377 238.970,246.042 239.776,246.118 239.852 C 246.195 239.928,246.654 239.247,247.138 238.338 C 247.623 237.430,247.958 236.624,247.882 236.548 C 247.805 236.472,247.346 237.153,246.862 238.062 M138.000 237.836 C 138.000 238.111,138.424 238.484,140.500 240.033 C 142.214 241.313,141.794 240.731,139.800 239.065 C 138.810 238.237,138.000 237.684,138.000 237.836 M294.446 238.067 C 294.421 238.434,294.296 239.064,294.170 239.467 C 293.952 240.162,293.963 240.163,294.397 239.487 C 294.648 239.096,294.773 238.466,294.673 238.087 C 294.511 237.468,294.488 237.466,294.446 238.067 M311.000 240.800 C 310.848 241.491,310.807 242.141,310.909 242.242 C 311.011 242.344,311.209 241.853,311.350 241.150 C 311.491 240.447,311.531 239.798,311.441 239.708 C 311.350 239.617,311.152 240.109,311.000 240.800 M115.066 243.974 C 111.398 248.286,106.512 252.624,101.508 256.011 C 97.656 258.619,95.968 259.963,98.400 258.488 C 104.476 254.800,112.225 248.075,116.707 242.600 L 118.345 240.600 122.422 244.917 C 124.664 247.292,126.555 249.179,126.623 249.110 C 126.783 248.951,118.653 240.400,118.341 240.400 C 118.211 240.400,116.737 242.008,115.066 243.974 M244.951 241.700 C 244.583 242.415,244.019 243.450,243.698 244.000 C 243.139 244.959,243.143 244.967,243.789 244.200 C 244.578 243.263,246.107 240.400,245.818 240.400 C 245.710 240.400,245.319 240.985,244.951 241.700 M142.005 241.103 C 142.010 241.406,143.888 242.705,146.400 244.143 C 148.405 245.291,147.809 244.766,144.700 242.646 C 143.215 241.634,142.002 240.939,142.005 241.103 M91.600 244.095 C 90.390 244.957,87.735 246.565,85.700 247.666 C 83.665 248.768,82.000 249.760,82.000 249.871 C 82.000 250.337,92.097 244.487,93.967 242.938 C 95.066 242.027,93.265 242.907,91.600 244.095 M261.828 244.261 C 261.256 245.284,260.869 246.202,260.967 246.301 C 261.066 246.399,261.611 245.562,262.180 244.440 C 263.473 241.888,263.225 241.762,261.828 244.261 M310.229 243.829 C 310.081 244.415,310.038 244.972,310.132 245.066 C 310.227 245.160,310.424 244.758,310.571 244.171 C 310.719 243.585,310.762 243.028,310.668 242.934 C 310.573 242.840,310.376 243.242,310.229 243.829 M148.800 245.564 C 149.350 246.014,149.980 246.383,150.200 246.385 C 150.628 246.388,149.905 245.834,148.600 245.160 C 148.069 244.885,148.136 245.021,148.800 245.564 M241.496 247.476 C 239.443 250.459,239.283 250.400,249.403 250.400 L 258.359 250.400 259.321 249.100 C 260.467 247.550,260.909 246.800,260.677 246.800 C 260.583 246.800,260.030 247.520,259.447 248.400 L 258.389 250.000 249.594 250.000 C 239.863 250.000,240.143 250.099,242.039 247.344 C 242.720 246.354,243.215 245.487,243.139 245.417 C 243.062 245.347,242.323 246.273,241.496 247.476 M309.467 246.267 C 309.320 246.413,309.211 246.908,309.225 247.367 C 309.249 248.133,309.282 248.123,309.634 247.242 C 310.026 246.263,309.944 245.789,309.467 246.267 M150.800 246.609 C 150.800 246.708,151.895 247.341,153.233 248.017 C 155.820 249.323,157.938 250.205,157.547 249.814 C 157.169 249.435,150.800 246.410,150.800 246.609 M308.537 249.117 C 308.235 250.274,291.026 250.539,290.670 249.392 C 290.538 248.967,290.501 248.997,290.546 249.492 C 290.656 250.699,308.170 250.776,308.814 249.573 C 309.062 249.110,309.153 248.620,309.017 248.483 C 308.880 248.347,308.664 248.632,308.537 249.117 M79.653 250.653 C 78.913 250.976,78.401 251.334,78.516 251.449 C 78.631 251.564,79.416 251.293,80.262 250.847 C 82.035 249.911,81.641 249.786,79.653 250.653 M128.124 250.277 C 128.460 250.821,131.600 253.355,131.600 253.082 C 131.600 252.980,130.753 252.203,129.719 251.355 C 128.684 250.507,127.966 250.022,128.124 250.277 M74.400 252.800 C 73.867 253.145,73.867 253.188,74.400 253.188 C 74.730 253.188,75.270 253.013,75.600 252.800 C 76.133 252.455,76.133 252.412,75.600 252.412 C 75.270 252.412,74.730 252.587,74.400 252.800 M132.000 253.371 C 132.000 253.579,136.299 256.662,138.200 257.817 C 140.266 259.073,138.741 257.833,135.300 255.459 C 133.485 254.207,132.000 253.267,132.000 253.371 M169.800 254.400 C 170.240 254.589,170.870 254.744,171.200 254.744 C 171.578 254.744,171.504 254.617,171.000 254.400 C 170.560 254.211,169.930 254.056,169.600 254.056 C 169.222 254.056,169.296 254.183,169.800 254.400 M67.000 255.200 L 66.200 255.544 67.000 255.566 C 67.440 255.578,68.070 255.413,68.400 255.200 C 69.195 254.686,68.196 254.686,67.000 255.200 M172.600 255.200 C 173.040 255.389,173.670 255.544,174.000 255.544 C 174.378 255.544,174.304 255.417,173.800 255.200 C 173.360 255.011,172.730 254.856,172.400 254.856 C 172.022 254.856,172.096 254.983,172.600 255.200 M63.800 256.000 L 63.000 256.344 63.800 256.366 C 64.240 256.378,64.870 256.213,65.200 256.000 C 65.995 255.486,64.996 255.486,63.800 256.000 M175.800 256.000 C 176.240 256.189,176.960 256.338,177.400 256.332 C 178.043 256.323,178.004 256.257,177.200 256.000 C 175.832 255.562,174.781 255.562,175.800 256.000 M59.600 256.800 C 58.233 257.088,58.228 257.095,59.400 257.119 C 60.060 257.133,60.960 256.989,61.400 256.800 C 62.362 256.387,61.564 256.387,59.600 256.800 M179.600 256.779 C 179.930 257.004,180.725 257.191,181.367 257.194 C 182.904 257.202,182.584 256.970,180.600 256.638 C 179.454 256.446,179.170 256.486,179.600 256.779 M53.200 257.600 L 51.000 257.870 53.200 257.895 C 54.410 257.909,55.850 257.776,56.400 257.600 L 57.400 257.280 56.400 257.305 C 55.850 257.319,54.410 257.452,53.200 257.600 M183.800 257.580 C 184.561 257.926,187.517 258.164,187.167 257.851 C 187.075 257.769,186.100 257.593,185.000 257.459 C 183.654 257.295,183.261 257.335,183.800 257.580 M47.977 259.061 C 47.755 259.644,47.632 260.297,47.704 260.512 C 47.776 260.727,48.035 260.250,48.280 259.451 C 48.794 257.774,48.574 257.490,47.977 259.061 M190.800 258.493 C 192.230 258.731,193.532 259.122,193.694 259.363 C 193.899 259.669,193.990 259.657,193.994 259.324 C 194.003 258.624,193.665 258.513,190.800 258.276 L 188.200 258.061 190.800 258.493 M139.800 258.690 C 140.020 258.900,140.920 259.476,141.800 259.970 C 142.680 260.465,143.040 260.570,142.600 260.204 C 141.706 259.461,139.172 258.091,139.800 258.690 M191.565 262.900 C 190.646 264.495,189.558 266.385,189.147 267.100 C 188.736 267.815,188.011 269.075,187.536 269.900 C 187.061 270.725,186.867 271.220,187.104 271.000 C 187.342 270.780,188.563 268.800,189.818 266.600 C 191.073 264.400,192.452 262.015,192.883 261.300 C 193.313 260.585,193.569 260.000,193.450 260.000 C 193.332 260.000,192.484 261.305,191.565 262.900 M92.200 261.627 C 91.540 262.050,91.144 262.397,91.320 262.398 C 91.760 262.401,94.000 261.224,94.000 260.990 C 94.000 260.642,93.412 260.851,92.200 261.627 M46.444 263.844 C 45.980 265.324,45.670 266.604,45.756 266.689 C 45.841 266.775,46.291 265.635,46.756 264.156 C 47.220 262.676,47.530 261.396,47.444 261.311 C 47.359 261.225,46.909 262.365,46.444 263.844 M79.200 267.098 C 78.210 267.448,77.595 267.798,77.834 267.878 C 78.073 267.958,79.063 267.670,80.034 267.240 C 82.159 266.297,81.694 266.218,79.200 267.098 M75.600 268.400 C 75.067 268.745,75.067 268.788,75.600 268.788 C 75.930 268.788,76.470 268.613,76.800 268.400 C 77.333 268.055,77.333 268.012,76.800 268.012 C 76.470 268.012,75.930 268.187,75.600 268.400 M214.212 269.223 C 215.035 270.814,218.187 272.814,219.778 272.754 C 220.978 272.709,220.974 272.703,219.567 272.428 C 217.577 272.039,215.295 270.544,214.580 269.161 C 214.250 268.523,213.889 268.000,213.779 268.000 C 213.669 268.000,213.864 268.550,214.212 269.223 M72.800 269.200 C 71.976 269.464,71.941 269.526,72.600 269.554 C 73.040 269.573,73.670 269.413,74.000 269.200 C 74.701 268.747,74.214 268.747,72.800 269.200 M44.031 271.480 C 43.725 272.536,43.394 273.625,43.295 273.900 C 43.159 274.275,43.851 274.382,46.057 274.329 L 49.000 274.259 46.338 274.029 L 43.676 273.800 44.262 272.073 C 44.585 271.123,44.790 270.169,44.718 269.953 C 44.645 269.736,44.336 270.424,44.031 271.480 M70.000 270.000 C 69.176 270.264,69.141 270.326,69.800 270.354 C 70.240 270.373,70.870 270.213,71.200 270.000 C 71.901 269.547,71.414 269.547,70.000 270.000 M165.400 270.000 C 165.840 270.189,166.470 270.344,166.800 270.344 C 167.178 270.344,167.104 270.217,166.600 270.000 C 166.160 269.811,165.530 269.656,165.200 269.656 C 164.822 269.656,164.896 269.783,165.400 270.000 M168.200 270.800 C 168.640 270.989,169.360 271.138,169.800 271.132 C 170.443 271.123,170.404 271.057,169.600 270.800 C 168.232 270.362,167.181 270.362,168.200 270.800 M63.000 271.600 C 61.911 271.877,61.893 271.907,62.800 271.925 C 63.350 271.935,64.160 271.789,64.600 271.600 C 65.586 271.176,64.666 271.176,63.000 271.600 M172.033 271.747 C 172.125 271.828,172.920 272.004,173.800 272.138 C 174.915 272.307,175.158 272.271,174.600 272.019 C 173.832 271.671,171.690 271.444,172.033 271.747 M185.983 272.633 C 185.451 273.626,185.326 273.657,182.615 273.457 C 180.306 273.287,180.123 273.312,181.600 273.595 C 184.701 274.190,185.451 274.087,186.186 272.965 C 186.559 272.396,186.790 271.856,186.699 271.766 C 186.609 271.675,186.286 272.065,185.983 272.633 M58.100 272.676 C 58.485 272.776,59.115 272.776,59.500 272.676 C 59.885 272.575,59.570 272.493,58.800 272.493 C 58.030 272.493,57.715 272.575,58.100 272.676 M50.600 273.615 C 49.844 273.818,50.362 273.854,52.000 273.715 C 53.430 273.593,54.675 273.428,54.767 273.347 C 55.070 273.080,51.822 273.289,50.600 273.615 " stroke="none" fill="#735c04" fill-rule="evenodd"></path><path id="path4" d="M69.347 125.393 C 69.219 125.728,69.301 126.856,69.530 127.901 L 69.946 129.800 69.727 127.500 L 69.508 125.200 78.474 125.200 C 85.097 125.200,87.578 125.331,87.970 125.700 C 88.398 126.104,88.465 126.084,88.317 125.600 C 88.039 124.689,69.694 124.489,69.347 125.393 M148.667 125.067 C 148.520 125.213,148.418 125.798,148.440 126.367 L 148.480 127.400 148.758 126.400 L 149.036 125.400 157.968 125.292 C 166.119 125.194,166.947 125.246,167.437 125.892 C 167.733 126.281,167.980 126.411,167.987 126.180 C 168.025 124.946,166.969 124.800,157.987 124.800 C 153.007 124.800,148.813 124.920,148.667 125.067 M167.320 128.800 C 167.320 130.010,167.395 130.505,167.487 129.900 C 167.578 129.295,167.578 128.305,167.487 127.700 C 167.395 127.095,167.320 127.590,167.320 128.800 M88.487 128.600 C 88.491 129.040,88.632 129.940,88.800 130.600 C 89.074 131.678,89.106 131.698,89.113 130.800 C 89.117 130.250,88.976 129.350,88.800 128.800 C 88.549 128.016,88.481 127.973,88.487 128.600 M348.200 128.400 C 349.301 128.873,349.692 128.873,349.400 128.400 C 349.264 128.180,348.758 128.013,348.276 128.028 C 347.431 128.055,347.429 128.069,348.200 128.400 M147.846 131.046 C 147.700 132.293,147.659 133.393,147.757 133.490 C 147.854 133.588,148.061 132.654,148.215 131.415 C 148.370 130.177,148.410 129.077,148.305 128.971 C 148.199 128.866,147.993 129.799,147.846 131.046 M350.976 129.413 C 351.404 129.736,351.933 130.000,352.153 130.000 C 352.373 130.000,352.204 129.736,351.776 129.413 C 351.349 129.090,350.820 128.825,350.600 128.825 C 350.380 128.825,350.549 129.090,350.976 129.413 M70.047 132.033 C 70.073 133.005,70.237 134.340,70.411 135.000 C 70.602 135.728,70.641 135.098,70.509 133.400 C 70.261 130.221,69.976 129.376,70.047 132.033 M353.628 131.400 C 353.628 131.620,353.886 132.250,354.200 132.800 C 354.514 133.350,354.772 133.620,354.772 133.400 C 354.772 133.180,354.514 132.550,354.200 132.000 C 353.886 131.450,353.628 131.180,353.628 131.400 M89.287 134.000 C 89.283 134.550,89.424 135.450,89.600 136.000 C 90.031 137.344,90.031 135.892,89.600 134.200 C 89.326 133.122,89.294 133.102,89.287 134.000 M355.000 203.515 L 355.000 273.000 286.915 273.000 C 249.468 273.000,219.138 273.122,219.515 273.272 C 220.839 273.798,354.592 273.648,355.120 273.120 C 355.648 272.592,355.798 136.040,355.272 134.715 C 355.122 134.338,355.000 165.298,355.000 203.515 M166.552 135.800 L 166.600 137.400 179.300 137.506 L 192.000 137.611 192.000 144.772 C 192.000 149.264,191.847 152.009,191.590 152.137 C 191.365 152.249,191.410 152.293,191.690 152.237 C 192.081 152.157,192.200 150.416,192.200 144.767 L 192.200 137.400 179.524 137.294 L 166.848 137.189 166.676 135.694 L 166.505 134.200 166.552 135.800 M147.246 135.467 C 147.221 135.724,147.084 136.264,146.941 136.667 C 146.740 137.236,146.794 137.297,147.179 136.942 C 147.452 136.691,147.589 136.151,147.484 135.742 C 147.379 135.334,147.272 135.210,147.246 135.467 M45.067 137.467 C 44.697 137.836,44.729 151.909,45.100 152.139 C 45.265 152.241,45.347 149.014,45.283 144.968 L 45.166 137.611 57.883 137.500 L 70.600 137.388 57.967 137.294 C 51.018 137.242,45.213 137.320,45.067 137.467 M104.129 137.500 C 112.011 137.561,124.791 137.561,132.529 137.500 C 140.268 137.439,133.820 137.389,118.200 137.390 C 102.580 137.390,96.248 137.439,104.129 137.500 M230.585 143.699 C 230.480 143.974,230.441 169.760,230.497 201.000 L 230.600 257.800 284.000 257.800 L 337.400 257.800 337.400 200.600 L 337.400 143.400 284.088 143.299 C 241.649 143.218,230.737 143.299,230.585 143.699 M337.200 200.600 L 337.200 257.600 284.000 257.600 L 230.800 257.600 230.800 200.600 L 230.800 143.600 284.000 143.600 L 337.200 143.600 337.200 200.600 M296.397 151.205 C 295.871 152.188,295.911 163.302,296.439 162.976 C 296.638 162.853,296.800 160.067,296.800 156.784 L 296.800 150.816 305.300 150.700 L 313.800 150.583 305.314 150.492 C 297.170 150.404,296.811 150.432,296.397 151.205 M314.162 157.000 C 314.162 160.520,314.224 161.906,314.298 160.081 C 314.372 158.256,314.372 155.376,314.297 153.681 C 314.222 151.986,314.161 153.480,314.162 157.000 M48.578 163.714 C 48.469 163.997,48.430 167.372,48.490 171.214 L 48.600 178.200 79.000 178.205 L 109.400 178.210 79.200 178.005 L 49.000 177.800 49.000 170.500 C 49.000 163.286,48.964 162.707,48.578 163.714 M187.500 163.630 C 188.025 164.186,188.247 176.090,187.757 177.367 C 187.539 177.936,184.507 178.000,157.581 178.000 C 141.117 178.000,127.564 178.135,127.462 178.300 C 127.143 178.816,187.250 178.456,187.874 177.939 C 188.708 177.246,188.452 163.543,187.600 163.283 C 187.116 163.135,187.096 163.202,187.500 163.630 M329.961 163.753 C 330.276 164.132,330.386 166.365,330.310 170.853 L 330.200 177.400 322.284 177.509 C 316.468 177.588,314.322 177.747,314.194 178.109 C 314.099 178.379,313.971 189.760,313.910 203.400 C 313.850 217.040,313.922 227.390,314.070 226.400 C 314.219 225.410,314.354 214.115,314.370 201.300 L 314.400 178.000 322.120 178.000 C 327.591 178.000,329.980 177.860,330.320 177.520 C 331.303 176.537,330.920 163.200,329.908 163.200 C 329.659 163.200,329.679 163.414,329.961 163.753 M238.485 170.651 C 238.419 175.623,238.522 177.204,238.934 177.545 C 239.291 177.842,243.420 178.023,251.434 178.094 L 263.400 178.200 263.326 180.200 C 263.264 181.872,263.305 182.003,263.579 181.000 C 263.758 180.340,263.927 179.308,263.953 178.706 L 264.000 177.611 251.500 177.506 L 239.000 177.400 238.785 170.800 L 238.570 164.200 238.485 170.651 M288.713 177.986 L 296.026 178.200 296.072 202.400 C 296.098 216.350,296.245 225.160,296.419 223.200 C 296.781 219.119,296.904 179.136,296.557 178.233 C 296.346 177.683,295.340 177.611,288.857 177.686 L 281.400 177.773 288.713 177.986 M281.301 179.800 C 281.305 180.680,281.387 180.993,281.483 180.495 C 281.579 179.998,281.575 179.278,281.475 178.895 C 281.375 178.513,281.296 178.920,281.301 179.800 M262.618 185.818 C 262.465 186.839,262.422 187.755,262.522 187.855 C 262.622 187.955,262.829 187.202,262.982 186.182 C 263.135 185.161,263.178 184.245,263.078 184.145 C 262.978 184.045,262.771 184.798,262.618 185.818 M280.459 185.800 C 280.420 186.460,280.296 187.450,280.183 188.000 L 279.977 189.000 280.408 188.014 C 280.644 187.472,280.768 186.482,280.683 185.814 L 280.528 184.600 280.459 185.800 M78.800 188.396 L 48.600 188.600 48.600 196.000 L 48.600 203.400 79.000 203.404 L 109.400 203.408 79.091 203.301 L 48.782 203.195 48.891 196.097 L 49.000 189.000 79.100 188.897 C 98.703 188.831,109.200 188.656,109.200 188.397 C 109.200 188.179,109.155 188.043,109.100 188.096 C 109.045 188.149,95.410 188.284,78.800 188.396 M157.600 188.796 L 187.800 189.000 187.800 196.000 L 187.800 203.000 157.600 203.204 L 127.400 203.408 157.267 203.504 C 173.694 203.557,187.419 203.491,187.767 203.357 C 188.585 203.043,188.726 189.686,187.920 188.880 C 187.553 188.513,180.344 188.423,157.420 188.496 L 127.400 188.592 157.600 188.796 M261.849 190.615 C 261.712 190.973,261.616 191.656,261.636 192.133 C 261.662 192.747,261.785 192.608,262.059 191.656 C 262.457 190.272,262.294 189.458,261.849 190.615 M279.654 190.800 C 279.619 191.350,279.496 192.250,279.383 192.800 L 279.177 193.800 279.607 192.815 C 279.843 192.274,279.965 191.374,279.878 190.815 L 279.720 189.800 279.654 190.800 M261.049 195.015 C 260.912 195.373,260.815 195.966,260.834 196.333 C 260.853 196.700,261.027 196.469,261.221 195.820 C 261.598 194.558,261.465 193.933,261.049 195.015 M278.849 195.200 C 278.816 195.530,278.689 196.250,278.567 196.800 C 278.375 197.664,278.407 197.703,278.799 197.088 C 279.048 196.697,279.175 195.977,279.081 195.488 C 278.986 195.000,278.882 194.870,278.849 195.200 M260.273 198.553 C 260.123 198.945,260.011 199.566,260.025 199.933 C 260.042 200.375,260.181 200.274,260.437 199.634 C 260.649 199.103,260.761 198.482,260.685 198.254 C 260.609 198.027,260.424 198.161,260.273 198.553 M278.049 198.800 C 278.016 199.130,277.889 199.850,277.767 200.400 C 277.575 201.264,277.607 201.303,277.999 200.688 C 278.248 200.297,278.375 199.577,278.281 199.088 C 278.186 198.600,278.082 198.470,278.049 198.800 M277.246 202.467 C 277.221 202.834,277.096 203.464,276.970 203.867 C 276.752 204.562,276.763 204.563,277.197 203.887 C 277.448 203.496,277.573 202.866,277.473 202.487 C 277.311 201.868,277.288 201.866,277.246 202.467 M258.667 205.067 C 258.520 205.213,258.411 205.708,258.425 206.167 C 258.449 206.933,258.482 206.923,258.834 206.042 C 259.226 205.063,259.144 204.589,258.667 205.067 M276.446 205.867 C 276.421 206.124,276.284 206.664,276.141 207.067 C 275.940 207.636,275.994 207.697,276.379 207.342 C 276.652 207.091,276.789 206.551,276.684 206.142 C 276.579 205.734,276.472 205.610,276.446 205.867 M273.800 215.200 C 273.650 215.673,273.617 216.150,273.727 216.260 C 273.837 216.370,274.050 216.073,274.200 215.600 C 274.350 215.127,274.383 214.650,274.273 214.540 C 274.163 214.430,273.950 214.727,273.800 215.200 M44.978 216.914 C 44.869 217.197,44.830 220.572,44.890 224.414 L 45.000 231.400 74.772 231.600 L 104.543 231.800 102.223 234.400 L 99.903 237.000 102.362 234.478 C 103.714 233.092,104.715 231.787,104.587 231.578 C 104.443 231.346,92.932 231.200,74.759 231.200 L 45.166 231.200 45.283 223.800 C 45.398 216.517,45.370 215.891,44.978 216.914 M191.917 223.800 L 192.034 231.200 162.217 231.200 C 134.205 231.200,131.346 231.301,132.862 232.238 C 133.147 232.414,133.215 232.348,133.040 232.064 C 132.827 231.721,140.232 231.579,162.478 231.503 L 192.200 231.400 192.309 223.900 C 192.369 219.775,192.279 216.400,192.109 216.400 C 191.939 216.399,191.853 219.729,191.917 223.800 M250.650 228.791 C 249.747 231.047,249.887 231.383,250.837 229.242 C 251.266 228.275,251.545 227.412,251.458 227.325 C 251.371 227.238,251.008 227.898,250.650 228.791 M313.270 230.650 C 313.231 231.338,313.105 232.507,312.989 233.250 C 312.796 234.486,312.815 234.517,313.208 233.614 C 313.444 233.072,313.571 231.902,313.489 231.014 C 313.368 229.702,313.327 229.633,313.270 230.650 M295.378 231.378 C 295.227 232.181,295.194 232.927,295.304 233.037 C 295.414 233.147,295.627 232.581,295.778 231.778 C 295.928 230.975,295.962 230.228,295.852 230.118 C 295.742 230.008,295.528 230.575,295.378 231.378 M267.867 232.467 C 267.505 233.388,267.274 234.207,267.354 234.288 C 267.434 234.368,267.800 233.683,268.167 232.767 C 268.533 231.850,268.764 231.031,268.679 230.946 C 268.594 230.861,268.229 231.545,267.867 232.467 M135.400 235.075 C 136.319 236.079,141.019 240.000,141.302 240.000 C 141.472 240.000,140.482 239.055,139.102 237.900 C 136.341 235.589,134.780 234.399,135.400 235.075 M266.400 235.684 C 266.400 235.804,266.128 236.554,265.795 237.351 C 265.462 238.148,265.279 238.800,265.389 238.800 C 265.706 238.800,266.833 235.900,266.605 235.672 C 266.492 235.559,266.400 235.565,266.400 235.684 M312.449 236.200 C 312.416 236.640,312.296 237.450,312.183 238.000 L 311.977 239.000 312.406 238.019 C 312.642 237.479,312.761 236.669,312.672 236.219 C 312.513 235.421,312.507 235.421,312.449 236.200 M98.000 238.513 C 97.230 239.223,96.078 240.211,95.439 240.708 C 94.800 241.205,94.354 241.687,94.446 241.780 C 94.539 241.873,95.837 240.880,97.331 239.574 C 98.824 238.268,99.901 237.205,99.723 237.211 C 99.545 237.217,98.770 237.803,98.000 238.513 M311.429 241.029 C 311.281 241.615,311.251 242.184,311.361 242.294 C 311.471 242.404,311.681 242.015,311.829 241.429 C 311.976 240.842,312.006 240.273,311.896 240.163 C 311.786 240.053,311.576 240.442,311.429 241.029 M118.000 241.224 C 118.000 241.457,118.169 241.543,118.375 241.415 C 118.582 241.288,118.936 241.502,119.163 241.892 C 119.390 242.281,119.581 242.411,119.588 242.180 C 119.602 241.690,118.785 240.800,118.320 240.800 C 118.144 240.800,118.000 240.991,118.000 241.224 M117.200 241.901 C 117.200 242.140,116.300 243.320,115.200 244.524 C 114.100 245.727,113.200 246.840,113.200 246.997 C 113.200 247.301,116.238 244.003,117.141 242.718 C 117.438 242.294,117.573 241.840,117.441 241.707 C 117.308 241.575,117.200 241.662,117.200 241.901 M121.599 244.688 C 123.073 246.492,128.983 251.860,131.400 253.589 C 132.706 254.523,131.604 253.487,128.200 250.581 C 126.440 249.078,123.851 246.668,122.447 245.224 C 120.147 242.859,120.063 242.806,121.599 244.688 M147.600 244.367 C 148.563 245.152,149.200 245.408,149.200 245.010 C 149.200 244.906,148.615 244.535,147.900 244.186 L 146.600 243.552 147.600 244.367 M86.700 246.629 C 85.205 247.440,85.296 247.778,86.800 247.000 C 87.460 246.659,88.000 246.294,88.000 246.190 C 88.000 245.932,87.957 245.947,86.700 246.629 M155.200 248.400 C 155.970 248.822,156.780 249.166,157.000 249.166 C 157.220 249.166,156.770 248.822,156.000 248.400 C 155.230 247.978,154.420 247.634,154.200 247.634 C 153.980 247.634,154.430 247.978,155.200 248.400 M308.986 249.320 C 308.606 250.186,308.452 250.202,299.251 250.307 L 289.903 250.415 290.129 249.550 C 290.291 248.932,290.232 248.808,289.925 249.115 C 288.459 250.581,289.678 250.800,299.320 250.800 L 308.665 250.800 309.200 249.801 C 309.494 249.251,309.653 248.720,309.554 248.620 C 309.454 248.521,309.199 248.836,308.986 249.320 M239.867 249.067 C 239.720 249.213,239.600 249.663,239.600 250.067 C 239.600 251.171,258.397 251.203,259.232 250.100 C 259.682 249.504,259.678 249.475,259.201 249.900 C 258.103 250.879,239.857 250.592,240.116 249.600 C 240.339 248.746,240.291 248.643,239.867 249.067 M108.575 251.300 L 107.400 252.600 108.798 251.400 C 109.567 250.740,110.272 250.155,110.365 250.100 C 110.457 250.045,110.357 250.000,110.142 250.000 C 109.926 250.000,109.221 250.585,108.575 251.300 M160.602 250.741 C 161.483 251.150,162.653 251.600,163.202 251.742 C 163.751 251.885,163.479 251.667,162.598 251.259 C 161.717 250.850,160.547 250.400,159.998 250.258 C 159.449 250.115,159.721 250.333,160.602 250.741 M77.000 251.414 C 75.995 251.898,75.963 251.953,76.800 251.751 C 77.350 251.619,77.971 251.350,78.180 251.155 C 78.698 250.671,78.414 250.733,77.000 251.414 M169.233 253.744 C 169.325 253.823,169.940 254.008,170.600 254.156 C 171.476 254.352,171.638 254.315,171.200 254.018 C 170.660 253.653,168.832 253.398,169.233 253.744 M132.544 254.309 C 132.860 254.821,135.200 256.553,135.200 256.275 C 135.200 256.176,134.539 255.591,133.732 254.975 C 132.924 254.359,132.389 254.059,132.544 254.309 M173.000 254.800 C 174.196 255.314,175.195 255.314,174.400 254.800 C 174.070 254.587,173.440 254.422,173.000 254.434 L 172.200 254.456 173.000 254.800 M63.400 255.600 C 62.381 256.038,63.432 256.038,64.800 255.600 C 65.604 255.343,65.643 255.277,65.000 255.268 C 64.560 255.262,63.840 255.411,63.400 255.600 M175.233 255.343 C 175.325 255.421,176.030 255.601,176.800 255.742 C 177.785 255.923,178.022 255.882,177.600 255.606 C 177.058 255.250,174.837 255.003,175.233 255.343 M59.400 256.410 C 58.866 256.647,59.198 256.686,60.400 256.527 C 61.390 256.396,62.275 256.224,62.367 256.144 C 62.714 255.843,60.164 256.072,59.400 256.410 M178.833 256.147 C 178.925 256.228,179.720 256.404,180.600 256.538 C 181.715 256.707,181.958 256.671,181.400 256.419 C 180.632 256.071,178.490 255.844,178.833 256.147 M52.400 257.200 C 50.348 257.632,52.655 257.646,55.400 257.218 L 57.400 256.907 55.600 256.906 C 54.610 256.906,53.170 257.038,52.400 257.200 M184.600 257.200 C 185.260 257.368,186.160 257.514,186.600 257.525 L 187.400 257.544 186.600 257.200 C 186.160 257.011,185.260 256.865,184.600 256.875 L 183.400 256.895 184.600 257.200 M191.000 258.013 C 194.039 258.495,194.519 258.684,194.164 259.259 C 193.977 259.561,194.052 259.615,194.377 259.414 C 195.415 258.773,193.763 257.937,191.153 257.783 L 188.600 257.633 191.000 258.013 M89.200 263.600 C 88.430 264.022,87.913 264.374,88.051 264.383 C 88.465 264.411,91.200 263.205,91.200 262.995 C 91.200 262.646,90.625 262.820,89.200 263.600 M146.800 262.996 C 146.800 263.270,149.249 264.484,149.432 264.301 C 149.519 264.214,148.962 263.844,148.195 263.478 C 147.428 263.112,146.800 262.895,146.800 262.996 M85.800 265.178 C 84.920 265.595,84.313 265.950,84.451 265.968 C 84.840 266.018,87.600 264.814,87.600 264.595 C 87.600 264.327,87.599 264.327,85.800 265.178 M212.406 265.433 C 212.409 266.075,212.596 266.870,212.821 267.200 C 213.114 267.630,213.154 267.346,212.962 266.200 C 212.630 264.216,212.398 263.896,212.406 265.433 M189.786 266.900 L 189.152 268.200 189.967 267.200 C 190.752 266.237,191.008 265.600,190.610 265.600 C 190.506 265.600,190.135 266.185,189.786 266.900 M153.600 266.231 C 153.600 266.501,155.678 267.256,155.876 267.057 C 155.967 266.967,155.492 266.701,154.820 266.467 C 154.149 266.233,153.600 266.127,153.600 266.231 M80.200 267.414 C 79.200 267.896,79.166 267.951,80.000 267.748 C 81.133 267.471,82.407 266.821,81.800 266.830 C 81.580 266.833,80.860 267.096,80.200 267.414 M188.200 269.600 C 187.859 270.260,187.669 270.800,187.779 270.800 C 187.889 270.800,188.259 270.260,188.600 269.600 C 188.941 268.940,189.131 268.400,189.021 268.400 C 188.911 268.400,188.541 268.940,188.200 269.600 M213.868 269.517 C 214.267 270.242,215.044 271.122,215.596 271.475 C 216.570 272.096,216.567 272.081,215.495 270.957 C 214.888 270.321,214.110 269.440,213.767 269.000 C 213.361 268.479,213.396 268.660,213.868 269.517 M74.400 269.200 C 73.867 269.545,73.867 269.588,74.400 269.588 C 74.730 269.588,75.270 269.413,75.600 269.200 C 76.133 268.855,76.133 268.812,75.600 268.812 C 75.270 268.812,74.730 268.987,74.400 269.200 M71.800 270.000 C 71.296 270.217,71.222 270.344,71.600 270.344 C 71.930 270.344,72.560 270.189,73.000 270.000 C 73.504 269.783,73.578 269.656,73.200 269.656 C 72.870 269.656,72.240 269.811,71.800 270.000 M65.400 271.600 C 64.896 271.817,64.822 271.944,65.200 271.944 C 65.530 271.944,66.160 271.789,66.600 271.600 C 67.104 271.383,67.178 271.256,66.800 271.256 C 66.470 271.256,65.840 271.411,65.400 271.600 M61.600 272.400 C 60.796 272.657,60.757 272.723,61.400 272.732 C 61.840 272.738,62.560 272.589,63.000 272.400 C 64.019 271.962,62.968 271.962,61.600 272.400 M172.600 272.400 C 173.040 272.589,173.670 272.744,174.000 272.744 C 174.378 272.744,174.304 272.617,173.800 272.400 C 173.360 272.211,172.730 272.056,172.400 272.056 C 172.022 272.056,172.096 272.183,172.600 272.400 M42.957 273.429 C 42.552 275.041,43.202 275.362,45.870 274.870 L 48.200 274.440 45.645 274.646 L 43.090 274.852 43.335 273.626 C 43.631 272.143,43.320 271.981,42.957 273.429 M57.000 273.200 C 55.911 273.477,55.893 273.507,56.800 273.525 C 57.350 273.535,58.160 273.389,58.600 273.200 C 59.586 272.776,58.666 272.776,57.000 273.200 M176.600 273.200 C 177.040 273.389,177.760 273.538,178.200 273.532 C 178.843 273.523,178.804 273.457,178.000 273.200 C 176.632 272.762,175.581 272.762,176.600 273.200 M51.400 274.000 L 50.200 274.305 51.400 274.313 C 52.060 274.317,53.050 274.176,53.600 274.000 L 54.600 273.680 53.600 273.687 C 53.050 273.691,52.060 273.832,51.400 274.000 M181.000 274.000 C 181.440 274.189,182.250 274.338,182.800 274.332 L 183.800 274.320 182.800 274.000 C 182.250 273.824,181.440 273.674,181.000 273.668 L 180.200 273.656 181.000 274.000 " stroke="none" fill="#bc9c04" fill-rule="evenodd"></path></g></svg>